{
.appVersion = "1303";
DisplayStrings = (
a,
Topographye
);
customParameters = (
{
name = Axes;
value = (
{
Name = Weight;
Tag = wght;
},
{
Name = Width;
Tag = wdth;
},
{
Name = Contrast;
Tag = CNTR;
}
);
},
{
name = vendorID;
value = JENS;
}
);
date = "2018-07-12 08:58:22 +0000";
designer = "Jens Kutilek";
familyName = Topography;
featurePrefixes = (
{
automatic = 1;
code = "languagesystem DFLT dflt;\012";
name = Languagesystems;
}
);
features = (
{
automatic = 1;
code = "feature pnum;\012feature tnum;\012feature case;\012";
name = aalt;
},
{
automatic = 1;
code = "sub one.tf by one;\012";
name = pnum;
},
{
automatic = 1;
code = "sub one by one.tf;\012";
name = tnum;
},
{
automatic = 1;
code = "sub dieresiscomb by dieresiscomb.case;\012";
name = case;
},
{
automatic = 1;
code = "sub C h by C_h;\012sub c h by c_h;\012sub c k by c_k;\012";
name = dlig;
}
);
fontMaster = (
{
alignmentZones = (
"{725, 16}",
"{670, 16}",
"{440, 16}",
"{0, -16}",
"{-275, -16}"
);
ascender = 725;
capHeight = 670;
custom = "Thin Narrow Low";
customValue = 100;
descender = -275;
id = "ADE64B87-3839-4AD4-BD35-A3CFF79840FC";
weightValue = 32;
widthValue = 50;
xHeight = 440;
},
{
alignmentZones = (
"{725, 16}",
"{670, 16}",
"{440, 16}",
"{0, -16}",
"{-275, -16}"
);
ascender = 725;
capHeight = 670;
customValue = 300;
descender = -275;
id = "484F8FD9-52EC-47CF-91D8-DA5450121283";
xHeight = 440;
},
{
alignmentZones = (
"{725, 16}",
"{670, 16}",
"{440, 16}",
"{0, -16}",
"{-275, -16}"
);
ascender = 725;
capHeight = 670;
customValue = 300;
descender = -275;
id = "28D540C6-4B1C-4739-9DB3-C8E6E4DDF73A";
weightValue = 32;
widthValue = 200;
xHeight = 440;
}
);
glyphs = (
{
glyphname = A;
lastChange = "2018-07-13 09:52:20 +0000";
layers = (
{
anchors = (
{
name = bottom;
position = "{155, 0}";
},
{
name = ogonek;
position = "{279, 10}";
},
{
name = top;
position = "{155, 670}";
}
);
layerId = "ADE64B87-3839-4AD4-BD35-A3CFF79840FC";
paths = (
{
closed = 1;
nodes = (
"214 215 LINE",
"214 245 LINE",
"74 245 LINE",
"74 215 LINE"
);
},
{
closed = 1;
nodes = (
"55 143 LINE SMOOTH",
"42 62 OFFCURVE",
"23 30 OFFCURVE",
"-8 30 CURVE SMOOTH",
"-13 30 LINE",
"-13 0 LINE",
"120 0 LINE",
"120 30 LINE",
"115 30 LINE SMOOTH",
"68 30 OFFCURVE",
"62 82 OFFCURVE",
"76 171 CURVE SMOOTH",
"140 582 LINE SMOOTH",
"129 582 LINE",
"204 106 LINE SMOOTH",
"214 47 OFFCURVE",
"208 30 OFFCURVE",
"184 30 CURVE SMOOTH",
"165 30 LINE",
"165 0 LINE",
"313 0 LINE",
"313 30 LINE",
"294 30 LINE SMOOTH",
"272 30 OFFCURVE",
"262 54 OFFCURVE",
"252 122 CURVE SMOOTH",
"164 680 LINE SMOOTH",
"138 680 LINE"
);
},
{
closed = 1;
nodes = (
"141 542 LINE",
"141 559 LINE",
"129 559 LINE",
"129 542 LINE"
);
}
);
width = 310;
},
{
anchors = (
{
name = bottom;
position = "{310, 0}";
},
{
name = ogonek;
position = "{558, 10}";
},
{
name = top;
position = "{310, 670}";
}
);
layerId = "484F8FD9-52EC-47CF-91D8-DA5450121283";
paths = (
{
closed = 1;
nodes = (
"427 215 LINE",
"427 245 LINE",
"147 245 LINE",
"147 215 LINE"
);
},
{
closed = 1;
nodes = (
"109 143 LINE SMOOTH",
"84 62 OFFCURVE",
"46 30 OFFCURVE",
"-15 30 CURVE SMOOTH",
"-25 30 LINE",
"-25 0 LINE",
"240 0 LINE",
"240 30 LINE",
"230 30 LINE SMOOTH",
"135 30 OFFCURVE",
"124 82 OFFCURVE",
"152 171 CURVE SMOOTH",
"279 582 LINE SMOOTH",
"258 582 LINE",
"408 106 LINE SMOOTH",
"427 47 OFFCURVE",
"415 30 OFFCURVE",
"367 30 CURVE SMOOTH",
"330 30 LINE",
"330 0 LINE",
"625 0 LINE",
"625 30 LINE",
"587 30 LINE SMOOTH",
"543 30 OFFCURVE",
"524 54 OFFCURVE",
"503 122 CURVE SMOOTH",
"328 680 LINE SMOOTH",
"275 680 LINE"
);
},
{
closed = 1;
nodes = (
"281 542 LINE",
"281 559 LINE",
"258 559 LINE",
"258 542 LINE"
);
}
);
width = 620;
},
{
anchors = (
{
name = bottom;
position = "{620, 0}";
},
{
name = ogonek;
position = "{1116, 10}";
},
{
name = top;
position = "{620, 670}";
}
);
layerId = "28D540C6-4B1C-4739-9DB3-C8E6E4DDF73A";
paths = (
{
closed = 1;
nodes = (
"854 215 LINE",
"854 245 LINE",
"294 245 LINE",
"294 215 LINE"
);
},
{
closed = 1;
nodes = (
"218 143 LINE SMOOTH",
"168 62 OFFCURVE",
"92 30 OFFCURVE",
"-30 30 CURVE SMOOTH",
"-50 30 LINE",
"-50 0 LINE",
"480 0 LINE",
"480 30 LINE",
"460 30 LINE SMOOTH",
"270 30 OFFCURVE",
"248 82 OFFCURVE",
"304 171 CURVE SMOOTH",
"558 582 LINE SMOOTH",
"516 582 LINE",
"816 106 LINE SMOOTH",
"854 47 OFFCURVE",
"830 30 OFFCURVE",
"734 30 CURVE SMOOTH",
"660 30 LINE",
"660 0 LINE",
"1250 0 LINE",
"1250 30 LINE",
"1174 30 LINE SMOOTH",
"1086 30 OFFCURVE",
"1048 54 OFFCURVE",
"1006 122 CURVE SMOOTH",
"656 680 LINE SMOOTH",
"550 680 LINE"
);
},
{
closed = 1;
nodes = (
"562 542 LINE",
"562 559 LINE",
"516 559 LINE",
"516 542 LINE"
);
}
);
width = 1240;
}
);
leftKerningGroup = A;
rightKerningGroup = A;
unicode = 0041;
userData = {
com.typemytype.robofont.layerData = {
background = {
anchors = (
);
components = (
);
contours = (
);
lib = {
};
name = A;
unicodes = (
);
width = 620;
};
};
com.typemytype.robofont.mark = (
0.9366,
0.9212,
0.4821,
1
);
};
},
{
glyphname = B;
lastChange = "2018-07-13 09:52:20 +0000";
layers = (
{
layerId = "ADE64B87-3839-4AD4-BD35-A3CFF79840FC";
paths = (
{
closed = 1;
nodes = (
"200 338 LINE",
"200 358 LINE",
"158 358 LINE",
"158 338 LINE"
);
},
{
closed = 1;
nodes = (
"225 94 OFFCURVE",
"203 30 OFFCURVE",
"153 30 CURVE SMOOTH",
"103 30 LINE",
"103 640 LINE",
"152 640 LINE SMOOTH",
"193 640 OFFCURVE",
"219 584 OFFCURVE",
"219 500 CURVE SMOOTH",
"219 424 OFFCURVE",
"202 362 OFFCURVE",
"152 362 CURVE SMOOTH",
"83 362 LINE",
"83 332 LINE",
"153 332 LINE SMOOTH",
"208 332 OFFCURVE",
"225 269 OFFCURVE",
"225 182 CURVE SMOOTH"
);
},
{
closed = 1;
nodes = (
"272 602 OFFCURVE",
"237 670 OFFCURVE",
"156 670 CURVE SMOOTH",
"3 670 LINE",
"3 640 LINE",
"32 640 LINE SMOOTH",
"45 640 OFFCURVE",
"50 626 OFFCURVE",
"50 602 CURVE SMOOTH",
"50 68 LINE SMOOTH",
"50 44 OFFCURVE",
"45 30 OFFCURVE",
"32 30 CURVE SMOOTH",
"3 30 LINE",
"3 0 LINE",
"176 0 LINE SMOOTH",
"237 0 OFFCURVE",
"280 65 OFFCURVE",
"280 181 CURVE SMOOTH",
"280 279 OFFCURVE",
"241 351 OFFCURVE",
"171 351 CURVE",
"171 345 LINE",
"229 345 OFFCURVE",
"272 410 OFFCURVE",
"272 508 CURVE SMOOTH"
);
}
);
width = 310;
},
{
layerId = "484F8FD9-52EC-47CF-91D8-DA5450121283";
paths = (
{
closed = 1;
nodes = (
"400 338 LINE",
"400 358 LINE",
"315 358 LINE",
"315 338 LINE"
);
},
{
closed = 1;
nodes = (
"450 94 OFFCURVE",
"405 30 OFFCURVE",
"306 30 CURVE SMOOTH",
"205 30 LINE",
"205 640 LINE",
"303 640 LINE SMOOTH",
"385 640 OFFCURVE",
"437 584 OFFCURVE",
"437 500 CURVE SMOOTH",
"437 424 OFFCURVE",
"404 362 OFFCURVE",
"303 362 CURVE SMOOTH",
"166 362 LINE",
"166 332 LINE",
"306 332 LINE SMOOTH",
"416 332 OFFCURVE",
"450 269 OFFCURVE",
"450 182 CURVE SMOOTH"
);
},
{
closed = 1;
nodes = (
"543 602 OFFCURVE",
"473 670 OFFCURVE",
"312 670 CURVE SMOOTH",
"5 670 LINE",
"5 640 LINE",
"63 640 LINE SMOOTH",
"90 640 OFFCURVE",
"100 626 OFFCURVE",
"100 602 CURVE SMOOTH",
"100 68 LINE SMOOTH",
"100 44 OFFCURVE",
"90 30 OFFCURVE",
"63 30 CURVE SMOOTH",
"5 30 LINE",
"5 0 LINE",
"352 0 LINE SMOOTH",
"473 0 OFFCURVE",
"560 65 OFFCURVE",
"560 181 CURVE SMOOTH",
"560 278.701 OFFCURVE",
"482 351 OFFCURVE",
"342 351 CURVE",
"342 345 LINE",
"458 345 OFFCURVE",
"543 410 OFFCURVE",
"543 508 CURVE SMOOTH"
);
}
);
width = 620;
},
{
layerId = "28D540C6-4B1C-4739-9DB3-C8E6E4DDF73A";
paths = (
{
closed = 1;
nodes = (
"800 338 LINE",
"800 358 LINE",
"630 358 LINE",
"630 338 LINE"
);
},
{
closed = 1;
nodes = (
"900 94 OFFCURVE",
"810 30 OFFCURVE",
"612 30 CURVE SMOOTH",
"410 30 LINE",
"410 640 LINE",
"606 640 LINE SMOOTH",
"770 640 OFFCURVE",
"874 584 OFFCURVE",
"874 500 CURVE SMOOTH",
"874 424 OFFCURVE",
"808 362 OFFCURVE",
"606 362 CURVE SMOOTH",
"332 362 LINE",
"332 332 LINE",
"612 332 LINE SMOOTH",
"832 332 OFFCURVE",
"900 269 OFFCURVE",
"900 182 CURVE SMOOTH"
);
},
{
closed = 1;
nodes = (
"1086 602 OFFCURVE",
"946 670 OFFCURVE",
"624 670 CURVE SMOOTH",
"10 670 LINE",
"10 640 LINE",
"126 640 LINE SMOOTH",
"180 640 OFFCURVE",
"200 626 OFFCURVE",
"200 602 CURVE SMOOTH",
"200 68 LINE SMOOTH",
"200 44 OFFCURVE",
"180 30 OFFCURVE",
"126 30 CURVE SMOOTH",
"10 30 LINE",
"10 0 LINE",
"704 0 LINE SMOOTH",
"946 0 OFFCURVE",
"1120 65 OFFCURVE",
"1120 181 CURVE SMOOTH",
"1120 279 OFFCURVE",
"964 351 OFFCURVE",
"684 351 CURVE",
"684 345 LINE",
"916 345 OFFCURVE",
"1086 410 OFFCURVE",
"1086 508 CURVE SMOOTH"
);
}
);
width = 1240;
}
);
leftKerningGroup = B;
unicode = 0042;
userData = {
com.typemytype.robofont.layerData = {
background = {
anchors = (
);
components = (
);
contours = (
);
lib = {
};
name = B;
unicodes = (
);
width = 620;
};
};
com.typemytype.robofont.mark = (
0.9366,
0.9212,
0.4821,
1
);
};
},
{
glyphname = C;
lastChange = "2018-07-13 09:52:20 +0000";
layers = (
{
background = {
paths = (
{
closed = 1;
nodes = (
"471 688 OFFCURVE",
"329 688 CURVE SMOOTH",
"180 688 OFFCURVE",
"50 572 OFFCURVE",
"50 335 CURVE SMOOTH",
"50 98 OFFCURVE",
"180 -18 OFFCURVE",
"340 -18 CURVE SMOOTH",
"460 -18 OFFCURVE",
"537 40 OFFCURVE",
"606 165 CURVE",
"578 180 LINE",
"515 74 OFFCURVE",
"452 22 OFFCURVE",
"369 22 CURVE SMOOTH",
"219 22 OFFCURVE",
"165 131 OFFCURVE",
"165 335 CURVE SMOOTH",
"165 546 OFFCURVE",
"209 657 OFFCURVE",
"328 657 CURVE SMOOTH",
"370 657 OFFCURVE",
"399 640 OFFCURVE",
"399 613 CURVE SMOOTH",
"399 586 OFFCURVE",
"383 582 OFFCURVE",
"383 547 CURVE SMOOTH",
"383 508 OFFCURVE",
"410 482 OFFCURVE",
"452 482 CURVE SMOOTH",
"493 482 OFFCURVE",
"525 513 OFFCURVE",
"525 560 CURVE SMOOTH",
"525 622 OFFCURVE"
);
}
);
};
layerId = "ADE64B87-3839-4AD4-BD35-A3CFF79840FC";
paths = (
{
closed = 1;
nodes = (
"278 675 LINE",
"263 675 LINE",
"258 655 OFFCURVE",
"250 646 OFFCURVE",
"240 646 CURVE SMOOTH",
"230 646 OFFCURVE",
"222 656 OFFCURVE",
"211 666 CURVE SMOOTH",
"196 680 OFFCURVE",
"181 688 OFFCURVE",
"163 688 CURVE SMOOTH",
"90 688 OFFCURVE",
"25 558 OFFCURVE",
"25 335 CURVE SMOOTH",
"25 113 OFFCURVE",
"90 -18 OFFCURVE",
"164 -18 CURVE SMOOTH",
"236 -18 OFFCURVE",
"273 82 OFFCURVE",
"282 230 CURVE",
"263 230 LINE",
"255 105 OFFCURVE",
"226 17 OFFCURVE",
"165 17 CURVE SMOOTH",
"105 17 OFFCURVE",
"83 127 OFFCURVE",
"83 335 CURVE SMOOTH",
"83 546 OFFCURVE",
"105 657 OFFCURVE",
"164 657 CURVE SMOOTH",
"210 657 OFFCURVE",
"248 572 OFFCURVE",
"262 435 CURVE",
"278 435 LINE"
);
}
);
width = 319;
},
{
background = {
paths = (
{
closed = 1;
nodes = (
"471 688 OFFCURVE",
"329 688 CURVE SMOOTH",
"180 688 OFFCURVE",
"50 572 OFFCURVE",
"50 335 CURVE SMOOTH",
"50 98 OFFCURVE",
"180 -18 OFFCURVE",
"340 -18 CURVE SMOOTH",
"460 -18 OFFCURVE",
"537 40 OFFCURVE",
"606 165 CURVE",
"578 180 LINE",
"515 74 OFFCURVE",
"452 22 OFFCURVE",
"369 22 CURVE SMOOTH",
"219 22 OFFCURVE",
"165 131 OFFCURVE",
"165 335 CURVE SMOOTH",
"165 546 OFFCURVE",
"209 657 OFFCURVE",
"328 657 CURVE SMOOTH",
"370 657 OFFCURVE",
"399 640 OFFCURVE",
"399 613 CURVE SMOOTH",
"399 586 OFFCURVE",
"383 582 OFFCURVE",
"383 547 CURVE SMOOTH",
"383 508 OFFCURVE",
"410 482 OFFCURVE",
"452 482 CURVE SMOOTH",
"493 482 OFFCURVE",
"525 513 OFFCURVE",
"525 560 CURVE SMOOTH",
"525 622 OFFCURVE"
);
}
);
};
layerId = "484F8FD9-52EC-47CF-91D8-DA5450121283";
paths = (
{
closed = 1;
nodes = (
"555 675 LINE",
"526 675 LINE",
"515 655 OFFCURVE",
"500 646 OFFCURVE",
"479 646 CURVE SMOOTH",
"460 646 OFFCURVE",
"443 656 OFFCURVE",
"422 666 CURVE SMOOTH",
"391 680 OFFCURVE",
"362 688 OFFCURVE",
"326 688 CURVE SMOOTH",
"180 688 OFFCURVE",
"50 558 OFFCURVE",
"50 335 CURVE SMOOTH",
"50 113 OFFCURVE",
"180 -18 OFFCURVE",
"327 -18 CURVE SMOOTH",
"471 -18 OFFCURVE",
"546 82 OFFCURVE",
"563 230 CURVE",
"525 230 LINE",
"509 105 OFFCURVE",
"452.254 17 OFFCURVE",
"330 17 CURVE SMOOTH",
"209 17 OFFCURVE",
"165 127.306 OFFCURVE",
"165 335 CURVE SMOOTH",
"165 546 OFFCURVE",
"209 657 OFFCURVE",
"328 657 CURVE SMOOTH",
"420 657 OFFCURVE",
"495 572 OFFCURVE",
"523 435 CURVE",
"555 435 LINE"
);
}
);
width = 638;
},
{
background = {
paths = (
{
closed = 1;
nodes = (
"471 688 OFFCURVE",
"329 688 CURVE SMOOTH",
"180 688 OFFCURVE",
"50 572 OFFCURVE",
"50 335 CURVE SMOOTH",
"50 98 OFFCURVE",
"180 -18 OFFCURVE",
"340 -18 CURVE SMOOTH",
"460 -18 OFFCURVE",
"537 40 OFFCURVE",
"606 165 CURVE",
"578 180 LINE",
"515 74 OFFCURVE",
"452 22 OFFCURVE",
"369 22 CURVE SMOOTH",
"219 22 OFFCURVE",
"165 131 OFFCURVE",
"165 335 CURVE SMOOTH",
"165 546 OFFCURVE",
"209 657 OFFCURVE",
"328 657 CURVE SMOOTH",
"370 657 OFFCURVE",
"399 640 OFFCURVE",
"399 613 CURVE SMOOTH",
"399 586 OFFCURVE",
"383 582 OFFCURVE",
"383 547 CURVE SMOOTH",
"383 508 OFFCURVE",
"410 482 OFFCURVE",
"452 482 CURVE SMOOTH",
"493 482 OFFCURVE",
"525 513 OFFCURVE",
"525 560 CURVE SMOOTH",
"525 622 OFFCURVE"
);
}
);
};
layerId = "28D540C6-4B1C-4739-9DB3-C8E6E4DDF73A";
paths = (
{
closed = 1;
nodes = (
"1110 675 LINE",
"1052 675 LINE",
"1030 655 OFFCURVE",
"1000 646 OFFCURVE",
"958 646 CURVE SMOOTH",
"920 646 OFFCURVE",
"886 656 OFFCURVE",
"844 666 CURVE SMOOTH",
"782 680 OFFCURVE",
"724 688 OFFCURVE",
"652 688 CURVE SMOOTH",
"360 688 OFFCURVE",
"100 558 OFFCURVE",
"100 335 CURVE SMOOTH",
"100 113 OFFCURVE",
"360 -18 OFFCURVE",
"654 -18 CURVE SMOOTH",
"942 -18 OFFCURVE",
"1092 82 OFFCURVE",
"1126 230 CURVE",
"1050 230 LINE",
"1018 105 OFFCURVE",
"905 17 OFFCURVE",
"660 17 CURVE SMOOTH",
"418 17 OFFCURVE",
"330 127 OFFCURVE",
"330 335 CURVE SMOOTH",
"330 546 OFFCURVE",
"418 657 OFFCURVE",
"656 657 CURVE SMOOTH",
"840 657 OFFCURVE",
"990 572 OFFCURVE",
"1046 435 CURVE",
"1110 435 LINE"
);
}
);
width = 1276;
}
);
leftKerningGroup = C;
unicode = 0043;
userData = {
com.typemytype.robofont.layerData = {
background = {
anchors = (
);
components = (
);
contours = (
{
points = (
{
segmentType = line;
smooth = 0;
x = 555;
y = 435;
},
{
segmentType = line;
smooth = 0;
x = 555;
y = 675;
},
{
segmentType = line;
smooth = 0;
x = 526;
y = 675;
},
{
smooth = 0;
x = 515;
y = 655;
},
{
smooth = 0;
x = 500;
y = 646;
},
{
segmentType = curve;
smooth = 1;
x = 479;
y = 646;
},
{
smooth = 0;
x = 460;
y = 646;
},
{
smooth = 0;
x = 443;
y = 656;
},
{
segmentType = curve;
smooth = 1;
x = 422;
y = 666;
},
{
smooth = 0;
x = 391;
y = 680;
},
{
smooth = 0;
x = 362;
y = 688;
},
{
segmentType = curve;
smooth = 1;
x = 326;
y = 688;
},
{
smooth = 0;
x = 180;
y = 688;
},
{
smooth = 0;
x = 50;
y = 558;
},
{
segmentType = curve;
smooth = 1;
x = 50;
y = 335;
},
{
smooth = 0;
x = 50;
y = 113;
},
{
smooth = 0;
x = 180;
y = -18;
},
{
segmentType = curve;
smooth = 1;
x = 327;
y = -18;
},
{
smooth = 0;
x = 471;
y = -18;
},
{
smooth = 0;
x = 546;
y = 86;
},
{
segmentType = curve;
smooth = 0;
x = 563;
y = 230;
},
{
segmentType = line;
smooth = 0;
x = 523;
y = 230;
},
{
smooth = 0;
x = 510;
y = 101;
},
{
smooth = 0;
x = 448;
y = 15;
},
{
segmentType = curve;
smooth = 1;
x = 330;
y = 15;
},
{
smooth = 0;
x = 209;
y = 15;
},
{
smooth = 0;
x = 165;
y = 126;
},
{
segmentType = curve;
smooth = 1;
x = 165;
y = 335;
},
{
smooth = 0;
x = 165;
y = 546;
},
{
smooth = 0;
x = 209;
y = 657;
},
{
segmentType = curve;
smooth = 1;
x = 328;
y = 657;
},
{
smooth = 0;
x = 420;
y = 657;
},
{
smooth = 0;
x = 495;
y = 572;
},
{
segmentType = curve;
smooth = 0;
x = 523;
y = 435;
}
);
}
);
lib = {
};
name = C;
unicodes = (
);
width = 638;
};
};
com.typemytype.robofont.mark = (
0.9366,
0.9212,
0.4821,
1
);
};
},
{
glyphname = D;
lastChange = "2018-07-13 09:52:20 +0000";
layers = (
{
layerId = "ADE64B87-3839-4AD4-BD35-A3CFF79840FC";
paths = (
{
closed = 1;
nodes = (
"215 640 OFFCURVE",
"233 535 OFFCURVE",
"233 335 CURVE SMOOTH",
"233 136 OFFCURVE",
"220 30 OFFCURVE",
"135 30 CURVE SMOOTH",
"103 30 LINE",
"103 640 LINE",
"135 640 LINE SMOOTH"
);
},
{
closed = 1;
nodes = (
"3 670 LINE",
"3 640 LINE",
"32 640 LINE SMOOTH",
"45 640 OFFCURVE",
"50 626 OFFCURVE",
"50 602 CURVE SMOOTH",
"50 68 LINE SMOOTH",
"50 44 OFFCURVE",
"45 30 OFFCURVE",
"32 30 CURVE SMOOTH",
"3 30 LINE",
"3 0 LINE",
"137 0 LINE SMOOTH",
"242 0 OFFCURVE",
"290 122 OFFCURVE",
"290 335 CURVE SMOOTH",
"290 547 OFFCURVE",
"240 670 OFFCURVE",
"137 670 CURVE SMOOTH"
);
}
);
width = 318;
},
{
layerId = "484F8FD9-52EC-47CF-91D8-DA5450121283";
paths = (
{
closed = 1;
nodes = (
"430 640 OFFCURVE",
"465 535 OFFCURVE",
"465 335 CURVE SMOOTH",
"465 136 OFFCURVE",
"439 30 OFFCURVE",
"270 30 CURVE SMOOTH",
"205 30 LINE",
"205 640 LINE",
"270 640 LINE SMOOTH"
);
},
{
closed = 1;
nodes = (
"5 670 LINE",
"5 640 LINE",
"63 640 LINE SMOOTH",
"90 640 OFFCURVE",
"100 626 OFFCURVE",
"100 602 CURVE SMOOTH",
"100 68 LINE SMOOTH",
"100 44 OFFCURVE",
"90 30 OFFCURVE",
"63 30 CURVE SMOOTH",
"5 30 LINE",
"5 0 LINE",
"274 0 LINE SMOOTH",
"484 0 OFFCURVE",
"580 122 OFFCURVE",
"580 335 CURVE SMOOTH",
"580 547 OFFCURVE",
"480 670 OFFCURVE",
"274 670 CURVE SMOOTH"
);
}
);
width = 635;
},
{
layerId = "28D540C6-4B1C-4739-9DB3-C8E6E4DDF73A";
paths = (
{
closed = 1;
nodes = (
"860 640 OFFCURVE",
"930 535 OFFCURVE",
"930 335 CURVE SMOOTH",
"930 136 OFFCURVE",
"878 30 OFFCURVE",
"540 30 CURVE SMOOTH",
"410 30 LINE",
"410 640 LINE",
"540 640 LINE SMOOTH"
);
},
{
closed = 1;
nodes = (
"10 670 LINE",
"10 640 LINE",
"126 640 LINE SMOOTH",
"180 640 OFFCURVE",
"200 626 OFFCURVE",
"200 602 CURVE SMOOTH",
"200 68 LINE SMOOTH",
"200 44 OFFCURVE",
"180 30 OFFCURVE",
"126 30 CURVE SMOOTH",
"10 30 LINE",
"10 0 LINE",
"548 0 LINE SMOOTH",
"968 0 OFFCURVE",
"1160 122 OFFCURVE",
"1160 335 CURVE SMOOTH",
"1160 547 OFFCURVE",
"960 670 OFFCURVE",
"548 670 CURVE SMOOTH"
);
}
);
width = 1270;
}
);
leftKerningGroup = B;
rightKerningGroup = D;
unicode = 0044;
userData = {
com.typemytype.robofont.layerData = {
background = {
anchors = (
);
components = (
);
contours = (
);
lib = {
};
name = D;
unicodes = (
);
width = 635;
};
};
com.typemytype.robofont.mark = (
0.9366,
0.9212,
0.4821,
1
);
};
},
{
glyphname = E;
lastChange = "2018-07-13 09:52:20 +0000";
layers = (
{
layerId = "ADE64B87-3839-4AD4-BD35-A3CFF79840FC";
paths = (
{
closed = 1;
nodes = (
"128 342 LINE SMOOTH",
"160 342 OFFCURVE",
"179 301 OFFCURVE",
"183 220 CURVE",
"195 220 LINE",
"195 495 LINE",
"183 495 LINE",
"179 410 OFFCURVE",
"160 372 OFFCURVE",
"128 372 CURVE SMOOTH",
"76 372 LINE",
"76 342 LINE"
);
},
{
closed = 1;
nodes = (
"160 640 LINE SMOOTH",
"215 640 OFFCURVE",
"240 575 OFFCURVE",
"246 450 CURVE",
"263 450 LINE",
"263 670 LINE",
"3 670 LINE",
"3 640 LINE",
"32 640 LINE SMOOTH",
"45 640 OFFCURVE",
"50 626 OFFCURVE",
"50 602 CURVE SMOOTH",
"50 68 LINE SMOOTH",
"50 44 OFFCURVE",
"45 30 OFFCURVE",
"32 30 CURVE SMOOTH",
"3 30 LINE",
"3 0 LINE",
"270 0 LINE",
"270 230 LINE",
"253 230 LINE",
"247 100 OFFCURVE",
"220 30 OFFCURVE",
"168 30 CURVE SMOOTH",
"103 30 LINE",
"103 640 LINE"
);
}
);
width = 305;
},
{
layerId = "484F8FD9-52EC-47CF-91D8-DA5450121283";
paths = (
{
closed = 1;
nodes = (
"255 342 LINE SMOOTH",
"319 342 OFFCURVE",
"357 301 OFFCURVE",
"365 220 CURVE",
"390 220 LINE",
"390 495 LINE",
"365 495 LINE",
"357 410 OFFCURVE",
"319 372 OFFCURVE",
"255 372 CURVE SMOOTH",
"152 372 LINE",
"152 342 LINE"
);
},
{
closed = 1;
nodes = (
"320 640 LINE SMOOTH",
"430 640 OFFCURVE",
"480 575 OFFCURVE",
"491 450 CURVE",
"525 450 LINE",
"525 670 LINE",
"5 670 LINE",
"5 640 LINE",
"63 640 LINE SMOOTH",
"90 640 OFFCURVE",
"100 626 OFFCURVE",
"100 602 CURVE SMOOTH",
"100 68 LINE SMOOTH",
"100 44 OFFCURVE",
"90 30 OFFCURVE",
"63 30 CURVE SMOOTH",
"5 30 LINE",
"5 0 LINE",
"540 0 LINE",
"540 230 LINE",
"506 230 LINE",
"494 100 OFFCURVE",
"439 30 OFFCURVE",
"335 30 CURVE SMOOTH",
"205 30 LINE",
"205 640 LINE"
);
}
);
width = 610;
},
{
layerId = "28D540C6-4B1C-4739-9DB3-C8E6E4DDF73A";
paths = (
{
closed = 1;
nodes = (
"510 342 LINE SMOOTH",
"638 342 OFFCURVE",
"714 301 OFFCURVE",
"730 220 CURVE",
"780 220 LINE",
"780 495 LINE",
"730 495 LINE",
"714 410 OFFCURVE",
"638 372 OFFCURVE",
"510 372 CURVE SMOOTH",
"304 372 LINE",
"304 342 LINE"
);
},
{
closed = 1;
nodes = (
"640 640 LINE SMOOTH",
"860 640 OFFCURVE",
"960 575 OFFCURVE",
"982 450 CURVE",
"1050 450 LINE",
"1050 670 LINE",
"10 670 LINE",
"10 640 LINE",
"126 640 LINE SMOOTH",
"180 640 OFFCURVE",
"200 626 OFFCURVE",
"200 602 CURVE SMOOTH",
"200 68 LINE SMOOTH",
"200 44 OFFCURVE",
"180 30 OFFCURVE",
"126 30 CURVE SMOOTH",
"10 30 LINE",
"10 0 LINE",
"1080 0 LINE",
"1080 230 LINE",
"1012 230 LINE",
"988 100 OFFCURVE",
"878 30 OFFCURVE",
"670 30 CURVE SMOOTH",
"410 30 LINE",
"410 640 LINE"
);
}
);
width = 1220;
}
);
leftKerningGroup = B;
unicode = 0045;
userData = {
com.typemytype.robofont.layerData = {
background = {
anchors = (
);
components = (
);
contours = (
);
lib = {
};
name = E;
unicodes = (
);
width = 610;
};
};
com.typemytype.robofont.mark = (
0.9366,
0.9212,
0.4821,
1
);
};
},
{
glyphname = F;
lastChange = "2018-07-13 09:52:20 +0000";
layers = (
{
layerId = "ADE64B87-3839-4AD4-BD35-A3CFF79840FC";
paths = (
{
closed = 1;
nodes = (
"150 30 LINE",
"121 30 LINE SMOOTH",
"108 30 OFFCURVE",
"103 44 OFFCURVE",
"103 68 CURVE SMOOTH",
"103 640 LINE",
"137 640 LINE SMOOTH",
"197 640 OFFCURVE",
"228 575 OFFCURVE",
"233 450 CURVE",
"250 450 LINE",
"250 670 LINE",
"3 670 LINE",
"3 640 LINE",
"32 640 LINE SMOOTH",
"45 640 OFFCURVE",
"50 626 OFFCURVE",
"50 602 CURVE SMOOTH",
"50 68 LINE SMOOTH",
"50 44 OFFCURVE",
"45 30 OFFCURVE",
"32 30 CURVE SMOOTH",
"3 30 LINE",
"3 0 LINE",
"150 0 LINE"
);
},
{
closed = 1;
nodes = (
"128 342 LINE SMOOTH",
"160 342 OFFCURVE",
"179 301 OFFCURVE",
"183 220 CURVE",
"195 220 LINE",
"195 495 LINE",
"183 495 LINE",
"179 410 OFFCURVE",
"160 372 OFFCURVE",
"128 372 CURVE SMOOTH",
"76 372 LINE",
"76 342 LINE"
);
}
);
width = 285;
},
{
layerId = "484F8FD9-52EC-47CF-91D8-DA5450121283";
paths = (
{
closed = 1;
nodes = (
"300 30 LINE",
"242 30 LINE SMOOTH",
"215 30 OFFCURVE",
"205 44 OFFCURVE",
"205 68 CURVE SMOOTH",
"205 640 LINE",
"274 640 LINE SMOOTH",
"393 640 OFFCURVE",
"455 575 OFFCURVE",
"466 450 CURVE",
"500 450 LINE",
"500 670 LINE",
"5 670 LINE",
"5 640 LINE",
"63 640 LINE SMOOTH",
"90 640 OFFCURVE",
"100 626 OFFCURVE",
"100 602 CURVE SMOOTH",
"100 68 LINE SMOOTH",
"100 44 OFFCURVE",
"90 30 OFFCURVE",
"63 30 CURVE SMOOTH",
"5 30 LINE",
"5 0 LINE",
"300 0 LINE"
);
},
{
closed = 1;
nodes = (
"255 342 LINE SMOOTH",
"319 342 OFFCURVE",
"357 301 OFFCURVE",
"365 220 CURVE",
"390 220 LINE",
"390 495 LINE",
"365 495 LINE",
"357 410 OFFCURVE",
"319 372 OFFCURVE",
"255 372 CURVE SMOOTH",
"152 372 LINE",
"152 342 LINE"
);
}
);
width = 570;
},
{
layerId = "28D540C6-4B1C-4739-9DB3-C8E6E4DDF73A";
paths = (
{
closed = 1;
nodes = (
"600 30 LINE",
"484 30 LINE SMOOTH",
"430 30 OFFCURVE",
"410 44 OFFCURVE",
"410 68 CURVE SMOOTH",
"410 640 LINE",
"548 640 LINE SMOOTH",
"786 640 OFFCURVE",
"910 575 OFFCURVE",
"932 450 CURVE",
"1000 450 LINE",
"1000 670 LINE",
"10 670 LINE",
"10 640 LINE",
"126 640 LINE SMOOTH",
"180 640 OFFCURVE",
"200 626 OFFCURVE",
"200 602 CURVE SMOOTH",
"200 68 LINE SMOOTH",
"200 44 OFFCURVE",
"180 30 OFFCURVE",
"126 30 CURVE SMOOTH",
"10 30 LINE",
"10 0 LINE",
"600 0 LINE"
);
},
{
closed = 1;
nodes = (
"510 342 LINE SMOOTH",
"638 342 OFFCURVE",
"714 301 OFFCURVE",
"730 220 CURVE",
"780 220 LINE",
"780 495 LINE",
"730 495 LINE",
"714 410 OFFCURVE",
"638 372 OFFCURVE",
"510 372 CURVE SMOOTH",
"304 372 LINE",
"304 342 LINE"
);
}
);
width = 1140;
}
);
leftKerningGroup = B;
unicode = 0046;
userData = {
com.typemytype.robofont.layerData = {
background = {
anchors = (
);
components = (
);
contours = (
);
lib = {
};
name = E;
unicodes = (
);
width = 570;
};
};
com.typemytype.robofont.mark = (
0.9366,
0.9212,
0.4821,
1
);
};
},
{
glyphname = G;
lastChange = "2018-07-13 09:52:20 +0000";
layers = (
{
background = {
paths = (
{
closed = 1;
nodes = (
"387 657 OFFCURVE",
"424 633 OFFCURVE",
"424 594 CURVE SMOOTH",
"424 577 OFFCURVE",
"420 566 OFFCURVE",
"420 547 CURVE SMOOTH",
"420 510 OFFCURVE",
"445 486 OFFCURVE",
"484 486 CURVE SMOOTH",
"521 486 OFFCURVE",
"550 515 OFFCURVE",
"550 560 CURVE SMOOTH",
"550 622 OFFCURVE",
"489 688 OFFCURVE",
"336 688 CURVE SMOOTH",
"172 688 OFFCURVE",
"50 576 OFFCURVE",
"50 335 CURVE SMOOTH",
"50 94 OFFCURVE",
"180 -18 OFFCURVE",
"331 -18 CURVE SMOOTH",
"472 -18 OFFCURVE",
"555 74 OFFCURVE",
"561 212 CURVE SMOOTH",
"563 260 LINE SMOOTH",
"565 305 OFFCURVE",
"581 325 OFFCURVE",
"617 325 CURVE SMOOTH",
"653 325 LINE",
"653 355 LINE",
"368 355 LINE",
"368 325 LINE",
"404 325 LINE SMOOTH",
"440 325 OFFCURVE",
"458 305 OFFCURVE",
"458 261 CURVE SMOOTH",
"458 217 LINE SMOOTH",
"458 76 OFFCURVE",
"409 15 OFFCURVE",
"332 15 CURVE SMOOTH",
"224 15 OFFCURVE",
"165 126 OFFCURVE",
"165 335 CURVE SMOOTH",
"165 546 OFFCURVE",
"227 657 OFFCURVE",
"334 657 CURVE SMOOTH"
);
}
);
};
layerId = "ADE64B87-3839-4AD4-BD35-A3CFF79840FC";
paths = (
{
closed = 1;
nodes = (
"290 310 OFFCURVE",
"298 330 OFFCURVE",
"316 330 CURVE SMOOTH",
"329 330 LINE",
"329 360 LINE",
"196 360 LINE",
"196 330 LINE",
"209 330 LINE SMOOTH",
"227 330 OFFCURVE",
"236 310 OFFCURVE",
"236 266 CURVE SMOOTH",
"236 222 LINE SMOOTH",
"236 77 OFFCURVE",
"209 15 OFFCURVE",
"166 15 CURVE SMOOTH",
"112 15 OFFCURVE",
"83 126 OFFCURVE",
"83 335 CURVE SMOOTH",
"83 546 OFFCURVE",
"114 657 OFFCURVE",
"164 657 CURVE SMOOTH",
"215 657 OFFCURVE",
"255 586 OFFCURVE",
"267 470 CURVE",
"283 470 LINE",
"283 675 LINE",
"268 675 LINE",
"263 655 OFFCURVE",
"255 646 OFFCURVE",
"246 646 CURVE SMOOTH",
"238 646 OFFCURVE",
"227 657 OFFCURVE",
"212 669 CURVE SMOOTH",
"199 679 OFFCURVE",
"183 688 OFFCURVE",
"163 688 CURVE SMOOTH",
"86 688 OFFCURVE",
"25 558 OFFCURVE",
"25 335 CURVE SMOOTH",
"25 113 OFFCURVE",
"90 -18 OFFCURVE",
"166 -18 CURVE SMOOTH",
"241 -18 OFFCURVE",
"285 76 OFFCURVE",
"288 217 CURVE SMOOTH",
"289 265 LINE SMOOTH"
);
}
);
width = 336;
},
{
background = {
paths = (
{
closed = 1;
nodes = (
"387 657 OFFCURVE",
"424 633 OFFCURVE",
"424 594 CURVE SMOOTH",
"424 577 OFFCURVE",
"420 566 OFFCURVE",
"420 547 CURVE SMOOTH",
"420 510 OFFCURVE",
"445 486 OFFCURVE",
"484 486 CURVE SMOOTH",
"521 486 OFFCURVE",
"550 515 OFFCURVE",
"550 560 CURVE SMOOTH",
"550 622 OFFCURVE",
"489 688 OFFCURVE",
"336 688 CURVE SMOOTH",
"172 688 OFFCURVE",
"50 576 OFFCURVE",
"50 335 CURVE SMOOTH",
"50 94 OFFCURVE",
"180 -18 OFFCURVE",
"331 -18 CURVE SMOOTH",
"472 -18 OFFCURVE",
"555 74 OFFCURVE",
"561 212 CURVE SMOOTH",
"563 260 LINE SMOOTH",
"565 305 OFFCURVE",
"581 325 OFFCURVE",
"617 325 CURVE SMOOTH",
"653 325 LINE",
"653 355 LINE",
"368 355 LINE",
"368 325 LINE",
"404 325 LINE SMOOTH",
"440 325 OFFCURVE",
"458 305 OFFCURVE",
"458 261 CURVE SMOOTH",
"458 217 LINE SMOOTH",
"458 76 OFFCURVE",
"409 15 OFFCURVE",
"332 15 CURVE SMOOTH",
"224 15 OFFCURVE",
"165 126 OFFCURVE",
"165 335 CURVE SMOOTH",
"165 546 OFFCURVE",
"227 657 OFFCURVE",
"334 657 CURVE SMOOTH"
);
}
);
};
layerId = "484F8FD9-52EC-47CF-91D8-DA5450121283";
paths = (
{
closed = 1;
nodes = (
"579 310 OFFCURVE",
"595 330 OFFCURVE",
"631 330 CURVE SMOOTH",
"657 330 LINE",
"657 360 LINE",
"392 360 LINE",
"392 330 LINE",
"418 330 LINE SMOOTH",
"454 330 OFFCURVE",
"472 310 OFFCURVE",
"472 266 CURVE SMOOTH",
"472 222 LINE SMOOTH",
"472 77 OFFCURVE",
"418 15 OFFCURVE",
"332 15 CURVE SMOOTH",
"224 15 OFFCURVE",
"165 126 OFFCURVE",
"165 335 CURVE SMOOTH",
"165 546 OFFCURVE",
"227 657 OFFCURVE",
"328 657 CURVE SMOOTH",
"430 657 OFFCURVE",
"509 586 OFFCURVE",
"533 470 CURVE",
"565 470 LINE",
"565 675 LINE",
"536 675 LINE",
"525 655 OFFCURVE",
"510 646 OFFCURVE",
"492 646 CURVE SMOOTH",
"475 646 OFFCURVE",
"454 657 OFFCURVE",
"423 669 CURVE SMOOTH",
"397 679 OFFCURVE",
"366 688 OFFCURVE",
"326 688 CURVE SMOOTH",
"172 688 OFFCURVE",
"50 558 OFFCURVE",
"50 335 CURVE SMOOTH",
"50 113 OFFCURVE",
"180 -18 OFFCURVE",
"331 -18 CURVE SMOOTH",
"481 -18 OFFCURVE",
"569 76 OFFCURVE",
"575 217 CURVE SMOOTH",
"577 265 LINE SMOOTH"
);
}
);
width = 672;
},
{
background = {
paths = (
{
closed = 1;
nodes = (
"387 657 OFFCURVE",
"424 633 OFFCURVE",
"424 594 CURVE SMOOTH",
"424 577 OFFCURVE",
"420 566 OFFCURVE",
"420 547 CURVE SMOOTH",
"420 510 OFFCURVE",
"445 486 OFFCURVE",
"484 486 CURVE SMOOTH",
"521 486 OFFCURVE",
"550 515 OFFCURVE",
"550 560 CURVE SMOOTH",
"550 622 OFFCURVE",
"489 688 OFFCURVE",
"336 688 CURVE SMOOTH",
"172 688 OFFCURVE",
"50 576 OFFCURVE",
"50 335 CURVE SMOOTH",
"50 94 OFFCURVE",
"180 -18 OFFCURVE",
"331 -18 CURVE SMOOTH",
"472 -18 OFFCURVE",
"555 74 OFFCURVE",
"561 212 CURVE SMOOTH",
"563 260 LINE SMOOTH",
"565 305 OFFCURVE",
"581 325 OFFCURVE",
"617 325 CURVE SMOOTH",
"653 325 LINE",
"653 355 LINE",
"368 355 LINE",
"368 325 LINE",
"404 325 LINE SMOOTH",
"440 325 OFFCURVE",
"458 305 OFFCURVE",
"458 261 CURVE SMOOTH",
"458 217 LINE SMOOTH",
"458 76 OFFCURVE",
"409 15 OFFCURVE",
"332 15 CURVE SMOOTH",
"224 15 OFFCURVE",
"165 126 OFFCURVE",
"165 335 CURVE SMOOTH",
"165 546 OFFCURVE",
"227 657 OFFCURVE",
"334 657 CURVE SMOOTH"
);
}
);
};
layerId = "28D540C6-4B1C-4739-9DB3-C8E6E4DDF73A";
paths = (
{
closed = 1;
nodes = (
"1158 310 OFFCURVE",
"1190 330 OFFCURVE",
"1262 330 CURVE SMOOTH",
"1314 330 LINE",
"1314 360 LINE",
"784 360 LINE",
"784 330 LINE",
"836 330 LINE SMOOTH",
"908 330 OFFCURVE",
"944 310 OFFCURVE",
"944 266 CURVE SMOOTH",
"944 222 LINE SMOOTH",
"944 77 OFFCURVE",
"836 15 OFFCURVE",
"664 15 CURVE SMOOTH",
"448 15 OFFCURVE",
"330 126 OFFCURVE",
"330 335 CURVE SMOOTH",
"330 546 OFFCURVE",
"454 657 OFFCURVE",
"656 657 CURVE SMOOTH",
"860 657 OFFCURVE",
"1018 586 OFFCURVE",
"1066 470 CURVE",
"1130 470 LINE",
"1130 675 LINE",
"1072 675 LINE",
"1050 655 OFFCURVE",
"1020 646 OFFCURVE",
"984 646 CURVE SMOOTH",
"950 646 OFFCURVE",
"908 657 OFFCURVE",
"846 669 CURVE SMOOTH",
"794 679 OFFCURVE",
"732 688 OFFCURVE",
"652 688 CURVE SMOOTH",
"344 688 OFFCURVE",
"100 558 OFFCURVE",
"100 335 CURVE SMOOTH",
"100 113 OFFCURVE",
"360 -18 OFFCURVE",
"662 -18 CURVE SMOOTH",
"962 -18 OFFCURVE",
"1138 76 OFFCURVE",
"1150 217 CURVE SMOOTH",
"1154 265 LINE SMOOTH"
);
}
);
width = 1344;
}
);
leftKerningGroup = C;
unicode = 0047;
userData = {
com.typemytype.robofont.layerData = {
background = {
anchors = (
);
components = (
);
contours = (
);
lib = {
};
name = C;
unicodes = (
);
width = 672;
};
};
};
},
{
glyphname = H;
lastChange = "2018-07-13 09:52:20 +0000";
layers = (
{
layerId = "ADE64B87-3839-4AD4-BD35-A3CFF79840FC";
paths = (
{
closed = 1;
nodes = (
"280 626 OFFCURVE",
"285 640 OFFCURVE",
"300 640 CURVE SMOOTH",
"328 640 LINE",
"328 670 LINE",
"180 670 LINE",
"180 640 LINE",
"209 640 LINE SMOOTH",
"223 640 OFFCURVE",
"228 626 OFFCURVE",
"228 602 CURVE SMOOTH",
"228 68 LINE SMOOTH",
"228 44 OFFCURVE",
"223 30 OFFCURVE",
"209 30 CURVE SMOOTH",
"180 30 LINE",
"180 0 LINE",
"328 0 LINE",
"328 30 LINE",
"300 30 LINE SMOOTH",
"285 30 OFFCURVE",
"280 44 OFFCURVE",
"280 68 CURVE SMOOTH",
"280 602 LINE SMOOTH"
);
},
{
closed = 1;
nodes = (
"103 626 OFFCURVE",
"108 640 OFFCURVE",
"123 640 CURVE SMOOTH",
"150 640 LINE",
"150 670 LINE",
"3 670 LINE",
"3 640 LINE",
"32 640 LINE SMOOTH",
"45 640 OFFCURVE",
"50 626 OFFCURVE",
"50 602 CURVE SMOOTH",
"50 68 LINE SMOOTH",
"50 44 OFFCURVE",
"45 30 OFFCURVE",
"32 30 CURVE SMOOTH",
"3 30 LINE",
"3 0 LINE",
"150 0 LINE",
"150 30 LINE",
"123 30 LINE SMOOTH",
"108 30 OFFCURVE",
"103 44 OFFCURVE",
"103 68 CURVE SMOOTH",
"103 602 LINE SMOOTH"
);
},
{
closed = 1;
nodes = (
"254 344 LINE",
"254 376 LINE",
"75 376 LINE",
"75 344 LINE"
);
}
);
width = 330;
},
{
layerId = "484F8FD9-52EC-47CF-91D8-DA5450121283";
paths = (
{
closed = 1;
nodes = (
"560 626 OFFCURVE",
"570 640 OFFCURVE",
"600 640 CURVE SMOOTH",
"655 640 LINE",
"655 670 LINE",
"360 670 LINE",
"360 640 LINE",
"418 640 LINE SMOOTH",
"445 640 OFFCURVE",
"455 626 OFFCURVE",
"455 602 CURVE SMOOTH",
"455 68 LINE SMOOTH",
"455 44 OFFCURVE",
"445 30 OFFCURVE",
"418 30 CURVE SMOOTH",
"360 30 LINE",
"360 0 LINE",
"655 0 LINE",
"655 30 LINE",
"600 30 LINE SMOOTH",
"570 30 OFFCURVE",
"560 44 OFFCURVE",
"560 68 CURVE SMOOTH",
"560 602 LINE SMOOTH"
);
},
{
closed = 1;
nodes = (
"205 626 OFFCURVE",
"215 640 OFFCURVE",
"245 640 CURVE SMOOTH",
"300 640 LINE",
"300 670 LINE",
"5 670 LINE",
"5 640 LINE",
"63 640 LINE SMOOTH",
"90 640 OFFCURVE",
"100 626 OFFCURVE",
"100 602 CURVE SMOOTH",
"100 68 LINE SMOOTH",
"100 44 OFFCURVE",
"90 30 OFFCURVE",
"63 30 CURVE SMOOTH",
"5 30 LINE",
"5 0 LINE",
"300 0 LINE",
"300 30 LINE",
"245 30 LINE SMOOTH",
"215 30 OFFCURVE",
"205 44 OFFCURVE",
"205 68 CURVE SMOOTH",
"205 602 LINE SMOOTH"
);
},
{
closed = 1;
nodes = (
"508 344 LINE",
"508 376 LINE",
"150 376 LINE",
"150 344 LINE"
);
}
);
width = 660;
},
{
layerId = "28D540C6-4B1C-4739-9DB3-C8E6E4DDF73A";
paths = (
{
closed = 1;
nodes = (
"1120 626 OFFCURVE",
"1140 640 OFFCURVE",
"1200 640 CURVE SMOOTH",
"1310 640 LINE",
"1310 670 LINE",
"720 670 LINE",
"720 640 LINE",
"836 640 LINE SMOOTH",
"890 640 OFFCURVE",
"910 626 OFFCURVE",
"910 602 CURVE SMOOTH",
"910 68 LINE SMOOTH",
"910 44 OFFCURVE",
"890 30 OFFCURVE",
"836 30 CURVE SMOOTH",
"720 30 LINE",
"720 0 LINE",
"1310 0 LINE",
"1310 30 LINE",
"1200 30 LINE SMOOTH",
"1140 30 OFFCURVE",
"1120 44 OFFCURVE",
"1120 68 CURVE SMOOTH",
"1120 602 LINE SMOOTH"
);
},
{
closed = 1;
nodes = (
"410 626 OFFCURVE",
"430 640 OFFCURVE",
"490 640 CURVE SMOOTH",
"600 640 LINE",
"600 670 LINE",
"10 670 LINE",
"10 640 LINE",
"126 640 LINE SMOOTH",
"180 640 OFFCURVE",
"200 626 OFFCURVE",
"200 602 CURVE SMOOTH",
"200 68 LINE SMOOTH",
"200 44 OFFCURVE",
"180 30 OFFCURVE",
"126 30 CURVE SMOOTH",
"10 30 LINE",
"10 0 LINE",
"600 0 LINE",
"600 30 LINE",
"490 30 LINE SMOOTH",
"430 30 OFFCURVE",
"410 44 OFFCURVE",
"410 68 CURVE SMOOTH",
"410 602 LINE SMOOTH"
);
},
{
closed = 1;
nodes = (
"1016 344 LINE",
"1016 376 LINE",
"300 376 LINE",
"300 344 LINE"
);
}
);
width = 1320;
}
);
leftKerningGroup = B;
rightKerningGroup = H;
unicode = 0048;
userData = {
com.typemytype.robofont.layerData = {
background = {
anchors = (
);
components = (
);
contours = (
);
lib = {
};
name = H;
unicodes = (
);
width = 660;
};
};
com.typemytype.robofont.mark = (
0.9366,
0.9212,
0.4821,
1
);
};
},
{
glyphname = I;
lastChange = "2018-07-13 09:52:20 +0000";
layers = (
{
layerId = "ADE64B87-3839-4AD4-BD35-A3CFF79840FC";
paths = (
{
closed = 1;
nodes = (
"103 626 OFFCURVE",
"108 640 OFFCURVE",
"123 640 CURVE SMOOTH",
"150 640 LINE",
"150 670 LINE",
"3 670 LINE",
"3 640 LINE",
"32 640 LINE SMOOTH",
"45 640 OFFCURVE",
"50 626 OFFCURVE",
"50 602 CURVE SMOOTH",
"50 68 LINE SMOOTH",
"50 44 OFFCURVE",
"45 30 OFFCURVE",
"32 30 CURVE SMOOTH",
"3 30 LINE",
"3 0 LINE",
"150 0 LINE",
"150 30 LINE",
"123 30 LINE SMOOTH",
"108 30 OFFCURVE",
"103 44 OFFCURVE",
"103 68 CURVE SMOOTH",
"103 602 LINE SMOOTH"
);
}
);
width = 153;
},
{
layerId = "484F8FD9-52EC-47CF-91D8-DA5450121283";
paths = (
{
closed = 1;
nodes = (
"205 626 OFFCURVE",
"215 640 OFFCURVE",
"245 640 CURVE SMOOTH",
"300 640 LINE",
"300 670 LINE",
"5 670 LINE",
"5 640 LINE",
"63 640 LINE SMOOTH",
"90 640 OFFCURVE",
"100 626 OFFCURVE",
"100 602 CURVE SMOOTH",
"100 68 LINE SMOOTH",
"100 44 OFFCURVE",
"90 30 OFFCURVE",
"63 30 CURVE SMOOTH",
"5 30 LINE",
"5 0 LINE",
"300 0 LINE",
"300 30 LINE",
"245 30 LINE SMOOTH",
"215 30 OFFCURVE",
"205 44 OFFCURVE",
"205 68 CURVE SMOOTH",
"205 602 LINE SMOOTH"
);
}
);
width = 305;
},
{
layerId = "28D540C6-4B1C-4739-9DB3-C8E6E4DDF73A";
paths = (
{
closed = 1;
nodes = (
"410 626 OFFCURVE",
"430 640 OFFCURVE",
"490 640 CURVE SMOOTH",
"600 640 LINE",
"600 670 LINE",
"10 670 LINE",
"10 640 LINE",
"126 640 LINE SMOOTH",
"180 640 OFFCURVE",
"200 626 OFFCURVE",
"200 602 CURVE SMOOTH",
"200 68 LINE SMOOTH",
"200 44 OFFCURVE",
"180 30 OFFCURVE",
"126 30 CURVE SMOOTH",
"10 30 LINE",
"10 0 LINE",
"600 0 LINE",
"600 30 LINE",
"490 30 LINE SMOOTH",
"430 30 OFFCURVE",
"410 44 OFFCURVE",
"410 68 CURVE SMOOTH",
"410 602 LINE SMOOTH"
);
}
);
width = 610;
}
);
leftKerningGroup = B;
rightKerningGroup = H;
unicode = 0049;
userData = {
com.typemytype.robofont.layerData = {
background = {
anchors = (
);
components = (
);
contours = (
);
lib = {
};
name = I;
unicodes = (
);
width = 305;
};
};
com.typemytype.robofont.mark = (
0.9366,
0.9212,
0.4821,
1
);
};
},
{
glyphname = J;
lastChange = "2018-07-13 09:52:20 +0000";
layers = (
{
layerId = "ADE64B87-3839-4AD4-BD35-A3CFF79840FC";
paths = (
{
closed = 1;
nodes = (
"7 40 OFFCURVE",
"48 -18 OFFCURVE",
"97 -18 CURVE SMOOTH",
"148 -18 OFFCURVE",
"184 42 OFFCURVE",
"184 151 CURVE SMOOTH",
"184 602 LINE SMOOTH",
"184 626 OFFCURVE",
"189 640 OFFCURVE",
"202 640 CURVE SMOOTH",
"231 640 LINE",
"231 670 LINE",
"84 670 LINE",
"84 640 LINE",
"111 640 LINE SMOOTH",
"126 640 OFFCURVE",
"131 626 OFFCURVE",
"131 602 CURVE SMOOTH",
"131 136 LINE SMOOTH",
"131 50 OFFCURVE",
"118 18 OFFCURVE",
"94 18 CURVE SMOOTH",
"77 18 OFFCURVE",
"64 33 OFFCURVE",
"64 59 CURVE SMOOTH",
"64 90 OFFCURVE",
"76 92 OFFCURVE",
"76 134 CURVE SMOOTH",
"76 170 OFFCURVE",
"62 198 OFFCURVE",
"43 198 CURVE SMOOTH",
"21 198 OFFCURVE",
"7 165 OFFCURVE",
"7 120 CURVE SMOOTH"
);
}
);
width = 231;
},
{
layerId = "484F8FD9-52EC-47CF-91D8-DA5450121283";
paths = (
{
closed = 1;
nodes = (
"13 40 OFFCURVE",
"95 -18 OFFCURVE",
"193 -18 CURVE SMOOTH",
"295 -18 OFFCURVE",
"367 42 OFFCURVE",
"367 151 CURVE SMOOTH",
"367 602 LINE SMOOTH",
"367 626 OFFCURVE",
"377 640 OFFCURVE",
"404 640 CURVE SMOOTH",
"462 640 LINE",
"462 670 LINE",
"167 670 LINE",
"167 640 LINE",
"222 640 LINE SMOOTH",
"252 640 OFFCURVE",
"262 626 OFFCURVE",
"262 602 CURVE SMOOTH",
"262 136 LINE SMOOTH",
"262 50 OFFCURVE",
"235 18 OFFCURVE",
"187 18 CURVE SMOOTH",
"154 18 OFFCURVE",
"127 33 OFFCURVE",
"127 59 CURVE SMOOTH",
"127 90 OFFCURVE",
"152 92 OFFCURVE",
"152 134 CURVE SMOOTH",
"152 170 OFFCURVE",
"123 198 OFFCURVE",
"86 198 CURVE SMOOTH",
"41 198 OFFCURVE",
"13 165 OFFCURVE",
"13 120 CURVE SMOOTH"
);
}
);
width = 462;
},
{
layerId = "28D540C6-4B1C-4739-9DB3-C8E6E4DDF73A";
paths = (
{
closed = 1;
nodes = (
"26 40 OFFCURVE",
"190 -18 OFFCURVE",
"386 -18 CURVE SMOOTH",
"590 -18 OFFCURVE",
"734 42 OFFCURVE",
"734 151 CURVE SMOOTH",
"734 602 LINE SMOOTH",
"734 626 OFFCURVE",
"754 640 OFFCURVE",
"808 640 CURVE SMOOTH",
"924 640 LINE",
"924 670 LINE",
"334 670 LINE",
"334 640 LINE",
"444 640 LINE SMOOTH",
"504 640 OFFCURVE",
"524 626 OFFCURVE",
"524 602 CURVE SMOOTH",
"524 136 LINE SMOOTH",
"524 50 OFFCURVE",
"470 18 OFFCURVE",
"374 18 CURVE SMOOTH",
"308 18 OFFCURVE",
"254 33 OFFCURVE",
"254 59 CURVE SMOOTH",
"254 90 OFFCURVE",
"304 92 OFFCURVE",
"304 134 CURVE SMOOTH",
"304 170 OFFCURVE",
"246 198 OFFCURVE",
"172 198 CURVE SMOOTH",
"82 198 OFFCURVE",
"26 165 OFFCURVE",
"26 120 CURVE SMOOTH"
);
}
);
width = 924;
}
);
unicode = 004A;
userData = {
com.typemytype.robofont.layerData = {
background = {
anchors = (
);
components = (
);
contours = (
);
lib = {
};
name = H;
unicodes = (
);
width = 462;
};
};
com.typemytype.robofont.mark = (
0.9366,
0.9212,
0.4821,
1
);
};
},
{
glyphname = K;
lastChange = "2018-07-13 09:52:20 +0000";
layers = (
{
background = {
paths = (
{
closed = 1;
nodes = (
"345 368 LINE",
"337 385 LINE",
"278 359 LINE",
"287 340 LINE"
);
},
{
closed = 1;
nodes = (
"432 592 OFFCURVE",
"448 610 OFFCURVE",
"469 610 CURVE SMOOTH",
"479 610 OFFCURVE",
"491 604 OFFCURVE",
"491 590 CURVE SMOOTH",
"491 585 OFFCURVE",
"489 573 OFFCURVE",
"489 566 CURVE SMOOTH",
"489 531 OFFCURVE",
"514 514 OFFCURVE",
"549 514 CURVE SMOOTH",
"590 514 OFFCURVE",
"619 545 OFFCURVE",
"619 585 CURVE SMOOTH",
"619 642 OFFCURVE",
"576 680 OFFCURVE",
"521 680 CURVE SMOOTH",
"459 680 OFFCURVE",
"408 640 OFFCURVE",
"377 536 CURVE SMOOTH",
"353 455 OFFCURVE",
"334 396 OFFCURVE",
"272 363 CURVE SMOOTH",
"231 341 OFFCURVE",
"210 324 OFFCURVE",
"193 293 CURVE",
"205 293 LINE",
"205 602 LINE SMOOTH",
"205 626 OFFCURVE",
"215 640 OFFCURVE",
"245 640 CURVE SMOOTH",
"300 640 LINE",
"300 670 LINE",
"5 670 LINE",
"5 640 LINE",
"63 640 LINE SMOOTH",
"90 640 OFFCURVE",
"100 626 OFFCURVE",
"100 602 CURVE SMOOTH",
"100 68 LINE SMOOTH",
"100 44 OFFCURVE",
"90 30 OFFCURVE",
"63 30 CURVE SMOOTH",
"5 30 LINE",
"5 0 LINE",
"300 0 LINE",
"300 30 LINE",
"245 30 LINE SMOOTH",
"215 30 OFFCURVE",
"205 44 OFFCURVE",
"205 68 CURVE SMOOTH",
"205 212 LINE SMOOTH",
"205 284 OFFCURVE",
"250 333 OFFCURVE",
"312 333 CURVE SMOOTH",
"379 333 OFFCURVE",
"396 280 OFFCURVE",
"396 231 CURVE SMOOTH",
"396 122 LINE SMOOTH",
"396 47 OFFCURVE",
"427 -12 OFFCURVE",
"543 -12 CURVE SMOOTH",
"649 -12 OFFCURVE",
"720 47 OFFCURVE",
"757 187 CURVE",
"726 194 LINE",
"700 99 OFFCURVE",
"649 36 OFFCURVE",
"586 36 CURVE SMOOTH",
"530 36 OFFCURVE",
"504 73 OFFCURVE",
"504 138 CURVE SMOOTH",
"504 241 LINE SMOOTH",
"504 333 OFFCURVE",
"447 376 OFFCURVE",
"365 376 CURVE SMOOTH",
"341 376 OFFCURVE",
"309 369 OFFCURVE",
"291 358 CURVE",
"298 348 LINE",
"357 373 OFFCURVE",
"383 439 OFFCURVE",
"410 523 CURVE SMOOTH"
);
}
);
};
layerId = "ADE64B87-3839-4AD4-BD35-A3CFF79840FC";
paths = (
{
closed = 1;
nodes = (
"232 49 OFFCURVE",
"226 30 OFFCURVE",
"203 30 CURVE SMOOTH",
"190 30 LINE",
"190 0 LINE",
"328 0 LINE",
"328 30 LINE",
"315 30 LINE SMOOTH",
"296 30 OFFCURVE",
"289 48 OFFCURVE",
"277 91 CURVE SMOOTH",
"179 438 LINE",
"142 372 LINE",
"219 97 LINE SMOOTH"
);
},
{
closed = 1;
nodes = (
"243 545 LINE SMOOTH",
"278 614 OFFCURVE",
"296 640 OFFCURVE",
"325 640 CURVE",
"325 670 LINE",
"193 670 LINE",
"193 640 LINE",
"200 640 LINE SMOOTH",
"232 640 OFFCURVE",
"238 582 OFFCURVE",
"212 529 CURVE SMOOTH",
"87 277 LINE SMOOTH",
"96 249 LINE"
);
},
{
closed = 1;
nodes = (
"103 626 OFFCURVE",
"108 640 OFFCURVE",
"123 640 CURVE SMOOTH",
"145 640 LINE",
"145 670 LINE",
"8 670 LINE",
"8 640 LINE",
"32 640 LINE SMOOTH",
"45 640 OFFCURVE",
"50 626 OFFCURVE",
"50 602 CURVE SMOOTH",
"50 68 LINE SMOOTH",
"50 44 OFFCURVE",
"45 30 OFFCURVE",
"32 30 CURVE SMOOTH",
"8 30 LINE",
"8 0 LINE",
"145 0 LINE",
"145 30 LINE",
"123 30 LINE SMOOTH",
"108 30 OFFCURVE",
"103 44 OFFCURVE",
"103 68 CURVE SMOOTH",
"103 602 LINE SMOOTH"
);
}
);
width = 318;
},
{
background = {
paths = (
{
closed = 1;
nodes = (
"345 368 LINE",
"337 385 LINE",
"278 359 LINE",
"287 340 LINE"
);
},
{
closed = 1;
nodes = (
"432 592 OFFCURVE",
"448 610 OFFCURVE",
"469 610 CURVE SMOOTH",
"479 610 OFFCURVE",
"491 604 OFFCURVE",
"491 590 CURVE SMOOTH",
"491 585 OFFCURVE",
"489 573 OFFCURVE",
"489 566 CURVE SMOOTH",
"489 531 OFFCURVE",
"514 514 OFFCURVE",
"549 514 CURVE SMOOTH",
"590 514 OFFCURVE",
"619 545 OFFCURVE",
"619 585 CURVE SMOOTH",
"619 642 OFFCURVE",
"576 680 OFFCURVE",
"521 680 CURVE SMOOTH",
"459 680 OFFCURVE",
"408 640 OFFCURVE",
"377 536 CURVE SMOOTH",
"353 455 OFFCURVE",
"334 396 OFFCURVE",
"272 363 CURVE SMOOTH",
"231 341 OFFCURVE",
"210 324 OFFCURVE",
"193 293 CURVE",
"205 293 LINE",
"205 602 LINE SMOOTH",
"205 626 OFFCURVE",
"215 640 OFFCURVE",
"245 640 CURVE SMOOTH",
"300 640 LINE",
"300 670 LINE",
"5 670 LINE",
"5 640 LINE",
"63 640 LINE SMOOTH",
"90 640 OFFCURVE",
"100 626 OFFCURVE",
"100 602 CURVE SMOOTH",
"100 68 LINE SMOOTH",
"100 44 OFFCURVE",
"90 30 OFFCURVE",
"63 30 CURVE SMOOTH",
"5 30 LINE",
"5 0 LINE",
"300 0 LINE",
"300 30 LINE",
"245 30 LINE SMOOTH",
"215 30 OFFCURVE",
"205 44 OFFCURVE",
"205 68 CURVE SMOOTH",
"205 212 LINE SMOOTH",
"205 284 OFFCURVE",
"250 333 OFFCURVE",
"312 333 CURVE SMOOTH",
"379 333 OFFCURVE",
"396 280 OFFCURVE",
"396 231 CURVE SMOOTH",
"396 122 LINE SMOOTH",
"396 47 OFFCURVE",
"427 -12 OFFCURVE",
"543 -12 CURVE SMOOTH",
"649 -12 OFFCURVE",
"720 47 OFFCURVE",
"757 187 CURVE",
"726 194 LINE",
"700 99 OFFCURVE",
"649 36 OFFCURVE",
"586 36 CURVE SMOOTH",
"530 36 OFFCURVE",
"504 73 OFFCURVE",
"504 138 CURVE SMOOTH",
"504 241 LINE SMOOTH",
"504 333 OFFCURVE",
"447 376 OFFCURVE",
"365 376 CURVE SMOOTH",
"341 376 OFFCURVE",
"309 369 OFFCURVE",
"291 358 CURVE",
"298 348 LINE",
"357 373 OFFCURVE",
"383 439 OFFCURVE",
"410 523 CURVE SMOOTH"
);
}
);
};
layerId = "484F8FD9-52EC-47CF-91D8-DA5450121283";
paths = (
{
closed = 1;
nodes = (
"464 49 OFFCURVE",
"451 30 OFFCURVE",
"405 30 CURVE SMOOTH",
"380 30 LINE",
"380 0 LINE",
"655 0 LINE",
"655 30 LINE",
"630 30 LINE SMOOTH",
"592 30 OFFCURVE",
"577 48 OFFCURVE",
"553 91 CURVE SMOOTH",
"358 438 LINE",
"283 372 LINE",
"437 97 LINE SMOOTH"
);
},
{
closed = 1;
nodes = (
"486 545 LINE SMOOTH",
"555 614 OFFCURVE",
"591 640 OFFCURVE",
"650 640 CURVE",
"650 670 LINE",
"385 670 LINE",
"385 640 LINE",
"400 640 LINE SMOOTH",
"463 640 OFFCURVE",
"475 582 OFFCURVE",
"423 529 CURVE SMOOTH",
"173 277 LINE SMOOTH",
"191 249 LINE"
);
},
{
closed = 1;
nodes = (
"205 626 OFFCURVE",
"215 640 OFFCURVE",
"245 640 CURVE SMOOTH",
"290 640 LINE",
"290 670 LINE",
"15 670 LINE",
"15 640 LINE",
"63 640 LINE SMOOTH",
"90 640 OFFCURVE",
"100 626 OFFCURVE",
"100 602 CURVE SMOOTH",
"100 68 LINE SMOOTH",
"100 44 OFFCURVE",
"90 30 OFFCURVE",
"63 30 CURVE SMOOTH",
"15 30 LINE",
"15 0 LINE",
"290 0 LINE",
"290 30 LINE",
"245 30 LINE SMOOTH",
"215 30 OFFCURVE",
"205 44 OFFCURVE",
"205 68 CURVE SMOOTH",
"205 602 LINE SMOOTH"
);
}
);
width = 635;
},
{
background = {
paths = (
{
closed = 1;
nodes = (
"345 368 LINE",
"337 385 LINE",
"278 359 LINE",
"287 340 LINE"
);
},
{
closed = 1;
nodes = (
"432 592 OFFCURVE",
"448 610 OFFCURVE",
"469 610 CURVE SMOOTH",
"479 610 OFFCURVE",
"491 604 OFFCURVE",
"491 590 CURVE SMOOTH",
"491 585 OFFCURVE",
"489 573 OFFCURVE",
"489 566 CURVE SMOOTH",
"489 531 OFFCURVE",
"514 514 OFFCURVE",
"549 514 CURVE SMOOTH",
"590 514 OFFCURVE",
"619 545 OFFCURVE",
"619 585 CURVE SMOOTH",
"619 642 OFFCURVE",
"576 680 OFFCURVE",
"521 680 CURVE SMOOTH",
"459 680 OFFCURVE",
"408 640 OFFCURVE",
"377 536 CURVE SMOOTH",
"353 455 OFFCURVE",
"334 396 OFFCURVE",
"272 363 CURVE SMOOTH",
"231 341 OFFCURVE",
"210 324 OFFCURVE",
"193 293 CURVE",
"205 293 LINE",
"205 602 LINE SMOOTH",
"205 626 OFFCURVE",
"215 640 OFFCURVE",
"245 640 CURVE SMOOTH",
"300 640 LINE",
"300 670 LINE",
"5 670 LINE",
"5 640 LINE",
"63 640 LINE SMOOTH",
"90 640 OFFCURVE",
"100 626 OFFCURVE",
"100 602 CURVE SMOOTH",
"100 68 LINE SMOOTH",
"100 44 OFFCURVE",
"90 30 OFFCURVE",
"63 30 CURVE SMOOTH",
"5 30 LINE",
"5 0 LINE",
"300 0 LINE",
"300 30 LINE",
"245 30 LINE SMOOTH",
"215 30 OFFCURVE",
"205 44 OFFCURVE",
"205 68 CURVE SMOOTH",
"205 212 LINE SMOOTH",
"205 284 OFFCURVE",
"250 333 OFFCURVE",
"312 333 CURVE SMOOTH",
"379 333 OFFCURVE",
"396 280 OFFCURVE",
"396 231 CURVE SMOOTH",
"396 122 LINE SMOOTH",
"396 47 OFFCURVE",
"427 -12 OFFCURVE",
"543 -12 CURVE SMOOTH",
"649 -12 OFFCURVE",
"720 47 OFFCURVE",
"757 187 CURVE",
"726 194 LINE",
"700 99 OFFCURVE",
"649 36 OFFCURVE",
"586 36 CURVE SMOOTH",
"530 36 OFFCURVE",
"504 73 OFFCURVE",
"504 138 CURVE SMOOTH",
"504 241 LINE SMOOTH",
"504 333 OFFCURVE",
"447 376 OFFCURVE",
"365 376 CURVE SMOOTH",
"341 376 OFFCURVE",
"309 369 OFFCURVE",
"291 358 CURVE",
"298 348 LINE",
"357 373 OFFCURVE",
"383 439 OFFCURVE",
"410 523 CURVE SMOOTH"
);
}
);
};
layerId = "28D540C6-4B1C-4739-9DB3-C8E6E4DDF73A";
paths = (
{
closed = 1;
nodes = (
"928 49 OFFCURVE",
"902 30 OFFCURVE",
"810 30 CURVE SMOOTH",
"760 30 LINE",
"760 0 LINE",
"1310 0 LINE",
"1310 30 LINE",
"1260 30 LINE SMOOTH",
"1184 30 OFFCURVE",
"1154 48 OFFCURVE",
"1106 91 CURVE SMOOTH",
"716 438 LINE",
"566 372 LINE",
"874 97 LINE SMOOTH"
);
},
{
closed = 1;
nodes = (
"972 545 LINE SMOOTH",
"1110 614 OFFCURVE",
"1182 640 OFFCURVE",
"1300 640 CURVE",
"1300 670 LINE",
"770 670 LINE",
"770 640 LINE",
"800 640 LINE SMOOTH",
"926 640 OFFCURVE",
"950 582 OFFCURVE",
"846 529 CURVE SMOOTH",
"346 277 LINE SMOOTH",
"382 249 LINE"
);
},
{
closed = 1;
nodes = (
"410 626 OFFCURVE",
"430 640 OFFCURVE",
"490 640 CURVE SMOOTH",
"580 640 LINE",
"580 670 LINE",
"30 670 LINE",
"30 640 LINE",
"126 640 LINE SMOOTH",
"180 640 OFFCURVE",
"200 626 OFFCURVE",
"200 602 CURVE SMOOTH",
"200 68 LINE SMOOTH",
"200 44 OFFCURVE",
"180 30 OFFCURVE",
"126 30 CURVE SMOOTH",
"30 30 LINE",
"30 0 LINE",
"580 0 LINE",
"580 30 LINE",
"490 30 LINE SMOOTH",
"430 30 OFFCURVE",
"410 44 OFFCURVE",
"410 68 CURVE SMOOTH",
"410 602 LINE SMOOTH"
);
}
);
width = 1270;
}
);
leftKerningGroup = B;
rightKerningGroup = K;
unicode = 004B;
userData = {
com.typemytype.robofont.layerData = {
background = {
anchors = (
);
components = (
);
contours = (
);
lib = {
};
name = K;
unicodes = (
);
width = 635;
};
};
};
},
{
glyphname = L;
lastChange = "2018-07-13 09:52:20 +0000";
layers = (
{
layerId = "ADE64B87-3839-4AD4-BD35-A3CFF79840FC";
paths = (
{
closed = 1;
nodes = (
"103 626 OFFCURVE",
"108 640 OFFCURVE",
"123 640 CURVE SMOOTH",
"150 640 LINE",
"150 670 LINE",
"3 670 LINE",
"3 640 LINE",
"32 640 LINE SMOOTH",
"45 640 OFFCURVE",
"50 626 OFFCURVE",
"50 602 CURVE SMOOTH",
"50 68 LINE SMOOTH",
"50 44 OFFCURVE",
"45 30 OFFCURVE",
"32 30 CURVE SMOOTH",
"3 30 LINE",
"3 0 LINE",
"258 0 LINE",
"258 245 LINE",
"241 245 LINE",
"237 107 OFFCURVE",
"197 30 OFFCURVE",
"140 30 CURVE SMOOTH",
"103 30 LINE",
"103 602 LINE SMOOTH"
);
}
);
width = 283;
},
{
layerId = "484F8FD9-52EC-47CF-91D8-DA5450121283";
paths = (
{
closed = 1;
nodes = (
"205 626 OFFCURVE",
"215 640 OFFCURVE",
"245 640 CURVE SMOOTH",
"300 640 LINE",
"300 670 LINE",
"5 670 LINE",
"5 640 LINE",
"63 640 LINE SMOOTH",
"90 640 OFFCURVE",
"100 626 OFFCURVE",
"100 602 CURVE SMOOTH",
"100 68 LINE SMOOTH",
"100 44 OFFCURVE",
"90 30 OFFCURVE",
"63 30 CURVE SMOOTH",
"5 30 LINE",
"5 0 LINE",
"515 0 LINE",
"515 245 LINE",
"481 245 LINE",
"473 107 OFFCURVE",
"394 30 OFFCURVE",
"279 30 CURVE SMOOTH",
"205 30 LINE",
"205 602 LINE SMOOTH"
);
}
);
width = 565;
},
{
layerId = "28D540C6-4B1C-4739-9DB3-C8E6E4DDF73A";
paths = (
{
closed = 1;
nodes = (
"410 626 OFFCURVE",
"430 640 OFFCURVE",
"490 640 CURVE SMOOTH",
"600 640 LINE",
"600 670 LINE",
"10 670 LINE",
"10 640 LINE",
"126 640 LINE SMOOTH",
"180 640 OFFCURVE",
"200 626 OFFCURVE",
"200 602 CURVE SMOOTH",
"200 68 LINE SMOOTH",
"200 44 OFFCURVE",
"180 30 OFFCURVE",
"126 30 CURVE SMOOTH",
"10 30 LINE",
"10 0 LINE",
"1030 0 LINE",
"1030 245 LINE",
"962 245 LINE",
"946 107 OFFCURVE",
"788 30 OFFCURVE",
"558 30 CURVE SMOOTH",
"410 30 LINE",
"410 602 LINE SMOOTH"
);
}
);
width = 1130;
}
);
leftKerningGroup = B;
unicode = 004C;
userData = {
com.typemytype.robofont.layerData = {
background = {
anchors = (
);
components = (
);
contours = (
);
lib = {
};
name = L;
unicodes = (
);
width = 565;
};
};
com.typemytype.robofont.mark = (
0.4827,
0.8546,
0.4678,
1
);
};
},
{
glyphname = M;
lastChange = "2018-07-13 09:52:20 +0000";
layers = (
{
layerId = "ADE64B87-3839-4AD4-BD35-A3CFF79840FC";
paths = (
{
closed = 1;
nodes = (
"292 576 LINE",
"292 598 LINE",
"276 598 LINE",
"276 576 LINE"
);
},
{
closed = 1;
nodes = (
"115 670 LINE",
"3 670 LINE",
"3 640 LINE",
"32 640 LINE SMOOTH",
"53 640 OFFCURVE",
"60 619 OFFCURVE",
"60 582 CURVE SMOOTH",
"60 180 LINE SMOOTH",
"60 93 OFFCURVE",
"43 30 OFFCURVE",
"8 30 CURVE SMOOTH",
"3 30 LINE",
"3 0 LINE",
"135 0 LINE",
"135 30 LINE",
"130 30 LINE SMOOTH",
"95 30 OFFCURVE",
"78 93 OFFCURVE",
"78 180 CURVE SMOOTH",
"78 640 LINE SMOOTH",
"62 670 LINE",
"151 150 LINE",
"175 0 LINE",
"187 0 LINE",
"210 150 LINE",
"296 670 LINE",
"283 640 LINE",
"283 68 LINE SMOOTH",
"283 44 OFFCURVE",
"278 30 OFFCURVE",
"264 30 CURVE SMOOTH",
"235 30 LINE",
"235 0 LINE",
"383 0 LINE",
"383 30 LINE",
"355 30 LINE SMOOTH",
"340 30 OFFCURVE",
"335 44 OFFCURVE",
"335 68 CURVE SMOOTH",
"335 602 LINE SMOOTH",
"335 626 OFFCURVE",
"340 640 OFFCURVE",
"355 640 CURVE SMOOTH",
"383 640 LINE",
"383 670 LINE",
"279 670 LINE",
"193 150 LINE",
"204 150 LINE"
);
},
{
closed = 1;
nodes = (
"87 565 LINE",
"87 587 LINE",
"71 587 LINE",
"71 565 LINE"
);
},
{
closed = 1;
nodes = (
"204 173 LINE",
"204 190 LINE",
"192 190 LINE",
"192 173 LINE"
);
}
);
width = 385;
},
{
layerId = "484F8FD9-52EC-47CF-91D8-DA5450121283";
paths = (
{
closed = 1;
nodes = (
"584 576 LINE",
"584 598 LINE",
"551 598 LINE",
"551 576 LINE"
);
},
{
closed = 1;
nodes = (
"230 670 LINE",
"5 670 LINE",
"5 640 LINE",
"63 640 LINE SMOOTH",
"105 640 OFFCURVE",
"120 619 OFFCURVE",
"120 582 CURVE SMOOTH",
"120 180 LINE SMOOTH",
"120 93 OFFCURVE",
"86 30 OFFCURVE",
"15 30 CURVE SMOOTH",
"5 30 LINE",
"5 0 LINE",
"270 0 LINE",
"270 30 LINE",
"260 30 LINE SMOOTH",
"189 30 OFFCURVE",
"155 93 OFFCURVE",
"155 180 CURVE SMOOTH",
"155 640 LINE SMOOTH",
"123 670 LINE",
"301 150 LINE",
"349 0 LINE",
"374 0 LINE",
"420 150 LINE",
"592 670 LINE",
"565 640 LINE",
"565 68 LINE SMOOTH",
"565 44 OFFCURVE",
"555 30 OFFCURVE",
"528 30 CURVE SMOOTH",
"470 30 LINE",
"470 0 LINE",
"765 0 LINE",
"765 30 LINE",
"710 30 LINE SMOOTH",
"680 30 OFFCURVE",
"670 44 OFFCURVE",
"670 68 CURVE SMOOTH",
"670 602 LINE SMOOTH",
"670 626 OFFCURVE",
"680 640 OFFCURVE",
"710 640 CURVE SMOOTH",
"765 640 LINE",
"765 670 LINE",
"557 670 LINE",
"385 150 LINE",
"408 150 LINE"
);
},
{
closed = 1;
nodes = (
"174 565 LINE",
"174 587 LINE",
"141 587 LINE",
"141 565 LINE"
);
},
{
closed = 1;
nodes = (
"408 173 LINE",
"408 190 LINE",
"384 190 LINE",
"384 173 LINE"
);
}
);
width = 770;
},
{
layerId = "28D540C6-4B1C-4739-9DB3-C8E6E4DDF73A";
paths = (
{
closed = 1;
nodes = (
"1168 576 LINE",
"1168 598 LINE",
"1102 598 LINE",
"1102 576 LINE"
);
},
{
closed = 1;
nodes = (
"460 670 LINE",
"10 670 LINE",
"10 640 LINE",
"126 640 LINE SMOOTH",
"210 640 OFFCURVE",
"240 619 OFFCURVE",
"240 582 CURVE SMOOTH",
"240 180 LINE SMOOTH",
"240 93 OFFCURVE",
"172 30 OFFCURVE",
"30 30 CURVE SMOOTH",
"10 30 LINE",
"10 0 LINE",
"540 0 LINE",
"540 30 LINE",
"520 30 LINE SMOOTH",
"378 30 OFFCURVE",
"310 93 OFFCURVE",
"310 180 CURVE SMOOTH",
"310 640 LINE SMOOTH",
"246 670 LINE",
"602 150 LINE",
"698 0 LINE",
"748 0 LINE",
"840 150 LINE",
"1184 670 LINE",
"1130 640 LINE",
"1130 68 LINE SMOOTH",
"1130 44 OFFCURVE",
"1110 30 OFFCURVE",
"1056 30 CURVE SMOOTH",
"940 30 LINE",
"940 0 LINE",
"1530 0 LINE",
"1530 30 LINE",
"1420 30 LINE SMOOTH",
"1360 30 OFFCURVE",
"1340 44 OFFCURVE",
"1340 68 CURVE SMOOTH",
"1340 602 LINE SMOOTH",
"1340 626 OFFCURVE",
"1360 640 OFFCURVE",
"1420 640 CURVE SMOOTH",
"1530 640 LINE",
"1530 670 LINE",
"1114 670 LINE",
"770 150 LINE",
"816 150 LINE"
);
},
{
closed = 1;
nodes = (
"348 565 LINE",
"348 587 LINE",
"282 587 LINE",
"282 565 LINE"
);
},
{
closed = 1;
nodes = (
"816 173 LINE",
"816 190 LINE",
"768 190 LINE",
"768 173 LINE"
);
}
);
width = 1540;
}
);
leftKerningGroup = M;
rightKerningGroup = H;
unicode = 004D;
userData = {
com.typemytype.robofont.layerData = {
background = {
anchors = (
);
components = (
);
contours = (
);
lib = {
};
name = M;
unicodes = (
);
width = 770;
};
};
com.typemytype.robofont.mark = (
0.9366,
0.9212,
0.4821,
1
);
};
},
{
glyphname = N;
lastChange = "2018-07-13 09:52:20 +0000";
layers = (
{
layerId = "ADE64B87-3839-4AD4-BD35-A3CFF79840FC";
paths = (
{
closed = 1;
nodes = (
"260 147 LINE",
"260 168 LINE",
"237 168 LINE",
"237 147 LINE"
);
},
{
closed = 1;
nodes = (
"268 577 OFFCURVE",
"285 640 OFFCURVE",
"321 640 CURVE SMOOTH",
"326 640 LINE",
"326 670 LINE",
"193 670 LINE",
"193 640 LINE",
"198 640 LINE SMOOTH",
"234 640 OFFCURVE",
"251 577 OFFCURVE",
"251 490 CURVE SMOOTH",
"251 150 LINE",
"254 150 LINE",
"93 670 LINE",
"3 670 LINE",
"3 640 LINE",
"32 640 LINE SMOOTH",
"53 640 OFFCURVE",
"60 619 OFFCURVE",
"60 582 CURVE SMOOTH",
"60 180 LINE SMOOTH",
"60 93 OFFCURVE",
"43 30 OFFCURVE",
"8 30 CURVE SMOOTH",
"3 30 LINE",
"3 0 LINE",
"135 0 LINE",
"135 30 LINE",
"130 30 LINE SMOOTH",
"95 30 OFFCURVE",
"78 93 OFFCURVE",
"78 180 CURVE SMOOTH",
"78 575 LINE SMOOTH",
"66 575 LINE",
"198 150 LINE",
"243 0 LINE",
"268 0 LINE",
"268 490 LINE SMOOTH"
);
},
{
closed = 1;
nodes = (
"91 532 LINE",
"91 553 LINE",
"69 553 LINE",
"69 532 LINE"
);
}
);
width = 328;
},
{
layerId = "484F8FD9-52EC-47CF-91D8-DA5450121283";
paths = (
{
closed = 1;
nodes = (
"519 147 LINE",
"519 168 LINE",
"474 168 LINE",
"474 147 LINE"
);
},
{
closed = 1;
nodes = (
"536 577 OFFCURVE",
"570 640 OFFCURVE",
"641 640 CURVE SMOOTH",
"651 640 LINE",
"651 670 LINE",
"386 670 LINE",
"386 640 LINE",
"396 640 LINE SMOOTH",
"467 640 OFFCURVE",
"501 577 OFFCURVE",
"501 490 CURVE SMOOTH",
"501 150 LINE",
"508 150 LINE",
"185 670 LINE",
"5 670 LINE",
"5 640 LINE",
"63 640 LINE SMOOTH",
"105 640 OFFCURVE",
"120 619 OFFCURVE",
"120 582 CURVE SMOOTH",
"120 180 LINE SMOOTH",
"120 93 OFFCURVE",
"86 30 OFFCURVE",
"15 30 CURVE SMOOTH",
"5 30 LINE",
"5 0 LINE",
"270 0 LINE",
"270 30 LINE",
"260 30 LINE SMOOTH",
"189 30 OFFCURVE",
"155 93 OFFCURVE",
"155 180 CURVE SMOOTH",
"155 575 LINE SMOOTH",
"132 575 LINE",
"396 150 LINE",
"485 0 LINE",
"536 0 LINE",
"536 490 LINE SMOOTH"
);
},
{
closed = 1;
nodes = (
"182 532 LINE",
"182 553 LINE",
"137 553 LINE",
"137 532 LINE"
);
}
);
width = 656;
},
{
layerId = "28D540C6-4B1C-4739-9DB3-C8E6E4DDF73A";
paths = (
{
closed = 1;
nodes = (
"1038 147 LINE",
"1038 168 LINE",
"948 168 LINE",
"948 147 LINE"
);
},
{
closed = 1;
nodes = (
"1072 577 OFFCURVE",
"1140 640 OFFCURVE",
"1282 640 CURVE SMOOTH",
"1302 640 LINE",
"1302 670 LINE",
"772 670 LINE",
"772 640 LINE",
"792 640 LINE SMOOTH",
"934 640 OFFCURVE",
"1002 577 OFFCURVE",
"1002 490 CURVE SMOOTH",
"1002 150 LINE",
"1016 150 LINE",
"370 670 LINE",
"10 670 LINE",
"10 640 LINE",
"126 640 LINE SMOOTH",
"210 640 OFFCURVE",
"240 619 OFFCURVE",
"240 582 CURVE SMOOTH",
"240 180 LINE SMOOTH",
"240 93 OFFCURVE",
"172 30 OFFCURVE",
"30 30 CURVE SMOOTH",
"10 30 LINE",
"10 0 LINE",
"540 0 LINE",
"540 30 LINE",
"520 30 LINE SMOOTH",
"378 30 OFFCURVE",
"310 93 OFFCURVE",
"310 180 CURVE SMOOTH",
"310 575 LINE SMOOTH",
"264 575 LINE",
"792 150 LINE",
"970 0 LINE",
"1072 0 LINE",
"1072 490 LINE SMOOTH"
);
},
{
closed = 1;
nodes = (
"364 532 LINE",
"364 553 LINE",
"274 553 LINE",
"274 532 LINE"
);
}
);
width = 1312;
}
);
leftKerningGroup = M;
unicode = 004E;
userData = {
com.typemytype.robofont.layerData = {
background = {
anchors = (
);
components = (
);
contours = (
);
lib = {
};
name = N;
unicodes = (
);
width = 656;
};
};
com.typemytype.robofont.mark = (
0.9366,
0.9212,
0.4821,
1
);
};
},
{
glyphname = O;
lastChange = "2018-07-13 09:52:20 +0000";
layers = (
{
anchors = (
{
name = bottom;
position = "{168, 0}";
},
{
name = center;
position = "{168, 335}";
},
{
name = ogonek;
position = "{302, 10}";
},
{
name = top;
position = "{168, 670}";
},
{
name = topleft;
position = "{10, 670}";
},
{
name = topright;
position = "{325, 670}";
}
);
layerId = "ADE64B87-3839-4AD4-BD35-A3CFF79840FC";
paths = (
{
closed = 1;
nodes = (
"93 688 OFFCURVE",
"28 558 OFFCURVE",
"28 335 CURVE SMOOTH",
"28 113 OFFCURVE",
"93 -18 OFFCURVE",
"168 -18 CURVE SMOOTH",
"243 -18 OFFCURVE",
"308 113 OFFCURVE",
"308 335 CURVE SMOOTH",
"308 558 OFFCURVE",
"243 688 OFFCURVE",
"168 688 CURVE SMOOTH"
);
},
{
closed = 1;
nodes = (
"228 657 OFFCURVE",
"250 546 OFFCURVE",
"250 335 CURVE SMOOTH",
"250 126 OFFCURVE",
"228 15 OFFCURVE",
"168 15 CURVE SMOOTH",
"107 15 OFFCURVE",
"85 126 OFFCURVE",
"85 335 CURVE SMOOTH",
"85 546 OFFCURVE",
"107 657 OFFCURVE",
"168 657 CURVE SMOOTH"
);
}
);
width = 335;
},
{
anchors = (
{
name = bottom;
position = "{335, 0}";
},
{
name = center;
position = "{335, 335}";
},
{
name = ogonek;
position = "{603, 10}";
},
{
name = top;
position = "{335, 670}";
},
{
name = topleft;
position = "{20, 670}";
},
{
name = topright;
position = "{650, 670}";
}
);
layerId = "484F8FD9-52EC-47CF-91D8-DA5450121283";
paths = (
{
closed = 1;
nodes = (
"185 688 OFFCURVE",
"55 558 OFFCURVE",
"55 335 CURVE SMOOTH",
"55 113 OFFCURVE",
"185 -18 OFFCURVE",
"335 -18 CURVE SMOOTH",
"485 -18 OFFCURVE",
"615 113 OFFCURVE",
"615 335 CURVE SMOOTH",
"615 558 OFFCURVE",
"485 688 OFFCURVE",
"335 688 CURVE SMOOTH"
);
},
{
closed = 1;
nodes = (
"456 657 OFFCURVE",
"500 546 OFFCURVE",
"500 335 CURVE SMOOTH",
"500 126 OFFCURVE",
"456 15 OFFCURVE",
"335 15 CURVE SMOOTH",
"214 15 OFFCURVE",
"170 126 OFFCURVE",
"170 335 CURVE SMOOTH",
"170 546 OFFCURVE",
"214 657 OFFCURVE",
"335 657 CURVE SMOOTH"
);
}
);
width = 670;
},
{
anchors = (
{
name = bottom;
position = "{670, 0}";
},
{
name = center;
position = "{670, 335}";
},
{
name = ogonek;
position = "{1206, 10}";
},
{
name = top;
position = "{670, 670}";
},
{
name = topleft;
position = "{40, 670}";
},
{
name = topright;
position = "{1300, 670}";
}
);
layerId = "28D540C6-4B1C-4739-9DB3-C8E6E4DDF73A";
paths = (
{
closed = 1;
nodes = (
"370 688 OFFCURVE",
"110 558 OFFCURVE",
"110 335 CURVE SMOOTH",
"110 113 OFFCURVE",
"370 -18 OFFCURVE",
"670 -18 CURVE SMOOTH",
"970 -18 OFFCURVE",
"1230 113 OFFCURVE",
"1230 335 CURVE SMOOTH",
"1230 558 OFFCURVE",
"970 688 OFFCURVE",
"670 688 CURVE SMOOTH"
);
},
{
closed = 1;
nodes = (
"912 657 OFFCURVE",
"1000 546 OFFCURVE",
"1000 335 CURVE SMOOTH",
"1000 126 OFFCURVE",
"912 15 OFFCURVE",
"670 15 CURVE SMOOTH",
"428 15 OFFCURVE",
"340 126 OFFCURVE",
"340 335 CURVE SMOOTH",
"340 546 OFFCURVE",
"428 657 OFFCURVE",
"670 657 CURVE SMOOTH"
);
}
);
width = 1340;
}
);
leftKerningGroup = C;
rightKerningGroup = D;
unicode = 004F;
userData = {
com.typemytype.robofont.layerData = {
background = {
anchors = (
);
components = (
);
contours = (
);
lib = {
};
name = O;
unicodes = (
);
width = 670;
};
};
com.typemytype.robofont.mark = (
0.9366,
0.9212,
0.4821,
1
);
};
},
{
glyphname = P;
lastChange = "2018-07-13 09:52:20 +0000";
layers = (
{
layerId = "ADE64B87-3839-4AD4-BD35-A3CFF79840FC";
paths = (
{
closed = 1;
nodes = (
"150 30 LINE",
"121 30 LINE SMOOTH",
"108 30 OFFCURVE",
"103 44 OFFCURVE",
"103 68 CURVE SMOOTH",
"103 640 LINE",
"152 640 LINE SMOOTH",
"192 640 OFFCURVE",
"218 590 OFFCURVE",
"218 487 CURVE SMOOTH",
"218 384 OFFCURVE",
"196 330 OFFCURVE",
"152 330 CURVE SMOOTH",
"83 330 LINE",
"83 300 LINE",
"156 300 LINE SMOOTH",
"239 300 OFFCURVE",
"273 383 OFFCURVE",
"273 487 CURVE SMOOTH",
"273 591 OFFCURVE",
"237 670 OFFCURVE",
"156 670 CURVE SMOOTH",
"3 670 LINE",
"3 640 LINE",
"32 640 LINE SMOOTH",
"45 640 OFFCURVE",
"50 626 OFFCURVE",
"50 602 CURVE SMOOTH",
"50 68 LINE SMOOTH",
"50 44 OFFCURVE",
"45 30 OFFCURVE",
"32 30 CURVE SMOOTH",
"3 30 LINE",
"3 0 LINE",
"150 0 LINE"
);
}
);
width = 282;
},
{
layerId = "484F8FD9-52EC-47CF-91D8-DA5450121283";
paths = (
{
closed = 1;
nodes = (
"300 30 LINE",
"242 30 LINE SMOOTH",
"215 30 OFFCURVE",
"205 44 OFFCURVE",
"205 68 CURVE SMOOTH",
"205 640 LINE",
"303 640 LINE SMOOTH",
"384 640 OFFCURVE",
"435 590 OFFCURVE",
"435 487 CURVE SMOOTH",
"435 384 OFFCURVE",
"392 330 OFFCURVE",
"303 330 CURVE SMOOTH",
"166 330 LINE",
"166 300 LINE",
"312 300 LINE SMOOTH",
"478 300 OFFCURVE",
"545 383 OFFCURVE",
"545 487 CURVE SMOOTH",
"545 591 OFFCURVE",
"474 670 OFFCURVE",
"312 670 CURVE SMOOTH",
"5 670 LINE",
"5 640 LINE",
"63 640 LINE SMOOTH",
"90 640 OFFCURVE",
"100 626 OFFCURVE",
"100 602 CURVE SMOOTH",
"100 68 LINE SMOOTH",
"100 44 OFFCURVE",
"90 30 OFFCURVE",
"63 30 CURVE SMOOTH",
"5 30 LINE",
"5 0 LINE",
"300 0 LINE"
);
}
);
width = 563;
},
{
layerId = "28D540C6-4B1C-4739-9DB3-C8E6E4DDF73A";
paths = (
{
closed = 1;
nodes = (
"600 30 LINE",
"484 30 LINE SMOOTH",
"430 30 OFFCURVE",
"410 44 OFFCURVE",
"410 68 CURVE SMOOTH",
"410 640 LINE",
"606 640 LINE SMOOTH",
"768 640 OFFCURVE",
"870 590 OFFCURVE",
"870 487 CURVE SMOOTH",
"870 384 OFFCURVE",
"784 330 OFFCURVE",
"606 330 CURVE SMOOTH",
"332 330 LINE",
"332 300 LINE",
"624 300 LINE SMOOTH",
"956 300 OFFCURVE",
"1090 383 OFFCURVE",
"1090 487 CURVE SMOOTH",
"1090 591 OFFCURVE",
"948 670 OFFCURVE",
"624 670 CURVE SMOOTH",
"10 670 LINE",
"10 640 LINE",
"126 640 LINE SMOOTH",
"180 640 OFFCURVE",
"200 626 OFFCURVE",
"200 602 CURVE SMOOTH",
"200 68 LINE SMOOTH",
"200 44 OFFCURVE",
"180 30 OFFCURVE",
"126 30 CURVE SMOOTH",
"10 30 LINE",
"10 0 LINE",
"600 0 LINE"
);
}
);
width = 1126;
}
);
leftKerningGroup = B;
unicode = 0050;
userData = {
com.typemytype.robofont.layerData = {
background = {
anchors = (
);
components = (
);
contours = (
);
lib = {
};
name = P;
unicodes = (
);
width = 563;
};
};
com.typemytype.robofont.mark = (
0.9366,
0.9212,
0.4821,
1
);
};
},
{
glyphname = Q;
lastChange = "2018-07-13 09:52:20 +0000";
layers = (
{
components = (
{
name = O;
}
);
layerId = "ADE64B87-3839-4AD4-BD35-A3CFF79840FC";
paths = (
{
closed = 1;
nodes = (
"157 -187 LINE",
"169 -187 LINE",
"173 -160 OFFCURVE",
"184 -141 OFFCURVE",
"198 -141 CURVE SMOOTH",
"220 -141 OFFCURVE",
"236 -190 OFFCURVE",
"260 -190 CURVE SMOOTH",
"290 -190 OFFCURVE",
"313 -132 OFFCURVE",
"336 -27 CURVE",
"321 -13 LINE",
"306 -76 OFFCURVE",
"297 -93 OFFCURVE",
"284 -93 CURVE SMOOTH",
"262 -93 OFFCURVE",
"248 -50 OFFCURVE",
"225 -50 CURVE SMOOTH",
"200 -50 OFFCURVE",
"179 -86 OFFCURVE",
"160 -177 CURVE",
"174 -147 LINE",
"174 160 LINE",
"157 160 LINE"
);
}
);
width = 335;
},
{
components = (
{
name = O;
}
);
layerId = "484F8FD9-52EC-47CF-91D8-DA5450121283";
paths = (
{
closed = 1;
nodes = (
"313 -187 LINE",
"338 -187 LINE",
"346 -160 OFFCURVE",
"367 -141 OFFCURVE",
"395 -141 CURVE SMOOTH",
"439 -141 OFFCURVE",
"471 -190 OFFCURVE",
"520 -190 CURVE SMOOTH",
"579 -190 OFFCURVE",
"625 -132 OFFCURVE",
"672 -27 CURVE",
"641 -13 LINE",
"612 -76 OFFCURVE",
"593 -93 OFFCURVE",
"568 -93 CURVE SMOOTH",
"524 -93 OFFCURVE",
"496 -50 OFFCURVE",
"449 -50 CURVE SMOOTH",
"400 -50 OFFCURVE",
"357 -86 OFFCURVE",
"320 -177 CURVE",
"347 -147 LINE",
"347 160 LINE",
"313 160 LINE"
);
}
);
width = 670;
},
{
components = (
{
name = O;
}
);
layerId = "28D540C6-4B1C-4739-9DB3-C8E6E4DDF73A";
paths = (
{
closed = 1;
nodes = (
"626 -187 LINE",
"676 -187 LINE",
"692 -160 OFFCURVE",
"734 -141 OFFCURVE",
"790 -141 CURVE SMOOTH",
"878 -141 OFFCURVE",
"942 -190 OFFCURVE",
"1040 -190 CURVE SMOOTH",
"1158 -190 OFFCURVE",
"1250 -132 OFFCURVE",
"1344 -27 CURVE",
"1282 -13 LINE",
"1224 -76 OFFCURVE",
"1186 -93 OFFCURVE",
"1136 -93 CURVE SMOOTH",
"1048 -93 OFFCURVE",
"992 -50 OFFCURVE",
"898 -50 CURVE SMOOTH",
"800 -50 OFFCURVE",
"714 -86 OFFCURVE",
"640 -177 CURVE",
"694 -147 LINE",
"694 160 LINE",
"626 160 LINE"
);
}
);
width = 1340;
}
);
leftKerningGroup = C;
unicode = 0051;
userData = {
com.typemytype.robofont.layerData = {
background = {
anchors = (
);
components = (
);
contours = (
);
lib = {
};
name = Q;
unicodes = (
);
width = 670;
};
};
com.typemytype.robofont.mark = (
0.3692,
0.5456,
0.891,
1
);
};
},
{
glyphname = R;
lastChange = "2018-07-13 09:52:20 +0000";
layers = (
{
background = {
paths = (
{
closed = 1;
nodes = (
"390 334 LINE",
"390 358 LINE",
"307 358 LINE",
"307 334 LINE"
);
},
{
closed = 1;
nodes = (
"479 340 OFFCURVE",
"547 413 OFFCURVE",
"547 505 CURVE SMOOTH",
"547 599 OFFCURVE",
"476 670 OFFCURVE",
"312 670 CURVE SMOOTH",
"5 670 LINE",
"5 640 LINE",
"63 640 LINE SMOOTH",
"90 640 OFFCURVE",
"100 626 OFFCURVE",
"100 602 CURVE SMOOTH",
"100 68 LINE SMOOTH",
"100 44 OFFCURVE",
"90 30 OFFCURVE",
"63 30 CURVE SMOOTH",
"5 30 LINE",
"5 0 LINE",
"300 0 LINE",
"300 30 LINE",
"242 30 LINE SMOOTH",
"215 30 OFFCURVE",
"205 44 OFFCURVE",
"205 68 CURVE SMOOTH",
"205 640 LINE",
"303 640 LINE SMOOTH",
"385 640 OFFCURVE",
"437 596 OFFCURVE",
"437 505 CURVE SMOOTH",
"437 410 OFFCURVE",
"393 360 OFFCURVE",
"303 360 CURVE SMOOTH",
"166 360 LINE",
"166 330 LINE",
"303 330 LINE SMOOTH",
"381 330 OFFCURVE",
"404 297 OFFCURVE",
"407 224 CURVE SMOOTH",
"411 135 LINE SMOOTH",
"416 11 OFFCURVE",
"474 -14 OFFCURVE",
"550 -14 CURVE SMOOTH",
"643 -14 OFFCURVE",
"678 37 OFFCURVE",
"724 112 CURVE",
"697 128 LINE",
"655 61 OFFCURVE",
"627 32 OFFCURVE",
"588 32 CURVE SMOOTH",
"546 32 OFFCURVE",
"530 59 OFFCURVE",
"524 125 CURVE SMOOTH",
"515 222 LINE SMOOTH",
"507 312 OFFCURVE",
"453 336 OFFCURVE",
"315 356 CURVE",
"312 340 LINE"
);
}
);
};
layerId = "ADE64B87-3839-4AD4-BD35-A3CFF79840FC";
paths = (
{
closed = 1;
nodes = (
"195 334 LINE",
"195 358 LINE",
"154 358 LINE",
"154 334 LINE"
);
},
{
closed = 1;
nodes = (
"145 0 LINE",
"145 30 LINE",
"121 30 LINE SMOOTH",
"108 30 OFFCURVE",
"103 44 OFFCURVE",
"103 68 CURVE SMOOTH",
"103 640 LINE",
"152 640 LINE SMOOTH",
"193 640 OFFCURVE",
"219 596 OFFCURVE",
"219 505 CURVE SMOOTH",
"219 410 OFFCURVE",
"197 360 OFFCURVE",
"152 360 CURVE SMOOTH",
"83 360 LINE",
"83 330 LINE",
"152 330 LINE SMOOTH",
"195 330 OFFCURVE",
"209 291 OFFCURVE",
"210 218 CURVE SMOOTH",
"211 67 LINE SMOOTH",
"211 17 OFFCURVE",
"222 0 OFFCURVE",
"246 0 CURVE SMOOTH",
"303 0 LINE",
"303 30 LINE",
"285 30 LINE SMOOTH",
"269 30 OFFCURVE",
"262 45 OFFCURVE",
"262 78 CURVE SMOOTH",
"261 222 LINE SMOOTH",
"261 307 OFFCURVE",
"229 335 OFFCURVE",
"158 356 CURVE",
"156 340 LINE",
"240 340 OFFCURVE",
"274 413 OFFCURVE",
"274 505 CURVE SMOOTH",
"274 599 OFFCURVE",
"238 670 OFFCURVE",
"156 670 CURVE SMOOTH",
"8 670 LINE",
"8 640 LINE",
"32 640 LINE SMOOTH",
"45 640 OFFCURVE",
"50 626 OFFCURVE",
"50 602 CURVE SMOOTH",
"50 68 LINE SMOOTH",
"50 44 OFFCURVE",
"45 30 OFFCURVE",
"32 30 CURVE SMOOTH",
"8 30 LINE",
"8 0 LINE"
);
}
);
width = 310;
},
{
background = {
paths = (
{
closed = 1;
nodes = (
"390 334 LINE",
"390 358 LINE",
"307 358 LINE",
"307 334 LINE"
);
},
{
closed = 1;
nodes = (
"479 340 OFFCURVE",
"547 413 OFFCURVE",
"547 505 CURVE SMOOTH",
"547 599 OFFCURVE",
"476 670 OFFCURVE",
"312 670 CURVE SMOOTH",
"5 670 LINE",
"5 640 LINE",
"63 640 LINE SMOOTH",
"90 640 OFFCURVE",
"100 626 OFFCURVE",
"100 602 CURVE SMOOTH",
"100 68 LINE SMOOTH",
"100 44 OFFCURVE",
"90 30 OFFCURVE",
"63 30 CURVE SMOOTH",
"5 30 LINE",
"5 0 LINE",
"300 0 LINE",
"300 30 LINE",
"242 30 LINE SMOOTH",
"215 30 OFFCURVE",
"205 44 OFFCURVE",
"205 68 CURVE SMOOTH",
"205 640 LINE",
"303 640 LINE SMOOTH",
"385 640 OFFCURVE",
"437 596 OFFCURVE",
"437 505 CURVE SMOOTH",
"437 410 OFFCURVE",
"393 360 OFFCURVE",
"303 360 CURVE SMOOTH",
"166 360 LINE",
"166 330 LINE",
"303 330 LINE SMOOTH",
"381 330 OFFCURVE",
"404 297 OFFCURVE",
"407 224 CURVE SMOOTH",
"411 135 LINE SMOOTH",
"416 11 OFFCURVE",
"474 -14 OFFCURVE",
"550 -14 CURVE SMOOTH",
"643 -14 OFFCURVE",
"678 37 OFFCURVE",
"724 112 CURVE",
"697 128 LINE",
"655 61 OFFCURVE",
"627 32 OFFCURVE",
"588 32 CURVE SMOOTH",
"546 32 OFFCURVE",
"530 59 OFFCURVE",
"524 125 CURVE SMOOTH",
"515 222 LINE SMOOTH",
"507 312 OFFCURVE",
"453 336 OFFCURVE",
"315 356 CURVE",
"312 340 LINE"
);
}
);
};
layerId = "484F8FD9-52EC-47CF-91D8-DA5450121283";
paths = (
{
closed = 1;
nodes = (
"390 334 LINE",
"390 358 LINE",
"307 358 LINE",
"307 334 LINE"
);
},
{
closed = 1;
nodes = (
"290 0 LINE",
"290 30 LINE",
"242 30 LINE SMOOTH",
"215 30 OFFCURVE",
"205 44 OFFCURVE",
"205 68 CURVE SMOOTH",
"205 640 LINE",
"303 640 LINE SMOOTH",
"385 640 OFFCURVE",
"437 596 OFFCURVE",
"437 505 CURVE SMOOTH",
"437 410 OFFCURVE",
"393 360 OFFCURVE",
"303 360 CURVE SMOOTH",
"166 360 LINE",
"166 330 LINE",
"303 330 LINE SMOOTH",
"390 330 OFFCURVE",
"418 291 OFFCURVE",
"419 218 CURVE SMOOTH",
"421 67 LINE SMOOTH",
"422 17 OFFCURVE",
"444 0 OFFCURVE",
"492 0 CURVE SMOOTH",
"605 0 LINE",
"605 30 LINE",
"570 30 LINE SMOOTH",
"537 30 OFFCURVE",
"524 45 OFFCURVE",
"524 78 CURVE SMOOTH",
"522 222 LINE SMOOTH",
"521 307 OFFCURVE",
"458 335 OFFCURVE",
"315 356 CURVE",
"312 340 LINE",
"479 340 OFFCURVE",
"547 413 OFFCURVE",
"547 505 CURVE SMOOTH",
"547 599 OFFCURVE",
"476 670 OFFCURVE",
"312 670 CURVE SMOOTH",
"15 670 LINE",
"15 640 LINE",
"63 640 LINE SMOOTH",
"90 640 OFFCURVE",
"100 626 OFFCURVE",
"100 602 CURVE SMOOTH",
"100 68 LINE SMOOTH",
"100 44 OFFCURVE",
"90 30 OFFCURVE",
"63 30 CURVE SMOOTH",
"15 30 LINE",
"15 0 LINE"
);
}
);
width = 620;
},
{
background = {
paths = (
{
closed = 1;
nodes = (
"390 334 LINE",
"390 358 LINE",
"307 358 LINE",
"307 334 LINE"
);
},
{
closed = 1;
nodes = (
"479 340 OFFCURVE",
"547 413 OFFCURVE",
"547 505 CURVE SMOOTH",
"547 599 OFFCURVE",
"476 670 OFFCURVE",
"312 670 CURVE SMOOTH",
"5 670 LINE",
"5 640 LINE",
"63 640 LINE SMOOTH",
"90 640 OFFCURVE",
"100 626 OFFCURVE",
"100 602 CURVE SMOOTH",
"100 68 LINE SMOOTH",
"100 44 OFFCURVE",
"90 30 OFFCURVE",
"63 30 CURVE SMOOTH",
"5 30 LINE",
"5 0 LINE",
"300 0 LINE",
"300 30 LINE",
"242 30 LINE SMOOTH",
"215 30 OFFCURVE",
"205 44 OFFCURVE",
"205 68 CURVE SMOOTH",
"205 640 LINE",
"303 640 LINE SMOOTH",
"385 640 OFFCURVE",
"437 596 OFFCURVE",
"437 505 CURVE SMOOTH",
"437 410 OFFCURVE",
"393 360 OFFCURVE",
"303 360 CURVE SMOOTH",
"166 360 LINE",
"166 330 LINE",
"303 330 LINE SMOOTH",
"381 330 OFFCURVE",
"404 297 OFFCURVE",
"407 224 CURVE SMOOTH",
"411 135 LINE SMOOTH",
"416 11 OFFCURVE",
"474 -14 OFFCURVE",
"550 -14 CURVE SMOOTH",
"643 -14 OFFCURVE",
"678 37 OFFCURVE",
"724 112 CURVE",
"697 128 LINE",
"655 61 OFFCURVE",
"627 32 OFFCURVE",
"588 32 CURVE SMOOTH",
"546 32 OFFCURVE",
"530 59 OFFCURVE",
"524 125 CURVE SMOOTH",
"515 222 LINE SMOOTH",
"507 312 OFFCURVE",
"453 336 OFFCURVE",
"315 356 CURVE",
"312 340 LINE"
);
}
);
};
layerId = "28D540C6-4B1C-4739-9DB3-C8E6E4DDF73A";
paths = (
{
closed = 1;
nodes = (
"780 334 LINE",
"780 358 LINE",
"614 358 LINE",
"614 334 LINE"
);
},
{
closed = 1;
nodes = (
"580 0 LINE",
"580 30 LINE",
"484 30 LINE SMOOTH",
"430 30 OFFCURVE",
"410 44 OFFCURVE",
"410 68 CURVE SMOOTH",
"410 640 LINE",
"606 640 LINE SMOOTH",
"770 640 OFFCURVE",
"874 596 OFFCURVE",
"874 505 CURVE SMOOTH",
"874 410 OFFCURVE",
"786 360 OFFCURVE",
"606 360 CURVE SMOOTH",
"332 360 LINE",
"332 330 LINE",
"606 330 LINE SMOOTH",
"780 330 OFFCURVE",
"836 291 OFFCURVE",
"838 218 CURVE SMOOTH",
"842 67 LINE SMOOTH",
"844 17 OFFCURVE",
"888 0 OFFCURVE",
"984 0 CURVE SMOOTH",
"1210 0 LINE",
"1210 30 LINE",
"1140 30 LINE SMOOTH",
"1074 30 OFFCURVE",
"1048 45 OFFCURVE",
"1048 78 CURVE SMOOTH",
"1044 222 LINE SMOOTH",
"1042 307 OFFCURVE",
"916 335 OFFCURVE",
"630 356 CURVE",
"624 340 LINE",
"958 340 OFFCURVE",
"1094 413 OFFCURVE",
"1094 505 CURVE SMOOTH",
"1094 599 OFFCURVE",
"952 670 OFFCURVE",
"624 670 CURVE SMOOTH",
"30 670 LINE",
"30 640 LINE",
"126 640 LINE SMOOTH",
"180 640 OFFCURVE",
"200 626 OFFCURVE",
"200 602 CURVE SMOOTH",
"200 68 LINE SMOOTH",
"200 44 OFFCURVE",
"180 30 OFFCURVE",
"126 30 CURVE SMOOTH",
"30 30 LINE",
"30 0 LINE"
);
}
);
width = 1240;
}
);
leftKerningGroup = B;
unicode = 0052;
userData = {
com.typemytype.robofont.layerData = {
background = {
anchors = (
);
components = (
);
contours = (
);
lib = {
};
name = R;
unicodes = (
);
width = 620;
};
};
};
},
{
glyphname = S;
lastChange = "2018-07-13 09:52:20 +0000";
layers = (
{
background = {
paths = (
{
closed = 1;
nodes = (
"186 182 OFFCURVE",
"158 209 OFFCURVE",
"116 209 CURVE SMOOTH",
"75 209 OFFCURVE",
"45 176 OFFCURVE",
"45 131 CURVE SMOOTH",
"45 48 OFFCURVE",
"132 -18 OFFCURVE",
"263 -18 CURVE SMOOTH",
"427 -18 OFFCURVE",
"507 67 OFFCURVE",
"507 182 CURVE SMOOTH",
"507 258 OFFCURVE",
"470 328 OFFCURVE",
"364 373 CURVE SMOOTH",
"237 427 LINE SMOOTH",
"174 454 OFFCURVE",
"159 491 OFFCURVE",
"159 533 CURVE SMOOTH",
"159 599 OFFCURVE",
"199 646 OFFCURVE",
"278 646 CURVE SMOOTH",
"324 646 OFFCURVE",
"363 633 OFFCURVE",
"363 598 CURVE SMOOTH",
"363 585 OFFCURVE",
"351 571 OFFCURVE",
"351 542 CURVE SMOOTH",
"351 509 OFFCURVE",
"376 477 OFFCURVE",
"422 477 CURVE SMOOTH",
"467 477 OFFCURVE",
"489 515 OFFCURVE",
"489 549 CURVE SMOOTH",
"489 614 OFFCURVE",
"425 682 OFFCURVE",
"278 682 CURVE SMOOTH",
"144 682 OFFCURVE",
"57 607 OFFCURVE",
"57 500 CURVE SMOOTH",
"57 444 OFFCURVE",
"84 379 OFFCURVE",
"173 341 CURVE SMOOTH",
"315 280 LINE SMOOTH",
"386 250 OFFCURVE",
"405 198 OFFCURVE",
"405 151 CURVE SMOOTH",
"405 69 OFFCURVE",
"358 18 OFFCURVE",
"269 18 CURVE SMOOTH",
"227 18 OFFCURVE",
"170 41 OFFCURVE",
"170 76 CURVE SMOOTH",
"170 91 OFFCURVE",
"186 112 OFFCURVE",
"186 143 CURVE SMOOTH"
);
}
);
};
layerId = "ADE64B87-3839-4AD4-BD35-A3CFF79840FC";
paths = (
{
closed = 1;
nodes = (
"72 684 OFFCURVE",
"29 623 OFFCURVE",
"29 525 CURVE SMOOTH",
"29 467 OFFCURVE",
"42 424 OFFCURVE",
"77 379 CURVE SMOOTH",
"175 253 LINE SMOOTH",
"195 227 OFFCURVE",
"204 193 OFFCURVE",
"204 147 CURVE SMOOTH",
"204 79 OFFCURVE",
"183 22 OFFCURVE",
"148 22 CURVE SMOOTH",
"94 22 OFFCURVE",
"56 116 OFFCURVE",
"43 240 CURVE",
"28 240 LINE",
"28 -5 LINE",
"40 -5 LINE",
"43 16 OFFCURVE",
"52 28 OFFCURVE",
"62 28 CURVE SMOOTH",
"87 28 OFFCURVE",
"105 -14 OFFCURVE",
"159 -14 CURVE SMOOTH",
"212 -14 OFFCURVE",
"252 59 OFFCURVE",
"252 172 CURVE SMOOTH",
"252 239 OFFCURVE",
"238 290 OFFCURVE",
"206 331 CURVE SMOOTH",
"108 456 LINE SMOOTH",
"86 484 OFFCURVE",
"76 508 OFFCURVE",
"76 551 CURVE SMOOTH",
"76 607 OFFCURVE",
"93 652 OFFCURVE",
"127 652 CURVE SMOOTH",
"174 652 OFFCURVE",
"205 574 OFFCURVE",
"214 461 CURVE",
"229 461 LINE",
"229 675 LINE",
"216 675 LINE",
"214 660 OFFCURVE",
"211 650 OFFCURVE",
"201 650 CURVE SMOOTH",
"183 650 OFFCURVE",
"168 684 OFFCURVE",
"127 684 CURVE SMOOTH"
);
}
);
width = 275;
},
{
background = {
paths = (
{
closed = 1;
nodes = (
"186 182 OFFCURVE",
"158 209 OFFCURVE",
"116 209 CURVE SMOOTH",
"75 209 OFFCURVE",
"45 176 OFFCURVE",
"45 131 CURVE SMOOTH",
"45 48 OFFCURVE",
"132 -18 OFFCURVE",
"263 -18 CURVE SMOOTH",
"427 -18 OFFCURVE",
"507 67 OFFCURVE",
"507 182 CURVE SMOOTH",
"507 258 OFFCURVE",
"470 328 OFFCURVE",
"364 373 CURVE SMOOTH",
"237 427 LINE SMOOTH",
"174 454 OFFCURVE",
"159 491 OFFCURVE",
"159 533 CURVE SMOOTH",
"159 599 OFFCURVE",
"199 646 OFFCURVE",
"278 646 CURVE SMOOTH",
"324 646 OFFCURVE",
"363 633 OFFCURVE",
"363 598 CURVE SMOOTH",
"363 585 OFFCURVE",
"351 571 OFFCURVE",
"351 542 CURVE SMOOTH",
"351 509 OFFCURVE",
"376 477 OFFCURVE",
"422 477 CURVE SMOOTH",
"467 477 OFFCURVE",
"489 515 OFFCURVE",
"489 549 CURVE SMOOTH",
"489 614 OFFCURVE",
"425 682 OFFCURVE",
"278 682 CURVE SMOOTH",
"144 682 OFFCURVE",
"57 607 OFFCURVE",
"57 500 CURVE SMOOTH",
"57 444 OFFCURVE",
"84 379 OFFCURVE",
"173 341 CURVE SMOOTH",
"315 280 LINE SMOOTH",
"386 250 OFFCURVE",
"405 198 OFFCURVE",
"405 151 CURVE SMOOTH",
"405 69 OFFCURVE",
"358 18 OFFCURVE",
"269 18 CURVE SMOOTH",
"227 18 OFFCURVE",
"170 41 OFFCURVE",
"170 76 CURVE SMOOTH",
"170 91 OFFCURVE",
"186 112 OFFCURVE",
"186 143 CURVE SMOOTH"
);
}
);
};
layerId = "484F8FD9-52EC-47CF-91D8-DA5450121283";
paths = (
{
closed = 1;
nodes = (
"143 684 OFFCURVE",
"57 623 OFFCURVE",
"57 525 CURVE SMOOTH",
"57 467 OFFCURVE",
"84 424 OFFCURVE",
"153 379 CURVE SMOOTH",
"349 253 LINE SMOOTH",
"389 227 OFFCURVE",
"408 193 OFFCURVE",
"408 147 CURVE SMOOTH",
"408 79 OFFCURVE",
"365 22 OFFCURVE",
"295 22 CURVE SMOOTH",
"188 22 OFFCURVE",
"111 116 OFFCURVE",
"85 240 CURVE",
"55 240 LINE",
"55 -5 LINE",
"80 -5 LINE",
"86 16 OFFCURVE",
"103 28 OFFCURVE",
"123 28 CURVE SMOOTH",
"174 28 OFFCURVE",
"209 -14 OFFCURVE",
"318 -14 CURVE SMOOTH",
"424 -14 OFFCURVE",
"504 59 OFFCURVE",
"504 172 CURVE SMOOTH",
"504 239 OFFCURVE",
"475 290 OFFCURVE",
"411 331 CURVE SMOOTH",
"215 456 LINE SMOOTH",
"171 484 OFFCURVE",
"151 508 OFFCURVE",
"151 551 CURVE SMOOTH",
"151 607 OFFCURVE",
"186 652 OFFCURVE",
"253 652 CURVE SMOOTH",
"348 652 OFFCURVE",
"410 574 OFFCURVE",
"427 461 CURVE",
"457 461 LINE",
"457 675 LINE",
"432 675 LINE",
"428 660 OFFCURVE",
"421 650 OFFCURVE",
"401 650 CURVE SMOOTH",
"366 650 OFFCURVE",
"335 684 OFFCURVE",
"253 684 CURVE SMOOTH"
);
}
);
width = 550;
},
{
background = {
paths = (
{
closed = 1;
nodes = (
"186 182 OFFCURVE",
"158 209 OFFCURVE",
"116 209 CURVE SMOOTH",
"75 209 OFFCURVE",
"45 176 OFFCURVE",
"45 131 CURVE SMOOTH",
"45 48 OFFCURVE",
"132 -18 OFFCURVE",
"263 -18 CURVE SMOOTH",
"427 -18 OFFCURVE",
"507 67 OFFCURVE",
"507 182 CURVE SMOOTH",
"507 258 OFFCURVE",
"470 328 OFFCURVE",
"364 373 CURVE SMOOTH",
"237 427 LINE SMOOTH",
"174 454 OFFCURVE",
"159 491 OFFCURVE",
"159 533 CURVE SMOOTH",
"159 599 OFFCURVE",
"199 646 OFFCURVE",
"278 646 CURVE SMOOTH",
"324 646 OFFCURVE",
"363 633 OFFCURVE",
"363 598 CURVE SMOOTH",
"363 585 OFFCURVE",
"351 571 OFFCURVE",
"351 542 CURVE SMOOTH",
"351 509 OFFCURVE",
"376 477 OFFCURVE",
"422 477 CURVE SMOOTH",
"467 477 OFFCURVE",
"489 515 OFFCURVE",
"489 549 CURVE SMOOTH",
"489 614 OFFCURVE",
"425 682 OFFCURVE",
"278 682 CURVE SMOOTH",
"144 682 OFFCURVE",
"57 607 OFFCURVE",
"57 500 CURVE SMOOTH",
"57 444 OFFCURVE",
"84 379 OFFCURVE",
"173 341 CURVE SMOOTH",
"315 280 LINE SMOOTH",
"386 250 OFFCURVE",
"405 198 OFFCURVE",
"405 151 CURVE SMOOTH",
"405 69 OFFCURVE",
"358 18 OFFCURVE",
"269 18 CURVE SMOOTH",
"227 18 OFFCURVE",
"170 41 OFFCURVE",
"170 76 CURVE SMOOTH",
"170 91 OFFCURVE",
"186 112 OFFCURVE",
"186 143 CURVE SMOOTH"
);
}
);
};
layerId = "28D540C6-4B1C-4739-9DB3-C8E6E4DDF73A";
paths = (
{
closed = 1;
nodes = (
"286 684 OFFCURVE",
"114 623 OFFCURVE",
"114 525 CURVE SMOOTH",
"114 467 OFFCURVE",
"168 424 OFFCURVE",
"306 379 CURVE SMOOTH",
"698 253 LINE SMOOTH",
"778 227 OFFCURVE",
"816 193 OFFCURVE",
"816 147 CURVE SMOOTH",
"816 79 OFFCURVE",
"730 22 OFFCURVE",
"590 22 CURVE SMOOTH",
"376 22 OFFCURVE",
"222 116 OFFCURVE",
"170 240 CURVE",
"110 240 LINE",
"110 -5 LINE",
"160 -5 LINE",
"172 16 OFFCURVE",
"206 28 OFFCURVE",
"246 28 CURVE SMOOTH",
"348 28 OFFCURVE",
"418 -14 OFFCURVE",
"636 -14 CURVE SMOOTH",
"848 -14 OFFCURVE",
"1008 59 OFFCURVE",
"1008 172 CURVE SMOOTH",
"1008 239 OFFCURVE",
"950 290 OFFCURVE",
"822 331 CURVE SMOOTH",
"430 456 LINE SMOOTH",
"342 484 OFFCURVE",
"302 508 OFFCURVE",
"302 551 CURVE SMOOTH",
"302 607 OFFCURVE",
"372 652 OFFCURVE",
"506 652 CURVE SMOOTH",
"696 652 OFFCURVE",
"820 574 OFFCURVE",
"854 461 CURVE",
"914 461 LINE",
"914 675 LINE",
"864 675 LINE",
"856 660 OFFCURVE",
"842 650 OFFCURVE",
"802 650 CURVE SMOOTH",
"732 650 OFFCURVE",
"670 684 OFFCURVE",
"506 684 CURVE SMOOTH"
);
}
);
width = 1100;
}
);
unicode = 0053;
userData = {
com.typemytype.robofont.layerData = {
background = {
anchors = (
);
components = (
);
contours = (
);
lib = {
};
name = S;
unicodes = (
);
width = 550;
};
};
};
},
{
glyphname = T;
lastChange = "2019-11-10 16:30:32 +0000";
layers = (
{
background = {
paths = (
{
closed = 1;
nodes = (
"15 440 LINE",
"32 440 LINE",
"38 572 OFFCURVE",
"65 640 OFFCURVE",
"105 640 CURVE SMOOTH",
"115 640 LINE",
"115 68 LINE SMOOTH",
"115 44 OFFCURVE",
"110 30 OFFCURVE",
"97 30 CURVE SMOOTH",
"68 30 LINE",
"68 0 LINE",
"215 0 LINE",
"215 30 LINE",
"186 30 LINE SMOOTH",
"173 30 OFFCURVE",
"168 44 OFFCURVE",
"168 68 CURVE SMOOTH",
"168 640 LINE",
"178 640 LINE SMOOTH",
"218 640 OFFCURVE",
"245 572 OFFCURVE",
"251 440 CURVE",
"268 440 LINE",
"268 670 LINE",
"15 670 LINE"
);
}
);
};
color = 4;
layerId = "ADE64B87-3839-4AD4-BD35-A3CFF79840FC";
paths = (
{
closed = 1;
nodes = (
"212 0 LINE",
"212 24 LINE",
"171 24 LINE SMOOTH",
"159 24 OFFCURVE",
"156 30 OFFCURVE",
"156 40 CURVE SMOOTH",
"156 648 LINE",
"177 648 LINE SMOOTH",
"233 648 OFFCURVE",
"239 614 OFFCURVE",
"244 440 CURVE",
"266 440 LINE",
"264 670 LINE",
"16 670 LINE",
"14 440 LINE",
"36 440 LINE",
"41 614 OFFCURVE",
"47 648 OFFCURVE",
"103 648 CURVE SMOOTH",
"124 648 LINE",
"124 40 LINE SMOOTH",
"124 30 OFFCURVE",
"121 24 OFFCURVE",
"108 24 CURVE SMOOTH",
"67 24 LINE",
"67 0 LINE"
);
}
);
width = 280;
},
{
layerId = "484F8FD9-52EC-47CF-91D8-DA5450121283";
paths = (
{
closed = 1;
nodes = (
"430 0 LINE",
"430 30 LINE",
"372 30 LINE SMOOTH",
"345 30 OFFCURVE",
"335 44 OFFCURVE",
"335 68 CURVE SMOOTH",
"335 640 LINE",
"355 640 LINE SMOOTH",
"436 640 OFFCURVE",
"489 572 OFFCURVE",
"501 440 CURVE",
"535 440 LINE",
"535 670 LINE",
"30 670 LINE",
"30 440 LINE",
"64 440 LINE",
"76 572 OFFCURVE",
"129 640 OFFCURVE",
"210 640 CURVE SMOOTH",
"230 640 LINE",
"230 68 LINE SMOOTH",
"230 44 OFFCURVE",
"220 30 OFFCURVE",
"193 30 CURVE SMOOTH",
"135 30 LINE",
"135 0 LINE"
);
}
);
width = 565;
},
{
layerId = "28D540C6-4B1C-4739-9DB3-C8E6E4DDF73A";
paths = (
{
closed = 1;
nodes = (
"860 0 LINE",
"860 30 LINE",
"744 30 LINE SMOOTH",
"690 30 OFFCURVE",
"670 44 OFFCURVE",
"670 68 CURVE SMOOTH",
"670 640 LINE",
"710 640 LINE SMOOTH",
"872 640 OFFCURVE",
"978 572 OFFCURVE",
"1002 440 CURVE",
"1070 440 LINE",
"1070 670 LINE",
"60 670 LINE",
"60 440 LINE",
"128 440 LINE",
"152 572 OFFCURVE",
"258 640 OFFCURVE",
"420 640 CURVE SMOOTH",
"460 640 LINE",
"460 68 LINE SMOOTH",
"460 44 OFFCURVE",
"440 30 OFFCURVE",
"386 30 CURVE SMOOTH",
"270 30 LINE",
"270 0 LINE"
);
}
);
width = 1130;
}
);
leftKerningGroup = T;
rightKerningGroup = T;
unicode = 0054;
userData = {
com.typemytype.robofont.layerData = {
background = {
anchors = (
);
components = (
);
contours = (
);
lib = {
};
name = E;
unicodes = (
);
width = 565;
};
};
com.typemytype.robofont.mark = (
0.9366,
0.9212,
0.4821,
1
);
};
},
{
glyphname = U;
lastChange = "2018-07-13 09:52:20 +0000";
layers = (
{
anchors = (
{
name = bottom;
position = "{161, 0}";
},
{
name = ogonek;
position = "{289, 10}";
},
{
name = top;
position = "{168, 670}";
},
{
name = topright;
position = "{311, 670}";
}
);
layerId = "ADE64B87-3839-4AD4-BD35-A3CFF79840FC";
paths = (
{
closed = 1;
nodes = (
"100 602 LINE SMOOTH",
"100 626 OFFCURVE",
"105 640 OFFCURVE",
"120 640 CURVE SMOOTH",
"148 640 LINE",
"148 670 LINE",
"0 670 LINE",
"0 640 LINE",
"29 640 LINE SMOOTH",
"43 640 OFFCURVE",
"48 626 OFFCURVE",
"48 602 CURVE SMOOTH",
"48 216 LINE SMOOTH",
"48 48 OFFCURVE",
"97 -18 OFFCURVE",
"165 -18 CURVE SMOOTH",
"223 -18 OFFCURVE",
"266 60 OFFCURVE",
"266 198 CURVE SMOOTH",
"266 490 LINE SMOOTH",
"266 577 OFFCURVE",
"283 640 OFFCURVE",
"318 640 CURVE SMOOTH",
"323 640 LINE",
"323 670 LINE",
"191 670 LINE",
"191 640 LINE",
"196 640 LINE SMOOTH",
"231 640 OFFCURVE",
"248 577 OFFCURVE",
"248 490 CURVE SMOOTH",
"248 200 LINE SMOOTH",
"248 96 OFFCURVE",
"218 33 OFFCURVE",
"174 33 CURVE SMOOTH",
"133 33 OFFCURVE",
"100 79 OFFCURVE",
"100 194 CURVE SMOOTH"
);
}
);
width = 321;
},
{
anchors = (
{
name = bottom;
position = "{321, 0}";
},
{
name = ogonek;
position = "{577, 10}";
},
{
name = top;
position = "{335, 670}";
},
{
name = topright;
position = "{621, 670}";
}
);
layerId = "484F8FD9-52EC-47CF-91D8-DA5450121283";
paths = (
{
closed = 1;
nodes = (
"200 602 LINE SMOOTH",
"200 626 OFFCURVE",
"210 640 OFFCURVE",
"240 640 CURVE SMOOTH",
"295 640 LINE",
"295 670 LINE",
"0 670 LINE",
"0 640 LINE",
"58 640 LINE SMOOTH",
"85 640 OFFCURVE",
"95 626 OFFCURVE",
"95 602 CURVE SMOOTH",
"95 216 LINE SMOOTH",
"95 48 OFFCURVE",
"194 -18 OFFCURVE",
"330 -18 CURVE SMOOTH",
"446 -18 OFFCURVE",
"531 60 OFFCURVE",
"531 198 CURVE SMOOTH",
"531 490 LINE SMOOTH",
"531 577 OFFCURVE",
"565 640 OFFCURVE",
"636 640 CURVE SMOOTH",
"646 640 LINE",
"646 670 LINE",
"381 670 LINE",
"381 640 LINE",
"391 640 LINE SMOOTH",
"462 640 OFFCURVE",
"496 577 OFFCURVE",
"496 490 CURVE SMOOTH",
"496 200 LINE SMOOTH",
"496 96 OFFCURVE",
"435 33 OFFCURVE",
"347 33 CURVE SMOOTH",
"265 33 OFFCURVE",
"200 79 OFFCURVE",
"200 194 CURVE SMOOTH"
);
}
);
width = 641;
},
{
anchors = (
{
name = bottom;
position = "{642, 0}";
},
{
name = ogonek;
position = "{1154, 10}";
},
{
name = top;
position = "{670, 670}";
},
{
name = topright;
position = "{1242, 670}";
}
);
layerId = "28D540C6-4B1C-4739-9DB3-C8E6E4DDF73A";
paths = (
{
closed = 1;
nodes = (
"400 602 LINE SMOOTH",
"400 626 OFFCURVE",
"420 640 OFFCURVE",
"480 640 CURVE SMOOTH",
"590 640 LINE",
"590 670 LINE",
"0 670 LINE",
"0 640 LINE",
"116 640 LINE SMOOTH",
"170 640 OFFCURVE",
"190 626 OFFCURVE",
"190 602 CURVE SMOOTH",
"190 216 LINE SMOOTH",
"190 48 OFFCURVE",
"388 -18 OFFCURVE",
"660 -18 CURVE SMOOTH",
"892 -18 OFFCURVE",
"1062 60 OFFCURVE",
"1062 198 CURVE SMOOTH",
"1062 490 LINE SMOOTH",
"1062 577 OFFCURVE",
"1130 640 OFFCURVE",
"1272 640 CURVE SMOOTH",
"1292 640 LINE",
"1292 670 LINE",
"762 670 LINE",
"762 640 LINE",
"782 640 LINE SMOOTH",
"924 640 OFFCURVE",
"992 577 OFFCURVE",
"992 490 CURVE SMOOTH",
"992 200 LINE SMOOTH",
"992 96 OFFCURVE",
"870 33 OFFCURVE",
"694 33 CURVE SMOOTH",
"530 33 OFFCURVE",
"400 79 OFFCURVE",
"400 194 CURVE SMOOTH"
);
}
);
width = 1282;
}
);
leftKerningGroup = U;
rightKerningGroup = U;
unicode = 0055;
userData = {
com.typemytype.robofont.layerData = {
background = {
anchors = (
);
components = (
);
contours = (
);
lib = {
};
name = H;
unicodes = (
);
width = 641;
};
};
com.typemytype.robofont.mark = (
0.9366,
0.9212,
0.4821,
1
);
};
},
{
glyphname = V;
lastChange = "2018-07-13 09:52:20 +0000";
layers = (
{
layerId = "ADE64B87-3839-4AD4-BD35-A3CFF79840FC";
paths = (
{
closed = 1;
nodes = (
"186 120 LINE",
"233 444 LINE SMOOTH",
"243 506 OFFCURVE",
"253 556 OFFCURVE",
"264 588 CURVE SMOOTH",
"276 623 OFFCURVE",
"292 640 OFFCURVE",
"308 640 CURVE SMOOTH",
"313 640 LINE",
"313 670 LINE",
"180 670 LINE",
"180 640 LINE",
"185 640 LINE SMOOTH",
"215 640 OFFCURVE",
"225 598 OFFCURVE",
"225 549 CURVE SMOOTH",
"225 518 OFFCURVE",
"221 482 OFFCURVE",
"216 450 CURVE SMOOTH",
"169 120 LINE SMOOTH",
"171 120 LINE",
"93 564 LINE SMOOTH",
"82 620 OFFCURVE",
"88 640 OFFCURVE",
"112 640 CURVE SMOOTH",
"130 640 LINE",
"130 670 LINE",
"-18 670 LINE",
"-18 640 LINE",
"-3 640 LINE SMOOTH",
"21 640 OFFCURVE",
"32 617 OFFCURVE",
"41 569 CURVE SMOOTH",
"121 119 LINE",
"141 0 LINE SMOOTH",
"169 0 LINE"
);
},
{
closed = 1;
nodes = (
"180 106 LINE",
"180 132 LINE",
"160 132 LINE",
"160 106 LINE"
);
}
);
width = 310;
},
{
layerId = "484F8FD9-52EC-47CF-91D8-DA5450121283";
paths = (
{
closed = 1;
nodes = (
"372 120 LINE",
"466 444 LINE SMOOTH",
"486 506 OFFCURVE",
"506 556 OFFCURVE",
"528 588 CURVE SMOOTH",
"552 623 OFFCURVE",
"584 640 OFFCURVE",
"615 640 CURVE SMOOTH",
"625 640 LINE",
"625 670 LINE",
"360 670 LINE",
"360 640 LINE",
"370 640 LINE SMOOTH",
"429 640 OFFCURVE",
"450 598 OFFCURVE",
"450 549 CURVE SMOOTH",
"450 518 OFFCURVE",
"442 482 OFFCURVE",
"432 450 CURVE SMOOTH",
"338 120 LINE SMOOTH",
"342 120 LINE",
"185 564 LINE SMOOTH",
"164 620 OFFCURVE",
"175 640 OFFCURVE",
"223 640 CURVE SMOOTH",
"260 640 LINE",
"260 670 LINE",
"-35 670 LINE",
"-35 640 LINE",
"-5 640 LINE SMOOTH",
"41 640 OFFCURVE",
"64 617 OFFCURVE",
"82 569 CURVE SMOOTH",
"241 119 LINE",
"282 0 LINE SMOOTH",
"338 0 LINE"
);
},
{
closed = 1;
nodes = (
"359 106 LINE",
"359 132 LINE",
"320 132 LINE",
"320 106 LINE"
);
}
);
width = 620;
},
{
layerId = "28D540C6-4B1C-4739-9DB3-C8E6E4DDF73A";
paths = (
{
closed = 1;
nodes = (
"744 120 LINE",
"932 444 LINE SMOOTH",
"972 506 OFFCURVE",
"1012 556 OFFCURVE",
"1056 588 CURVE SMOOTH",
"1104 623 OFFCURVE",
"1168 640 OFFCURVE",
"1230 640 CURVE SMOOTH",
"1250 640 LINE",
"1250 670 LINE",
"720 670 LINE",
"720 640 LINE",
"740 640 LINE SMOOTH",
"858 640 OFFCURVE",
"900 598 OFFCURVE",
"900 549 CURVE SMOOTH",
"900 518 OFFCURVE",
"884 482 OFFCURVE",
"864 450 CURVE SMOOTH",
"676 120 LINE SMOOTH",
"684 120 LINE",
"370 564 LINE SMOOTH",
"328 620 OFFCURVE",
"350 640 OFFCURVE",
"446 640 CURVE SMOOTH",
"520 640 LINE",
"520 670 LINE",
"-70 670 LINE",
"-70 640 LINE",
"-10 640 LINE SMOOTH",
"82 640 OFFCURVE",
"128 617 OFFCURVE",
"164 569 CURVE SMOOTH",
"482 119 LINE",
"564 0 LINE SMOOTH",
"676 0 LINE"
);
},
{
closed = 1;
nodes = (
"718 106 LINE",
"718 132 LINE",
"640 132 LINE",
"640 106 LINE"
);
}
);
width = 1240;
}
);
leftKerningGroup = T;
rightKerningGroup = T;
unicode = 0056;
userData = {
com.typemytype.robofont.layerData = {
background = {
anchors = (
);
components = (
);
contours = (
);
lib = {
};
name = V;
unicodes = (
);
width = 620;
};
};
com.typemytype.robofont.mark = (
0.9366,
0.9212,
0.4821,
1
);
};
},
{
glyphname = W;
lastChange = "2018-07-13 09:52:20 +0000";
layers = (
{
layerId = "ADE64B87-3839-4AD4-BD35-A3CFF79840FC";
paths = (
{
closed = 1;
nodes = (
"155 116 LINE SMOOTH",
"166 116 LINE",
"98 564 LINE SMOOTH",
"91 606 OFFCURVE",
"93 640 OFFCURVE",
"117 640 CURVE SMOOTH",
"135 640 LINE",
"135 670 LINE",
"-13 670 LINE",
"-13 640 LINE",
"3 640 LINE SMOOTH",
"26 640 OFFCURVE",
"38 619 OFFCURVE",
"46 569 CURVE SMOOTH",
"115 116 LINE",
"131 0 LINE SMOOTH",
"157 0 LINE",
"171 116 LINE",
"226 529 LINE SMOOTH",
"212 504 LINE",
"274 116 LINE",
"292 0 LINE",
"317 0 LINE",
"333 116 LINE",
"378 444 LINE SMOOTH",
"388 506 OFFCURVE",
"398 556 OFFCURVE",
"409 588 CURVE SMOOTH",
"421 623 OFFCURVE",
"437 640 OFFCURVE",
"453 640 CURVE SMOOTH",
"458 640 LINE",
"458 670 LINE",
"325 670 LINE",
"325 640 LINE",
"330 640 LINE SMOOTH",
"360 640 OFFCURVE",
"370 598 OFFCURVE",
"370 549 CURVE SMOOTH",
"370 518 OFFCURVE",
"366 482 OFFCURVE",
"361 450 CURVE SMOOTH",
"315 116 LINE SMOOTH",
"325 116 LINE",
"258 532 LINE",
"237 670 LINE",
"226 670 LINE",
"209 529 LINE"
);
},
{
closed = 1;
nodes = (
"170 136 LINE",
"170 162 LINE",
"150 162 LINE",
"150 136 LINE"
);
},
{
closed = 1;
nodes = (
"226 460 LINE",
"226 478 LINE",
"210 478 LINE",
"210 460 LINE"
);
},
{
closed = 1;
nodes = (
"330 130 LINE",
"330 156 LINE",
"310 156 LINE",
"310 130 LINE"
);
}
);
width = 460;
},
{
layerId = "484F8FD9-52EC-47CF-91D8-DA5450121283";
paths = (
{
closed = 1;
nodes = (
"309 116 LINE SMOOTH",
"331 116 LINE",
"195 564 LINE SMOOTH",
"182 606 OFFCURVE",
"185 640 OFFCURVE",
"233 640 CURVE SMOOTH",
"270 640 LINE",
"270 670 LINE",
"-25 670 LINE",
"-25 640 LINE",
"5 640 LINE SMOOTH",
"51 640 OFFCURVE",
"76 619 OFFCURVE",
"92 569 CURVE SMOOTH",
"229 116 LINE",
"262 0 LINE SMOOTH",
"313 0 LINE",
"342 116 LINE",
"451 529 LINE SMOOTH",
"423 504 LINE",
"548 116 LINE",
"583 0 LINE",
"634 0 LINE",
"665 116 LINE",
"756 444 LINE SMOOTH",
"775 506 OFFCURVE",
"796 556 OFFCURVE",
"818 588 CURVE SMOOTH",
"842 623 OFFCURVE",
"874 640 OFFCURVE",
"905 640 CURVE SMOOTH",
"915 640 LINE",
"915 670 LINE",
"650 670 LINE",
"650 640 LINE",
"660 640 LINE SMOOTH",
"719 640 OFFCURVE",
"740 598 OFFCURVE",
"740 549 CURVE SMOOTH",
"740 518 OFFCURVE",
"732 482 OFFCURVE",
"722 450 CURVE SMOOTH",
"630 116 LINE SMOOTH",
"650 116 LINE",
"516 532 LINE",
"474 670 LINE",
"452 670 LINE",
"417 529 LINE"
);
},
{
closed = 1;
nodes = (
"339 136 LINE",
"339 162 LINE",
"300 162 LINE",
"300 136 LINE"
);
},
{
closed = 1;
nodes = (
"451 460 LINE",
"451 478 LINE",
"420 478 LINE",
"420 460 LINE"
);
},
{
closed = 1;
nodes = (
"659 130 LINE",
"659 156 LINE",
"620 156 LINE",
"620 130 LINE"
);
}
);
width = 920;
},
{
layerId = "28D540C6-4B1C-4739-9DB3-C8E6E4DDF73A";
paths = (
{
closed = 1;
nodes = (
"618 116 LINE SMOOTH",
"662 116 LINE",
"390 564 LINE SMOOTH",
"364 606 OFFCURVE",
"370 640 OFFCURVE",
"466 640 CURVE SMOOTH",
"540 640 LINE",
"540 670 LINE",
"-50 670 LINE",
"-50 640 LINE",
"10 640 LINE SMOOTH",
"102 640 OFFCURVE",
"152 619 OFFCURVE",
"184 569 CURVE SMOOTH",
"458 116 LINE",
"524 0 LINE SMOOTH",
"626 0 LINE",
"684 116 LINE",
"902 529 LINE SMOOTH",
"846 504 LINE",
"1096 116 LINE",
"1166 0 LINE",
"1268 0 LINE",
"1330 116 LINE",
"1512 444 LINE SMOOTH",
"1550 506 OFFCURVE",
"1592 556 OFFCURVE",
"1636 588 CURVE SMOOTH",
"1684 623 OFFCURVE",
"1748 640 OFFCURVE",
"1810 640 CURVE SMOOTH",
"1830 640 LINE",
"1830 670 LINE",
"1300 670 LINE",
"1300 640 LINE",
"1320 640 LINE SMOOTH",
"1438 640 OFFCURVE",
"1480 598 OFFCURVE",
"1480 549 CURVE SMOOTH",
"1480 518 OFFCURVE",
"1464 482 OFFCURVE",
"1444 450 CURVE SMOOTH",
"1260 116 LINE SMOOTH",
"1300 116 LINE",
"1032 532 LINE",
"948 670 LINE",
"904 670 LINE",
"834 529 LINE"
);
},
{
closed = 1;
nodes = (
"678 136 LINE",
"678 162 LINE",
"600 162 LINE",
"600 136 LINE"
);
},
{
closed = 1;
nodes = (
"902 460 LINE",
"902 478 LINE",
"840 478 LINE",
"840 460 LINE"
);
},
{
closed = 1;
nodes = (
"1318 130 LINE",
"1318 156 LINE",
"1240 156 LINE",
"1240 130 LINE"
);
}
);
width = 1840;
}
);
leftKerningGroup = T;
rightKerningGroup = T;
unicode = 0057;
userData = {
com.typemytype.robofont.layerData = {
background = {
anchors = (
);
components = (
);
contours = (
);
lib = {
};
name = W;
unicodes = (
);
width = 920;
};
};
com.typemytype.robofont.mark = (
0.9366,
0.9212,
0.4821,
1
);
};
},
{
glyphname = X;
lastChange = "2018-07-13 09:52:20 +0000";
layers = (
{
layerId = "ADE64B87-3839-4AD4-BD35-A3CFF79840FC";
paths = (
{
closed = 1;
nodes = (
"44 68 OFFCURVE",
"21 30 OFFCURVE",
"-10 30 CURVE SMOOTH",
"-15 30 LINE",
"-15 0 LINE",
"120 0 LINE",
"120 30 LINE",
"115 30 LINE SMOOTH",
"78 30 OFFCURVE",
"68 86 OFFCURVE",
"94 161 CURVE SMOOTH",
"215 515 LINE SMOOTH",
"245 602 OFFCURVE",
"272 640 OFFCURVE",
"303 640 CURVE SMOOTH",
"308 640 LINE",
"308 670 LINE",
"173 670 LINE",
"173 640 LINE",
"178 640 LINE SMOOTH",
"197 640 OFFCURVE",
"206 616 OFFCURVE",
"206 580 CURVE SMOOTH",
"206 553 OFFCURVE",
"201 527 OFFCURVE",
"191 496 CURVE SMOOTH",
"75 159 LINE SMOOTH"
);
},
{
closed = 1;
nodes = (
"219 67 OFFCURVE",
"212 30 OFFCURVE",
"183 30 CURVE SMOOTH",
"168 30 LINE",
"168 0 LINE",
"320 0 LINE",
"320 30 LINE",
"310 30 LINE SMOOTH",
"288 30 OFFCURVE",
"279 59 OFFCURVE",
"264 104 CURVE SMOOTH",
"113 579 LINE SMOOTH",
"102 614 OFFCURVE",
"104 640 OFFCURVE",
"122 640 CURVE SMOOTH",
"141 640 LINE",
"141 670 LINE",
"1 670 LINE",
"1 640 LINE",
"13 640 LINE SMOOTH",
"36 640 OFFCURVE",
"45 614 OFFCURVE",
"59 569 CURVE SMOOTH",
"201 122 LINE SMOOTH"
);
}
);
width = 305;
},
{
layerId = "484F8FD9-52EC-47CF-91D8-DA5450121283";
paths = (
{
closed = 1;
nodes = (
"87 68 OFFCURVE",
"42 30 OFFCURVE",
"-20 30 CURVE SMOOTH",
"-30 30 LINE",
"-30 0 LINE",
"240 0 LINE",
"240 30 LINE",
"230 30 LINE SMOOTH",
"155 30 OFFCURVE",
"136 86 OFFCURVE",
"188 161 CURVE SMOOTH",
"430 515 LINE SMOOTH",
"489 602 OFFCURVE",
"543 640 OFFCURVE",
"605 640 CURVE SMOOTH",
"615 640 LINE",
"615 670 LINE",
"345 670 LINE",
"345 640 LINE",
"355 640 LINE SMOOTH",
"394 640 OFFCURVE",
"412 616 OFFCURVE",
"412 580 CURVE SMOOTH",
"412 553 OFFCURVE",
"402 527 OFFCURVE",
"381 496 CURVE SMOOTH",
"150 159 LINE SMOOTH"
);
},
{
closed = 1;
nodes = (
"438 67 OFFCURVE",
"423 30 OFFCURVE",
"365 30 CURVE SMOOTH",
"335 30 LINE",
"335 0 LINE",
"640 0 LINE",
"640 30 LINE",
"620 30 LINE SMOOTH",
"576 30 OFFCURVE",
"557 59 OFFCURVE",
"528 104 CURVE SMOOTH",
"225 579 LINE SMOOTH",
"204 614 OFFCURVE",
"207 640 OFFCURVE",
"244 640 CURVE SMOOTH",
"281 640 LINE",
"281 670 LINE",
"1 670 LINE",
"1 640 LINE",
"25 640 LINE SMOOTH",
"71 640 OFFCURVE",
"89 614 OFFCURVE",
"118 569 CURVE SMOOTH",
"402 122 LINE SMOOTH"
);
}
);
width = 610;
},
{
layerId = "28D540C6-4B1C-4739-9DB3-C8E6E4DDF73A";
paths = (
{
closed = 1;
nodes = (
"174 68 OFFCURVE",
"84 30 OFFCURVE",
"-40 30 CURVE SMOOTH",
"-60 30 LINE",
"-60 0 LINE",
"480 0 LINE",
"480 30 LINE",
"460 30 LINE SMOOTH",
"310 30 OFFCURVE",
"272 86 OFFCURVE",
"376 161 CURVE SMOOTH",
"860 515 LINE SMOOTH",
"978 602 OFFCURVE",
"1086 640 OFFCURVE",
"1210 640 CURVE SMOOTH",
"1230 640 LINE",
"1230 670 LINE",
"690 670 LINE",
"690 640 LINE",
"710 640 LINE SMOOTH",
"788 640 OFFCURVE",
"824 616 OFFCURVE",
"824 580 CURVE SMOOTH",
"824 553 OFFCURVE",
"804 527 OFFCURVE",
"762 496 CURVE SMOOTH",
"300 159 LINE SMOOTH"
);
},
{
closed = 1;
nodes = (
"876 67 OFFCURVE",
"846 30 OFFCURVE",
"730 30 CURVE SMOOTH",
"670 30 LINE",
"670 0 LINE",
"1280 0 LINE",
"1280 30 LINE",
"1240 30 LINE SMOOTH",
"1152 30 OFFCURVE",
"1114 59 OFFCURVE",
"1056 104 CURVE SMOOTH",
"450 579 LINE SMOOTH",
"408 614 OFFCURVE",
"414 640 OFFCURVE",
"488 640 CURVE SMOOTH",
"562 640 LINE",
"562 670 LINE",
"2 670 LINE",
"2 640 LINE",
"50 640 LINE SMOOTH",
"142 640 OFFCURVE",
"178 614 OFFCURVE",
"236 569 CURVE SMOOTH",
"804 122 LINE SMOOTH"
);
}
);
width = 1220;
}
);
unicode = 0058;
userData = {
com.typemytype.robofont.layerData = {
background = {
anchors = (
);
components = (
);
contours = (
);
lib = {
};
name = X;
unicodes = (
);
width = 610;
};
};
com.typemytype.robofont.mark = (
0.9366,
0.9212,
0.4821,
1
);
};
},
{
glyphname = Y;
lastChange = "2018-07-13 09:52:20 +0000";
layers = (
{
layerId = "ADE64B87-3839-4AD4-BD35-A3CFF79840FC";
paths = (
{
closed = 1;
nodes = (
"232 511 LINE SMOOTH",
"262 606 OFFCURVE",
"278 640 OFFCURVE",
"310 640 CURVE SMOOTH",
"315 640 LINE",
"315 670 LINE",
"182 670 LINE",
"182 640 LINE",
"187 640 LINE SMOOTH",
"220 640 OFFCURVE",
"232 570 OFFCURVE",
"214 513 CURVE SMOOTH",
"159 340 LINE SMOOTH",
"173 340 LINE",
"98 571 LINE SMOOTH",
"84 615 OFFCURVE",
"91 640 OFFCURVE",
"110 640 CURVE SMOOTH",
"128 640 LINE",
"128 670 LINE",
"-20 670 LINE",
"-20 640 LINE",
"-8 640 LINE SMOOTH",
"11 640 OFFCURVE",
"21 623 OFFCURVE",
"34 585 CURVE SMOOTH",
"138 276 LINE SMOOTH",
"157 276 LINE"
);
},
{
closed = 1;
nodes = (
"125 68 LINE SMOOTH",
"125 44 OFFCURVE",
"120 30 OFFCURVE",
"107 30 CURVE SMOOTH",
"78 30 LINE",
"78 0 LINE",
"225 0 LINE",
"225 30 LINE",
"198 30 LINE SMOOTH",
"183 30 OFFCURVE",
"178 44 OFFCURVE",
"178 68 CURVE SMOOTH",
"178 353 LINE SMOOTH",
"125 353 LINE"
);
}
);
width = 303;
},
{
layerId = "484F8FD9-52EC-47CF-91D8-DA5450121283";
paths = (
{
closed = 1;
nodes = (
"463 511 LINE SMOOTH",
"523 606 OFFCURVE",
"555 640 OFFCURVE",
"619 640 CURVE SMOOTH",
"629 640 LINE",
"629 670 LINE",
"364 670 LINE",
"364 640 LINE",
"374 640 LINE SMOOTH",
"439 640 OFFCURVE",
"464 570 OFFCURVE",
"428 513 CURVE SMOOTH",
"318 340 LINE SMOOTH",
"345 340 LINE",
"196 571 LINE SMOOTH",
"167 615 OFFCURVE",
"182 640 OFFCURVE",
"219 640 CURVE SMOOTH",
"256 640 LINE",
"256 670 LINE",
"-39 670 LINE",
"-39 640 LINE",
"-16 640 LINE SMOOTH",
"21 640 OFFCURVE",
"42 623 OFFCURVE",
"68 585 CURVE SMOOTH",
"275 276 LINE SMOOTH",
"314 276 LINE"
);
},
{
closed = 1;
nodes = (
"250 68 LINE SMOOTH",
"250 44 OFFCURVE",
"240 30 OFFCURVE",
"213 30 CURVE SMOOTH",
"155 30 LINE",
"155 0 LINE",
"450 0 LINE",
"450 30 LINE",
"395 30 LINE SMOOTH",
"365 30 OFFCURVE",
"355 44 OFFCURVE",
"355 68 CURVE SMOOTH",
"355 353 LINE SMOOTH",
"250 353 LINE"
);
}
);
width = 605;
},
{
layerId = "28D540C6-4B1C-4739-9DB3-C8E6E4DDF73A";
paths = (
{
closed = 1;
nodes = (
"926 511 LINE SMOOTH",
"1046 606 OFFCURVE",
"1110 640 OFFCURVE",
"1238 640 CURVE SMOOTH",
"1258 640 LINE",
"1258 670 LINE",
"728 670 LINE",
"728 640 LINE",
"748 640 LINE SMOOTH",
"878 640 OFFCURVE",
"928 570 OFFCURVE",
"856 513 CURVE SMOOTH",
"636 340 LINE SMOOTH",
"690 340 LINE",
"392 571 LINE SMOOTH",
"334 615 OFFCURVE",
"364 640 OFFCURVE",
"438 640 CURVE SMOOTH",
"512 640 LINE",
"512 670 LINE",
"-78 670 LINE",
"-78 640 LINE",
"-32 640 LINE SMOOTH",
"42 640 OFFCURVE",
"84 623 OFFCURVE",
"136 585 CURVE SMOOTH",
"550 276 LINE SMOOTH",
"628 276 LINE"
);
},
{
closed = 1;
nodes = (
"500 68 LINE SMOOTH",
"500 44 OFFCURVE",
"480 30 OFFCURVE",
"426 30 CURVE SMOOTH",
"310 30 LINE",
"310 0 LINE",
"900 0 LINE",
"900 30 LINE",
"790 30 LINE SMOOTH",
"730 30 OFFCURVE",
"710 44 OFFCURVE",
"710 68 CURVE SMOOTH",
"710 353 LINE SMOOTH",
"500 353 LINE"
);
}
);
width = 1210;
}
);
leftKerningGroup = T;
rightKerningGroup = T;
unicode = 0059;
userData = {
com.typemytype.robofont.layerData = {
background = {
anchors = (
);
components = (
);
contours = (
);
lib = {
};
name = I;
unicodes = (
);
width = 605;
};
};
com.typemytype.robofont.mark = (
0.9366,
0.9212,
0.4821,
1
);
};
},
{
glyphname = Z;
lastChange = "2018-07-13 09:52:20 +0000";
layers = (
{
layerId = "ADE64B87-3839-4AD4-BD35-A3CFF79840FC";
paths = (
{
closed = 1;
nodes = (
"38 430 LINE",
"53 571 OFFCURVE",
"74 640 OFFCURVE",
"140 640 CURVE SMOOTH",
"197 640 LINE",
"194 650 LINE",
"13 20 LINE",
"13 0 LINE",
"247 0 LINE",
"247 245 LINE",
"234 245 LINE",
"217 97 OFFCURVE",
"192 30 OFFCURVE",
"138 30 CURVE SMOOTH",
"69 30 LINE",
"69 20 LINE",
"250 650 LINE",
"250 670 LINE",
"25 670 LINE",
"25 430 LINE"
);
}
);
width = 271;
},
{
layerId = "484F8FD9-52EC-47CF-91D8-DA5450121283";
paths = (
{
closed = 1;
nodes = (
"75 430 LINE",
"105 571 OFFCURVE",
"148 640 OFFCURVE",
"280 640 CURVE SMOOTH",
"393 640 LINE",
"387 650 LINE",
"25 20 LINE",
"25 0 LINE",
"493 0 LINE",
"493 245 LINE",
"468 245 LINE",
"434 97 OFFCURVE",
"384 30 OFFCURVE",
"275 30 CURVE SMOOTH",
"138 30 LINE",
"138 20 LINE",
"500 650 LINE",
"500 670 LINE",
"50 670 LINE",
"50 430 LINE"
);
}
);
width = 541;
},
{
layerId = "28D540C6-4B1C-4739-9DB3-C8E6E4DDF73A";
paths = (
{
closed = 1;
nodes = (
"150 430 LINE",
"210 571 OFFCURVE",
"296 640 OFFCURVE",
"560 640 CURVE SMOOTH",
"786 640 LINE",
"774 650 LINE",
"50 20 LINE",
"50 0 LINE",
"986 0 LINE",
"986 245 LINE",
"936 245 LINE",
"868 97 OFFCURVE",
"768 30 OFFCURVE",
"550 30 CURVE SMOOTH",
"276 30 LINE",
"276 20 LINE",
"1000 650 LINE",
"1000 670 LINE",
"100 670 LINE",
"100 430 LINE"
);
}
);
width = 1082;
}
);
unicode = 005A;
userData = {
com.typemytype.robofont.layerData = {
background = {
anchors = (
);
components = (
);
contours = (
{
points = (
{
segmentType = line;
smooth = 0;
x = 50;
y = 430;
},
{
segmentType = line;
smooth = 0;
x = 50;
y = 670;
},
{
segmentType = line;
smooth = 0;
x = 500;
y = 670;
},
{
segmentType = line;
smooth = 0;
x = 500;
y = 650;
},
{
segmentType = line;
smooth = 0;
x = 138;
y = 20;
},
{
segmentType = line;
smooth = 0;
x = 138;
y = 30;
},
{
segmentType = line;
smooth = 1;
x = 275;
y = 30;
},
{
smooth = 0;
x = 384;
y = 30;
},
{
smooth = 0;
x = 434;
y = 97;
},
{
segmentType = curve;
smooth = 0;
x = 468;
y = 245;
},
{
segmentType = line;
smooth = 0;
x = 493;
y = 245;
},
{
segmentType = line;
smooth = 0;
x = 493;
y = 0;
},
{
segmentType = line;
smooth = 0;
x = 25;
y = 0;
},
{
segmentType = line;
smooth = 0;
x = 25;
y = 20;
},
{
segmentType = line;
smooth = 0;
x = 387;
y = 650;
},
{
segmentType = line;
smooth = 0;
x = 393;
y = 640;
},
{
segmentType = line;
smooth = 1;
x = 280;
y = 640;
},
{
smooth = 0;
x = 148;
y = 640;
},
{
smooth = 0;
x = 105;
y = 571;
},
{
segmentType = curve;
smooth = 0;
x = 75;
y = 430;
}
);
}
);
lib = {
};
name = Z;
unicodes = (
);
width = 541;
};
};
com.typemytype.robofont.mark = (
0.9366,
0.9212,
0.4821,
1
);
};
},
{
export = 0;
glyphname = C.ss01;
lastChange = "2018-07-13 09:52:20 +0000";
layers = (
{
layerId = "ADE64B87-3839-4AD4-BD35-A3CFF79840FC";
paths = (
{
closed = 1;
nodes = (
"236 688 OFFCURVE",
"165 688 CURVE SMOOTH",
"90 688 OFFCURVE",
"25 572 OFFCURVE",
"25 335 CURVE SMOOTH",
"25 98 OFFCURVE",
"90 -18 OFFCURVE",
"170 -18 CURVE SMOOTH",
"230 -18 OFFCURVE",
"269 40 OFFCURVE",
"303 165 CURVE",
"289 180 LINE",
"258 74 OFFCURVE",
"226 22 OFFCURVE",
"185 22 CURVE SMOOTH",
"110 22 OFFCURVE",
"83 131 OFFCURVE",
"83 335 CURVE SMOOTH",
"83 546 OFFCURVE",
"105 657 OFFCURVE",
"164 657 CURVE SMOOTH",
"185 657 OFFCURVE",
"200 640 OFFCURVE",
"200 613 CURVE SMOOTH",
"200 586 OFFCURVE",
"192 582 OFFCURVE",
"192 547 CURVE SMOOTH",
"192 508 OFFCURVE",
"205 482 OFFCURVE",
"226 482 CURVE SMOOTH",
"247 482 OFFCURVE",
"263 513 OFFCURVE",
"263 560 CURVE SMOOTH",
"263 622 OFFCURVE"
);
}
);
width = 293;
},
{
layerId = "484F8FD9-52EC-47CF-91D8-DA5450121283";
paths = (
{
closed = 1;
nodes = (
"471 688 OFFCURVE",
"329 688 CURVE SMOOTH",
"180 688 OFFCURVE",
"50 572 OFFCURVE",
"50 335 CURVE SMOOTH",
"50 98 OFFCURVE",
"180 -18 OFFCURVE",
"340 -18 CURVE SMOOTH",
"460 -18 OFFCURVE",
"537 40 OFFCURVE",
"606 165 CURVE",
"578 180 LINE",
"515 74 OFFCURVE",
"452 22 OFFCURVE",
"369 22 CURVE SMOOTH",
"219 22 OFFCURVE",
"165 131 OFFCURVE",
"165 335 CURVE SMOOTH",
"165 546 OFFCURVE",
"209 657 OFFCURVE",
"328 657 CURVE SMOOTH",
"370 657 OFFCURVE",
"399 640 OFFCURVE",
"399 613 CURVE SMOOTH",
"399 586 OFFCURVE",
"383 582 OFFCURVE",
"383 547 CURVE SMOOTH",
"383 508 OFFCURVE",
"410 482 OFFCURVE",
"452 482 CURVE SMOOTH",
"493 482 OFFCURVE",
"525 513 OFFCURVE",
"525 560 CURVE SMOOTH",
"525 622 OFFCURVE"
);
}
);
width = 586;
},
{
layerId = "28D540C6-4B1C-4739-9DB3-C8E6E4DDF73A";
paths = (
{
closed = 1;
nodes = (
"942 688 OFFCURVE",
"658 688 CURVE SMOOTH",
"360 688 OFFCURVE",
"100 572 OFFCURVE",
"100 335 CURVE SMOOTH",
"100 98 OFFCURVE",
"360 -18 OFFCURVE",
"680 -18 CURVE SMOOTH",
"920 -18 OFFCURVE",
"1074 40 OFFCURVE",
"1212 165 CURVE",
"1156 180 LINE",
"1030 74 OFFCURVE",
"904 22 OFFCURVE",
"738 22 CURVE SMOOTH",
"438 22 OFFCURVE",
"330 131 OFFCURVE",
"330 335 CURVE SMOOTH",
"330 546 OFFCURVE",
"418 657 OFFCURVE",
"656 657 CURVE SMOOTH",
"740 657 OFFCURVE",
"798 640 OFFCURVE",
"798 613 CURVE SMOOTH",
"798 586 OFFCURVE",
"766 582 OFFCURVE",
"766 547 CURVE SMOOTH",
"766 508 OFFCURVE",
"820 482 OFFCURVE",
"904 482 CURVE SMOOTH",
"986 482 OFFCURVE",
"1050 513 OFFCURVE",
"1050 560 CURVE SMOOTH",
"1050 622 OFFCURVE"
);
}
);
width = 1172;
}
);
leftKerningGroup = C;
userData = {
com.typemytype.robofont.layerData = {
background = {
anchors = (
);
components = (
);
contours = (
);
lib = {
};
name = C;
unicodes = (
);
width = 586;
};
};
com.typemytype.robofont.mark = (
0.4827,
0.8546,
0.4678,
1
);
};
},
{
export = 0;
glyphname = G.ss01;
lastChange = "2018-07-13 09:52:20 +0000";
layers = (
{
layerId = "ADE64B87-3839-4AD4-BD35-A3CFF79840FC";
paths = (
{
closed = 1;
nodes = (
"194 657 OFFCURVE",
"212 633 OFFCURVE",
"212 594 CURVE SMOOTH",
"212 577 OFFCURVE",
"210 566 OFFCURVE",
"210 547 CURVE SMOOTH",
"210 510 OFFCURVE",
"223 486 OFFCURVE",
"242 486 CURVE SMOOTH",
"261 486 OFFCURVE",
"275 515 OFFCURVE",
"275 560 CURVE SMOOTH",
"275 622 OFFCURVE",
"245 688 OFFCURVE",
"168 688 CURVE SMOOTH",
"86 688 OFFCURVE",
"25 576 OFFCURVE",
"25 335 CURVE SMOOTH",
"25 94 OFFCURVE",
"90 -18 OFFCURVE",
"166 -18 CURVE SMOOTH",
"236 -18 OFFCURVE",
"278 74 OFFCURVE",
"281 212 CURVE SMOOTH",
"282 260 LINE SMOOTH",
"283 305 OFFCURVE",
"291 325 OFFCURVE",
"309 325 CURVE SMOOTH",
"327 325 LINE",
"327 355 LINE",
"184 355 LINE",
"184 325 LINE",
"202 325 LINE SMOOTH",
"220 325 OFFCURVE",
"229 305 OFFCURVE",
"229 261 CURVE SMOOTH",
"229 217 LINE SMOOTH",
"229 76 OFFCURVE",
"205 15 OFFCURVE",
"166 15 CURVE SMOOTH",
"112 15 OFFCURVE",
"83 126 OFFCURVE",
"83 335 CURVE SMOOTH",
"83 546 OFFCURVE",
"114 657 OFFCURVE",
"167 657 CURVE SMOOTH"
);
}
);
width = 329;
},
{
layerId = "484F8FD9-52EC-47CF-91D8-DA5450121283";
paths = (
{
closed = 1;
nodes = (
"387 657 OFFCURVE",
"424 633 OFFCURVE",
"424 594 CURVE SMOOTH",
"424 577 OFFCURVE",
"420 566 OFFCURVE",
"420 547 CURVE SMOOTH",
"420 510 OFFCURVE",
"445 486 OFFCURVE",
"484 486 CURVE SMOOTH",
"521 486 OFFCURVE",
"550 515 OFFCURVE",
"550 560 CURVE SMOOTH",
"550 622 OFFCURVE",
"489 688 OFFCURVE",
"336 688 CURVE SMOOTH",
"172 688 OFFCURVE",
"50 576 OFFCURVE",
"50 335 CURVE SMOOTH",
"50 94 OFFCURVE",
"180 -18 OFFCURVE",
"331 -18 CURVE SMOOTH",
"472 -18 OFFCURVE",
"555 74 OFFCURVE",
"561 212 CURVE SMOOTH",
"563 260 LINE SMOOTH",
"565 305 OFFCURVE",
"581 325 OFFCURVE",
"617 325 CURVE SMOOTH",
"653 325 LINE",
"653 355 LINE",
"368 355 LINE",
"368 325 LINE",
"404 325 LINE SMOOTH",
"440 325 OFFCURVE",
"458 305 OFFCURVE",
"458 261 CURVE SMOOTH",
"458 217 LINE SMOOTH",
"458 76 OFFCURVE",
"409 15 OFFCURVE",
"332 15 CURVE SMOOTH",
"224 15 OFFCURVE",
"165 126 OFFCURVE",
"165 335 CURVE SMOOTH",
"165 546 OFFCURVE",
"227 657 OFFCURVE",
"334 657 CURVE SMOOTH"
);
}
);
width = 658;
},
{
layerId = "28D540C6-4B1C-4739-9DB3-C8E6E4DDF73A";
paths = (
{
closed = 1;
nodes = (
"774 657 OFFCURVE",
"848 633 OFFCURVE",
"848 594 CURVE SMOOTH",
"848 577 OFFCURVE",
"840 566 OFFCURVE",
"840 547 CURVE SMOOTH",
"840 510 OFFCURVE",
"890 486 OFFCURVE",
"968 486 CURVE SMOOTH",
"1042 486 OFFCURVE",
"1100 515 OFFCURVE",
"1100 560 CURVE SMOOTH",
"1100 622 OFFCURVE",
"978 688 OFFCURVE",
"672 688 CURVE SMOOTH",
"344 688 OFFCURVE",
"100 576 OFFCURVE",
"100 335 CURVE SMOOTH",
"100 94 OFFCURVE",
"360 -18 OFFCURVE",
"662 -18 CURVE SMOOTH",
"944 -18 OFFCURVE",
"1110 74 OFFCURVE",
"1122 212 CURVE SMOOTH",
"1126 260 LINE SMOOTH",
"1130 305 OFFCURVE",
"1162 325 OFFCURVE",
"1234 325 CURVE SMOOTH",
"1306 325 LINE",
"1306 355 LINE",
"736 355 LINE",
"736 325 LINE",
"808 325 LINE SMOOTH",
"880 325 OFFCURVE",
"916 305 OFFCURVE",
"916 261 CURVE SMOOTH",
"916 217 LINE SMOOTH",
"916 76 OFFCURVE",
"818 15 OFFCURVE",
"664 15 CURVE SMOOTH",
"448 15 OFFCURVE",
"330 126 OFFCURVE",
"330 335 CURVE SMOOTH",
"330 546 OFFCURVE",
"454 657 OFFCURVE",
"668 657 CURVE SMOOTH"
);
}
);
width = 1316;
}
);
leftKerningGroup = C;
userData = {
com.typemytype.robofont.layerData = {
background = {
anchors = (
);
components = (
);
contours = (
);
lib = {
};
name = C;
unicodes = (
);
width = 658;
};
};
com.typemytype.robofont.mark = (
0.9366,
0.9212,
0.4821,
1
);
};
},
{
export = 0;
glyphname = K.ss01;
lastChange = "2018-07-13 09:52:20 +0000";
layers = (
{
layerId = "ADE64B87-3839-4AD4-BD35-A3CFF79840FC";
paths = (
{
closed = 1;
nodes = (
"173 368 LINE",
"169 385 LINE",
"139 359 LINE",
"144 340 LINE"
);
},
{
closed = 1;
nodes = (
"216 592 OFFCURVE",
"224 610 OFFCURVE",
"235 610 CURVE SMOOTH",
"240 610 OFFCURVE",
"246 604 OFFCURVE",
"246 590 CURVE SMOOTH",
"246 585 OFFCURVE",
"245 573 OFFCURVE",
"245 566 CURVE SMOOTH",
"245 531 OFFCURVE",
"257 514 OFFCURVE",
"275 514 CURVE SMOOTH",
"295 514 OFFCURVE",
"310 545 OFFCURVE",
"310 585 CURVE SMOOTH",
"310 642 OFFCURVE",
"288 680 OFFCURVE",
"261 680 CURVE SMOOTH",
"230 680 OFFCURVE",
"204 640 OFFCURVE",
"189 536 CURVE SMOOTH",
"177 455 OFFCURVE",
"167 396 OFFCURVE",
"136 363 CURVE SMOOTH",
"116 341 OFFCURVE",
"105 324 OFFCURVE",
"97 293 CURVE",
"103 293 LINE",
"103 602 LINE SMOOTH",
"103 626 OFFCURVE",
"108 640 OFFCURVE",
"123 640 CURVE SMOOTH",
"150 640 LINE",
"150 670 LINE",
"3 670 LINE",
"3 640 LINE",
"32 640 LINE SMOOTH",
"45 640 OFFCURVE",
"50 626 OFFCURVE",
"50 602 CURVE SMOOTH",
"50 68 LINE SMOOTH",
"50 44 OFFCURVE",
"45 30 OFFCURVE",
"32 30 CURVE SMOOTH",
"3 30 LINE",
"3 0 LINE",
"150 0 LINE",
"150 30 LINE",
"123 30 LINE SMOOTH",
"108 30 OFFCURVE",
"103 44 OFFCURVE",
"103 68 CURVE SMOOTH",
"103 212 LINE SMOOTH",
"103 284 OFFCURVE",
"125 333 OFFCURVE",
"156 333 CURVE SMOOTH",
"190 333 OFFCURVE",
"198 280 OFFCURVE",
"198 231 CURVE SMOOTH",
"198 122 LINE SMOOTH",
"198 47 OFFCURVE",
"214 -12 OFFCURVE",
"272 -12 CURVE SMOOTH",
"325 -12 OFFCURVE",
"360 47 OFFCURVE",
"379 187 CURVE",
"363 194 LINE",
"350 99 OFFCURVE",
"325 36 OFFCURVE",
"293 36 CURVE SMOOTH",
"265 36 OFFCURVE",
"252 73 OFFCURVE",
"252 138 CURVE SMOOTH",
"252 241 LINE SMOOTH",
"252 333 OFFCURVE",
"224 376 OFFCURVE",
"183 376 CURVE SMOOTH",
"171 376 OFFCURVE",
"155 369 OFFCURVE",
"146 358 CURVE",
"149 348 LINE",
"179 373 OFFCURVE",
"192 439 OFFCURVE",
"205 523 CURVE SMOOTH"
);
}
);
width = 336;
},
{
layerId = "484F8FD9-52EC-47CF-91D8-DA5450121283";
paths = (
{
closed = 1;
nodes = (
"345 368 LINE",
"337 385 LINE",
"278 359 LINE",
"287 340 LINE"
);
},
{
closed = 1;
nodes = (
"432 592 OFFCURVE",
"448 610 OFFCURVE",
"469 610 CURVE SMOOTH",
"479 610 OFFCURVE",
"491 604 OFFCURVE",
"491 590 CURVE SMOOTH",
"491 585 OFFCURVE",
"489 573 OFFCURVE",
"489 566 CURVE SMOOTH",
"489 531 OFFCURVE",
"514 514 OFFCURVE",
"549 514 CURVE SMOOTH",
"590 514 OFFCURVE",
"619 545 OFFCURVE",
"619 585 CURVE SMOOTH",
"619 642 OFFCURVE",
"576 680 OFFCURVE",
"521 680 CURVE SMOOTH",
"459 680 OFFCURVE",
"408 640 OFFCURVE",
"377 536 CURVE SMOOTH",
"353 455 OFFCURVE",
"334 396 OFFCURVE",
"272 363 CURVE SMOOTH",
"231 341 OFFCURVE",
"210 324 OFFCURVE",
"193 293 CURVE",
"205 293 LINE",
"205 602 LINE SMOOTH",
"205 626 OFFCURVE",
"215 640 OFFCURVE",
"245 640 CURVE SMOOTH",
"300 640 LINE",
"300 670 LINE",
"5 670 LINE",
"5 640 LINE",
"63 640 LINE SMOOTH",
"90 640 OFFCURVE",
"100 626 OFFCURVE",
"100 602 CURVE SMOOTH",
"100 68 LINE SMOOTH",
"100 44 OFFCURVE",
"90 30 OFFCURVE",
"63 30 CURVE SMOOTH",
"5 30 LINE",
"5 0 LINE",
"300 0 LINE",
"300 30 LINE",
"245 30 LINE SMOOTH",
"215 30 OFFCURVE",
"205 44 OFFCURVE",
"205 68 CURVE SMOOTH",
"205 212 LINE SMOOTH",
"205 284 OFFCURVE",
"250 333 OFFCURVE",
"312 333 CURVE SMOOTH",
"379 333 OFFCURVE",
"396 280 OFFCURVE",
"396 231 CURVE SMOOTH",
"396 122 LINE SMOOTH",
"396 47 OFFCURVE",
"427 -12 OFFCURVE",
"543 -12 CURVE SMOOTH",
"649 -12 OFFCURVE",
"720 47 OFFCURVE",
"757 187 CURVE",
"726 194 LINE",
"700 99 OFFCURVE",
"649 36 OFFCURVE",
"586 36 CURVE SMOOTH",
"530 36 OFFCURVE",
"504 73 OFFCURVE",
"504 138 CURVE SMOOTH",
"504 241 LINE SMOOTH",
"504 333 OFFCURVE",
"447 376 OFFCURVE",
"365 376 CURVE SMOOTH",
"341 376 OFFCURVE",
"309 369 OFFCURVE",
"291 358 CURVE",
"298 348 LINE",
"357 373 OFFCURVE",
"383 439 OFFCURVE",
"410 523 CURVE SMOOTH"
);
}
);
width = 672;
},
{
layerId = "28D540C6-4B1C-4739-9DB3-C8E6E4DDF73A";
paths = (
{
closed = 1;
nodes = (
"690 368 LINE",
"674 385 LINE",
"556 359 LINE",
"574 340 LINE"
);
},
{
closed = 1;
nodes = (
"864 592 OFFCURVE",
"896 610 OFFCURVE",
"938 610 CURVE SMOOTH",
"958 610 OFFCURVE",
"982 604 OFFCURVE",
"982 590 CURVE SMOOTH",
"982 585 OFFCURVE",
"978 573 OFFCURVE",
"978 566 CURVE SMOOTH",
"978 531 OFFCURVE",
"1028 514 OFFCURVE",
"1098 514 CURVE SMOOTH",
"1180 514 OFFCURVE",
"1238 545 OFFCURVE",
"1238 585 CURVE SMOOTH",
"1238 642 OFFCURVE",
"1152 680 OFFCURVE",
"1042 680 CURVE SMOOTH",
"918 680 OFFCURVE",
"816 640 OFFCURVE",
"754 536 CURVE SMOOTH",
"706 455 OFFCURVE",
"668 396 OFFCURVE",
"544 363 CURVE SMOOTH",
"462 341 OFFCURVE",
"420 324 OFFCURVE",
"386 293 CURVE",
"410 293 LINE",
"410 602 LINE SMOOTH",
"410 626 OFFCURVE",
"430 640 OFFCURVE",
"490 640 CURVE SMOOTH",
"600 640 LINE",
"600 670 LINE",
"10 670 LINE",
"10 640 LINE",
"126 640 LINE SMOOTH",
"180 640 OFFCURVE",
"200 626 OFFCURVE",
"200 602 CURVE SMOOTH",
"200 68 LINE SMOOTH",
"200 44 OFFCURVE",
"180 30 OFFCURVE",
"126 30 CURVE SMOOTH",
"10 30 LINE",
"10 0 LINE",
"600 0 LINE",
"600 30 LINE",
"490 30 LINE SMOOTH",
"430 30 OFFCURVE",
"410 44 OFFCURVE",
"410 68 CURVE SMOOTH",
"410 212 LINE SMOOTH",
"410 284 OFFCURVE",
"500 333 OFFCURVE",
"624 333 CURVE SMOOTH",
"758 333 OFFCURVE",
"792 280 OFFCURVE",
"792 231 CURVE SMOOTH",
"792 122 LINE SMOOTH",
"792 47 OFFCURVE",
"854 -12 OFFCURVE",
"1086 -12 CURVE SMOOTH",
"1298 -12 OFFCURVE",
"1440 47 OFFCURVE",
"1514 187 CURVE",
"1452 194 LINE",
"1400 99 OFFCURVE",
"1298 36 OFFCURVE",
"1172 36 CURVE SMOOTH",
"1060 36 OFFCURVE",
"1008 73 OFFCURVE",
"1008 138 CURVE SMOOTH",
"1008 241 LINE SMOOTH",
"1008 333 OFFCURVE",
"894 376 OFFCURVE",
"730 376 CURVE SMOOTH",
"682 376 OFFCURVE",
"618 369 OFFCURVE",
"582 358 CURVE",
"596 348 LINE",
"714 373 OFFCURVE",
"766 439 OFFCURVE",
"820 523 CURVE SMOOTH"
);
}
);
width = 1344;
}
);
leftKerningGroup = B;
rightKerningGroup = K;
userData = {
com.typemytype.robofont.layerData = {
background = {
anchors = (
);
components = (
);
contours = (
);
lib = {
};
name = K;
unicodes = (
);
width = 672;
};
};
com.typemytype.robofont.mark = (
0.4827,
0.8546,
0.4678,
1
);
};
},
{
export = 0;
glyphname = R.ss01;
lastChange = "2018-07-13 09:52:20 +0000";
layers = (
{
layerId = "ADE64B87-3839-4AD4-BD35-A3CFF79840FC";
paths = (
{
closed = 1;
nodes = (
"195 334 LINE",
"195 358 LINE",
"154 358 LINE",
"154 334 LINE"
);
},
{
closed = 1;
nodes = (
"240 340 OFFCURVE",
"274 413 OFFCURVE",
"274 505 CURVE SMOOTH",
"274 599 OFFCURVE",
"238 670 OFFCURVE",
"156 670 CURVE SMOOTH",
"3 670 LINE",
"3 640 LINE",
"32 640 LINE SMOOTH",
"45 640 OFFCURVE",
"50 626 OFFCURVE",
"50 602 CURVE SMOOTH",
"50 68 LINE SMOOTH",
"50 44 OFFCURVE",
"45 30 OFFCURVE",
"32 30 CURVE SMOOTH",
"3 30 LINE",
"3 0 LINE",
"150 0 LINE",
"150 30 LINE",
"121 30 LINE SMOOTH",
"108 30 OFFCURVE",
"103 44 OFFCURVE",
"103 68 CURVE SMOOTH",
"103 640 LINE",
"152 640 LINE SMOOTH",
"193 640 OFFCURVE",
"219 596 OFFCURVE",
"219 505 CURVE SMOOTH",
"219 410 OFFCURVE",
"197 360 OFFCURVE",
"152 360 CURVE SMOOTH",
"83 360 LINE",
"83 330 LINE",
"152 330 LINE SMOOTH",
"191 330 OFFCURVE",
"202 297 OFFCURVE",
"204 224 CURVE SMOOTH",
"206 135 LINE SMOOTH",
"208 11 OFFCURVE",
"237 -14 OFFCURVE",
"275 -14 CURVE SMOOTH",
"322 -14 OFFCURVE",
"339 37 OFFCURVE",
"362 112 CURVE",
"349 128 LINE",
"328 61 OFFCURVE",
"314 32 OFFCURVE",
"294 32 CURVE SMOOTH",
"273 32 OFFCURVE",
"265 59 OFFCURVE",
"262 125 CURVE SMOOTH",
"258 222 LINE SMOOTH",
"254 312 OFFCURVE",
"227 336 OFFCURVE",
"158 356 CURVE",
"156 340 LINE"
);
}
);
width = 324;
},
{
layerId = "484F8FD9-52EC-47CF-91D8-DA5450121283";
paths = (
{
closed = 1;
nodes = (
"390 334 LINE",
"390 358 LINE",
"307 358 LINE",
"307 334 LINE"
);
},
{
closed = 1;
nodes = (
"479 340 OFFCURVE",
"547 413 OFFCURVE",
"547 505 CURVE SMOOTH",
"547 599 OFFCURVE",
"476 670 OFFCURVE",
"312 670 CURVE SMOOTH",
"5 670 LINE",
"5 640 LINE",
"63 640 LINE SMOOTH",
"90 640 OFFCURVE",
"100 626 OFFCURVE",
"100 602 CURVE SMOOTH",
"100 68 LINE SMOOTH",
"100 44 OFFCURVE",
"90 30 OFFCURVE",
"63 30 CURVE SMOOTH",
"5 30 LINE",
"5 0 LINE",
"300 0 LINE",
"300 30 LINE",
"242 30 LINE SMOOTH",
"215 30 OFFCURVE",
"205 44 OFFCURVE",
"205 68 CURVE SMOOTH",
"205 640 LINE",
"303 640 LINE SMOOTH",
"385 640 OFFCURVE",
"437 596 OFFCURVE",
"437 505 CURVE SMOOTH",
"437 410 OFFCURVE",
"393 360 OFFCURVE",
"303 360 CURVE SMOOTH",
"166 360 LINE",
"166 330 LINE",
"303 330 LINE SMOOTH",
"381 330 OFFCURVE",
"404 297 OFFCURVE",
"407 224 CURVE SMOOTH",
"411 135 LINE SMOOTH",
"416 11 OFFCURVE",
"474 -14 OFFCURVE",
"550 -14 CURVE SMOOTH",
"643 -14 OFFCURVE",
"678 37 OFFCURVE",
"724 112 CURVE",
"697 128 LINE",
"655 61 OFFCURVE",
"627 32 OFFCURVE",
"588 32 CURVE SMOOTH",
"546 32 OFFCURVE",
"530 59 OFFCURVE",
"524 125 CURVE SMOOTH",
"515 222 LINE SMOOTH",
"507 312 OFFCURVE",
"453 336 OFFCURVE",
"315 356 CURVE",
"312 340 LINE"
);
}
);
width = 648;
},
{
layerId = "28D540C6-4B1C-4739-9DB3-C8E6E4DDF73A";
paths = (
{
closed = 1;
nodes = (
"780 334 LINE",
"780 358 LINE",
"614 358 LINE",
"614 334 LINE"
);
},
{
closed = 1;
nodes = (
"958 340 OFFCURVE",
"1094 413 OFFCURVE",
"1094 505 CURVE SMOOTH",
"1094 599 OFFCURVE",
"952 670 OFFCURVE",
"624 670 CURVE SMOOTH",
"10 670 LINE",
"10 640 LINE",
"126 640 LINE SMOOTH",
"180 640 OFFCURVE",
"200 626 OFFCURVE",
"200 602 CURVE SMOOTH",
"200 68 LINE SMOOTH",
"200 44 OFFCURVE",
"180 30 OFFCURVE",
"126 30 CURVE SMOOTH",
"10 30 LINE",
"10 0 LINE",
"600 0 LINE",
"600 30 LINE",
"484 30 LINE SMOOTH",
"430 30 OFFCURVE",
"410 44 OFFCURVE",
"410 68 CURVE SMOOTH",
"410 640 LINE",
"606 640 LINE SMOOTH",
"770 640 OFFCURVE",
"874 596 OFFCURVE",
"874 505 CURVE SMOOTH",
"874 410 OFFCURVE",
"786 360 OFFCURVE",
"606 360 CURVE SMOOTH",
"332 360 LINE",
"332 330 LINE",
"606 330 LINE SMOOTH",
"762 330 OFFCURVE",
"808 297 OFFCURVE",
"814 224 CURVE SMOOTH",
"822 135 LINE SMOOTH",
"832 11 OFFCURVE",
"948 -14 OFFCURVE",
"1100 -14 CURVE SMOOTH",
"1286 -14 OFFCURVE",
"1356 37 OFFCURVE",
"1448 112 CURVE",
"1394 128 LINE",
"1310 61 OFFCURVE",
"1254 32 OFFCURVE",
"1176 32 CURVE SMOOTH",
"1092 32 OFFCURVE",
"1060 59 OFFCURVE",
"1048 125 CURVE SMOOTH",
"1030 222 LINE SMOOTH",
"1014 312 OFFCURVE",
"906 336 OFFCURVE",
"630 356 CURVE",
"624 340 LINE"
);
}
);
width = 1296;
}
);
leftKerningGroup = B;
userData = {
com.typemytype.robofont.layerData = {
background = {
anchors = (
);
components = (
);
contours = (
);
lib = {
};
name = R;
unicodes = (
);
width = 648;
};
};
com.typemytype.robofont.mark = (
0.4827,
0.8546,
0.4678,
1
);
};
},
{
export = 0;
glyphname = S.ss01;
lastChange = "2018-07-13 09:52:20 +0000";
layers = (
{
layerId = "ADE64B87-3839-4AD4-BD35-A3CFF79840FC";
paths = (
{
closed = 1;
nodes = (
"93 182 OFFCURVE",
"79 209 OFFCURVE",
"58 209 CURVE SMOOTH",
"38 209 OFFCURVE",
"23 176 OFFCURVE",
"22 131 CURVE SMOOTH",
"23 48 OFFCURVE",
"66 -18 OFFCURVE",
"132 -18 CURVE SMOOTH",
"214 -18 OFFCURVE",
"254 67 OFFCURVE",
"254 182 CURVE SMOOTH",
"254 258 OFFCURVE",
"235 328 OFFCURVE",
"182 373 CURVE SMOOTH",
"119 427 LINE SMOOTH",
"87 454 OFFCURVE",
"80 491 OFFCURVE",
"80 533 CURVE SMOOTH",
"80 599 OFFCURVE",
"100 646 OFFCURVE",
"139 646 CURVE SMOOTH",
"162 646 OFFCURVE",
"182 633 OFFCURVE",
"182 598 CURVE SMOOTH",
"182 585 OFFCURVE",
"175 571 OFFCURVE",
"176 542 CURVE SMOOTH",
"176 509 OFFCURVE",
"188 477 OFFCURVE",
"211 477 CURVE SMOOTH",
"234 477 OFFCURVE",
"245 515 OFFCURVE",
"245 549 CURVE SMOOTH",
"244 614 OFFCURVE",
"213 682 OFFCURVE",
"139 682 CURVE SMOOTH",
"72 682 OFFCURVE",
"28 607 OFFCURVE",
"28 500 CURVE SMOOTH",
"29 444 OFFCURVE",
"42 379 OFFCURVE",
"87 341 CURVE SMOOTH",
"158 280 LINE SMOOTH",
"193 250 OFFCURVE",
"203 198 OFFCURVE",
"203 151 CURVE SMOOTH",
"203 69 OFFCURVE",
"179 18 OFFCURVE",
"135 18 CURVE SMOOTH",
"114 18 OFFCURVE",
"85 41 OFFCURVE",
"85 76 CURVE SMOOTH",
"85 91 OFFCURVE",
"93 112 OFFCURVE",
"93 143 CURVE SMOOTH"
);
}
);
width = 276;
},
{
layerId = "484F8FD9-52EC-47CF-91D8-DA5450121283";
paths = (
{
closed = 1;
nodes = (
"186 182 OFFCURVE",
"158 209 OFFCURVE",
"116 209 CURVE SMOOTH",
"75 209 OFFCURVE",
"45 176 OFFCURVE",
"45 131 CURVE SMOOTH",
"45 48 OFFCURVE",
"132 -18 OFFCURVE",
"263 -18 CURVE SMOOTH",
"427 -18 OFFCURVE",
"507 67 OFFCURVE",
"507 182 CURVE SMOOTH",
"507 258 OFFCURVE",
"470 328 OFFCURVE",
"364 373 CURVE SMOOTH",
"237 427 LINE SMOOTH",
"174 454 OFFCURVE",
"159 491 OFFCURVE",
"159 533 CURVE SMOOTH",
"159 599 OFFCURVE",
"199 646 OFFCURVE",
"278 646 CURVE SMOOTH",
"324 646 OFFCURVE",
"363 633 OFFCURVE",
"363 598 CURVE SMOOTH",
"363 585 OFFCURVE",
"351 571 OFFCURVE",
"351 542 CURVE SMOOTH",
"351 509 OFFCURVE",
"376 477 OFFCURVE",
"422 477 CURVE SMOOTH",
"467 477 OFFCURVE",
"489 515 OFFCURVE",
"489 549 CURVE SMOOTH",
"489 614 OFFCURVE",
"425 682 OFFCURVE",
"278 682 CURVE SMOOTH",
"144 682 OFFCURVE",
"57 607 OFFCURVE",
"57 500 CURVE SMOOTH",
"57 444 OFFCURVE",
"84 379 OFFCURVE",
"173 341 CURVE SMOOTH",
"315 280 LINE SMOOTH",
"386 250 OFFCURVE",
"405 198 OFFCURVE",
"405 151 CURVE SMOOTH",
"405 69 OFFCURVE",
"358 18 OFFCURVE",
"269 18 CURVE SMOOTH",
"227 18 OFFCURVE",
"170 41 OFFCURVE",
"170 76 CURVE SMOOTH",
"170 91 OFFCURVE",
"186 112 OFFCURVE",
"186 143 CURVE SMOOTH"
);
}
);
width = 552;
},
{
layerId = "28D540C6-4B1C-4739-9DB3-C8E6E4DDF73A";
paths = (
{
closed = 1;
nodes = (
"372 182 OFFCURVE",
"316 209 OFFCURVE",
"232 209 CURVE SMOOTH",
"150 209 OFFCURVE",
"90 176 OFFCURVE",
"90 131 CURVE SMOOTH",
"90 48 OFFCURVE",
"264 -18 OFFCURVE",
"526 -18 CURVE SMOOTH",
"854 -18 OFFCURVE",
"1014 67 OFFCURVE",
"1014 182 CURVE SMOOTH",
"1014 258 OFFCURVE",
"940 328 OFFCURVE",
"728 373 CURVE SMOOTH",
"474 427 LINE SMOOTH",
"348 454 OFFCURVE",
"318 491 OFFCURVE",
"318 533 CURVE SMOOTH",
"318 599 OFFCURVE",
"398 646 OFFCURVE",
"556 646 CURVE SMOOTH",
"648 646 OFFCURVE",
"726 633 OFFCURVE",
"726 598 CURVE SMOOTH",
"726 585 OFFCURVE",
"702 571 OFFCURVE",
"702 542 CURVE SMOOTH",
"702 509 OFFCURVE",
"752 477 OFFCURVE",
"844 477 CURVE SMOOTH",
"934 477 OFFCURVE",
"978 515 OFFCURVE",
"978 549 CURVE SMOOTH",
"978 614 OFFCURVE",
"850 682 OFFCURVE",
"556 682 CURVE SMOOTH",
"288 682 OFFCURVE",
"114 607 OFFCURVE",
"114 500 CURVE SMOOTH",
"114 444 OFFCURVE",
"168 379 OFFCURVE",
"346 341 CURVE SMOOTH",
"630 280 LINE SMOOTH",
"772 250 OFFCURVE",
"810 198 OFFCURVE",
"810 151 CURVE SMOOTH",
"810 69 OFFCURVE",
"716 18 OFFCURVE",
"538 18 CURVE SMOOTH",
"454 18 OFFCURVE",
"340 41 OFFCURVE",
"340 76 CURVE SMOOTH",
"340 91 OFFCURVE",
"372 112 OFFCURVE",
"372 143 CURVE SMOOTH"
);
}
);
width = 1104;
}
);
userData = {
com.typemytype.robofont.layerData = {
background = {
anchors = (
);
components = (
);
contours = (
);
lib = {
};
name = S;
unicodes = (
);
width = 552;
};
};
com.typemytype.robofont.mark = (
0.4827,
0.8546,
0.4678,
1
);
};
},
{
glyphname = a;
lastChange = "2019-11-10 16:28:20 +0000";
layers = (
{
anchors = (
{
name = bottom;
position = "{140, 0}";
},
{
name = ogonek;
position = "{272, 0}";
},
{
name = top;
position = "{140, 440}";
}
);
background = {
paths = (
{
closed = 1;
nodes = (
"260 0 LINE",
"260 24 LINE",
"228 24 LINE SMOOTH",
"217 24 OFFCURVE",
"212 30 OFFCURVE",
"212 40 CURVE SMOOTH",
"212 363 LINE SMOOTH",
"212 414 OFFCURVE",
"191 450 OFFCURVE",
"131 450 CURVE SMOOTH",
"74 450 OFFCURVE",
"41 414 OFFCURVE",
"41 355 CURVE SMOOTH",
"41 324 OFFCURVE",
"52 306 OFFCURVE",
"69 306 CURVE SMOOTH",
"82 306 OFFCURVE",
"92 317 OFFCURVE",
"92 335 CURVE SMOOTH",
"92 362 OFFCURVE",
"72 367 OFFCURVE",
"72 390 CURVE SMOOTH",
"72 408 OFFCURVE",
"91 424 OFFCURVE",
"124 424 CURVE SMOOTH",
"166 424 OFFCURVE",
"180 401 OFFCURVE",
"180 360 CURVE SMOOTH",
"180 198 LINE",
"191 113 LINE",
"182 24 LINE",
"182 0 LINE"
);
},
{
closed = 1;
nodes = (
"172 -8 OFFCURVE",
"199 43 OFFCURVE",
"199 113 CURVE SMOOTH",
"199 194 OFFCURVE",
"173 244 OFFCURVE",
"115 244 CURVE SMOOTH",
"63 244 OFFCURVE",
"27 197 OFFCURVE",
"27 117 CURVE SMOOTH",
"27 38 OFFCURVE",
"63 -8 OFFCURVE",
"115 -8 CURVE SMOOTH"
);
},
{
closed = 1;
nodes = (
"80 19 OFFCURVE",
"63 55 OFFCURVE",
"63 117 CURVE SMOOTH",
"63 181 OFFCURVE",
"80 217 OFFCURVE",
"120 217 CURVE SMOOTH",
"159 217 OFFCURVE",
"181 181 OFFCURVE",
"181 113 CURVE SMOOTH",
"181 55 OFFCURVE",
"159 19 OFFCURVE",
"120 19 CURVE SMOOTH"
);
}
);
};
color = 4;
layerId = "ADE64B87-3839-4AD4-BD35-A3CFF79840FC";
paths = (
{
closed = 1;
nodes = (
"272 0 LINE",
"272 24 LINE",
"240 24 LINE SMOOTH",
"229 24 OFFCURVE",
"224 30 OFFCURVE",
"224 40 CURVE SMOOTH",
"224 365 LINE SMOOTH",
"224 416 OFFCURVE",
"203 452 OFFCURVE",
"144 452 CURVE SMOOTH",
"86 452 OFFCURVE",
"53 416 OFFCURVE",
"53 357 CURVE SMOOTH",
"53 326 OFFCURVE",
"64 308 OFFCURVE",
"81 308 CURVE SMOOTH",
"94 308 OFFCURVE",
"104 319 OFFCURVE",
"104 337 CURVE SMOOTH",
"104 364 OFFCURVE",
"84 369 OFFCURVE",
"84 392 CURVE SMOOTH",
"84 410 OFFCURVE",
"103 426 OFFCURVE",
"135 426 CURVE SMOOTH",
"178 426 OFFCURVE",
"192 403 OFFCURVE",
"192 362 CURVE SMOOTH",
"192 198 LINE",
"203 113 LINE",
"194 47 LINE",
"194 0 LINE"
);
},
{
closed = 1;
nodes = (
"183 -8 OFFCURVE",
"211 45 OFFCURVE",
"211 113 CURVE SMOOTH",
"211 192 OFFCURVE",
"184 244 OFFCURVE",
"127 244 CURVE SMOOTH",
"75 244 OFFCURVE",
"39 195 OFFCURVE",
"39 117 CURVE SMOOTH",
"39 40 OFFCURVE",
"75 -8 OFFCURVE",
"127 -8 CURVE SMOOTH"
);
},
{
closed = 1;
nodes = (
"92 19 OFFCURVE",
"75 55 OFFCURVE",
"75 117 CURVE SMOOTH",
"75 181 OFFCURVE",
"92 217 OFFCURVE",
"132 217 CURVE SMOOTH",
"171 217 OFFCURVE",
"193 181 OFFCURVE",
"193 113 CURVE SMOOTH",
"193 55 OFFCURVE",
"171 19 OFFCURVE",
"132 19 CURVE SMOOTH"
);
}
);
width = 280;
},
{
anchors = (
{
name = bottom;
position = "{258, 0}";
},
{
name = ogonek;
position = "{464, 10}";
},
{
name = top;
position = "{258, 440}";
}
);
background = {
paths = (
{
closed = 1;
nodes = (
"334 -8 OFFCURVE",
"378 45 OFFCURVE",
"378 220 CURVE SMOOTH",
"378 388 OFFCURVE",
"334 448 OFFCURVE",
"230 448 CURVE SMOOTH",
"125 448 OFFCURVE",
"50 368 OFFCURVE",
"50 220 CURVE SMOOTH",
"50 72 OFFCURVE",
"125 -8 OFFCURVE",
"230 -8 CURVE SMOOTH"
);
},
{
closed = 1;
nodes = (
"191 26 OFFCURVE",
"155 79 OFFCURVE",
"155 220 CURVE SMOOTH",
"155 361 OFFCURVE",
"191 414 OFFCURVE",
"250 414 CURVE SMOOTH",
"303 414 OFFCURVE",
"353 380 OFFCURVE",
"353 220 CURVE SMOOTH",
"353 60 OFFCURVE",
"303 26 OFFCURVE",
"250 26 CURVE SMOOTH"
);
},
{
closed = 1;
nodes = (
"547 -10 OFFCURVE",
"604 28 OFFCURVE",
"661 130 CURVE",
"633 145 LINE",
"589 65 OFFCURVE",
"546 32 OFFCURVE",
"506 32 CURVE SMOOTH",
"474 32 OFFCURVE",
"450 56 OFFCURVE",
"450 118 CURVE SMOOTH",
"450 440 LINE",
"356 440 LINE",
"356 308 LINE SMOOTH",
"367 219 LINE",
"350 120 LINE",
"350 57 OFFCURVE",
"373 -10 OFFCURVE",
"476 -10 CURVE SMOOTH"
);
}
);
};
layerId = "484F8FD9-52EC-47CF-91D8-DA5450121283";
paths = (
{
closed = 1;
nodes = (
"510 0 LINE",
"510 30 LINE",
"468 30 LINE SMOOTH",
"437 30 OFFCURVE",
"425 44 OFFCURVE",
"425 68 CURVE SMOOTH",
"425 331 LINE SMOOTH",
"425 405 OFFCURVE",
"375 454 OFFCURVE",
"258 454 CURVE SMOOTH",
"146 454 OFFCURVE",
"83 407.124 OFFCURVE",
"83 347 CURVE SMOOTH",
"83 310.597 OFFCURVE",
"108 286 OFFCURVE",
"145 286 CURVE SMOOTH",
"179 286 OFFCURVE",
"202 306 OFFCURVE",
"202 338 CURVE SMOOTH",
"202 368 OFFCURVE",
"182 376 OFFCURVE",
"182 395 CURVE SMOOTH",
"182 414.217 OFFCURVE",
"211 421 OFFCURVE",
"249 421 CURVE SMOOTH",
"307 421 OFFCURVE",
"325 390.663 OFFCURVE",
"325 331 CURVE SMOOTH",
"325 182 LINE",
"333 168 LINE",
"333 0 LINE"
);
},
{
closed = 1;
nodes = (
"183.196 24 OFFCURVE",
"147 59 OFFCURVE",
"147 113 CURVE SMOOTH",
"147 170 OFFCURVE",
"183.213 208 OFFCURVE",
"239 208 CURVE SMOOTH",
"294 208 OFFCURVE",
"331 169.804 OFFCURVE",
"331 113 CURVE SMOOTH",
"331 59.209 OFFCURVE",
"294 24 OFFCURVE",
"237 24 CURVE SMOOTH"
);
},
{
closed = 1;
nodes = (
"296 -16 OFFCURVE",
"355 29 OFFCURVE",
"355 113 CURVE SMOOTH",
"355 197 OFFCURVE",
"296 248 OFFCURVE",
"206 248 CURVE SMOOTH",
"113 248 OFFCURVE",
"49 193.803 OFFCURVE",
"49 113 CURVE SMOOTH",
"49 35.206 OFFCURVE",
"113 -16 OFFCURVE",
"206 -16 CURVE SMOOTH"
);
}
);
width = 515;
},
{
anchors = (
{
name = bottom;
position = "{516, 0}";
},
{
name = ogonek;
position = "{928, 10}";
},
{
name = top;
position = "{516, 440}";
}
);
background = {
paths = (
{
closed = 1;
nodes = (
"1020 0 LINE",
"1020 30 LINE",
"936 30 LINE SMOOTH",
"874 30 OFFCURVE",
"850 44 OFFCURVE",
"850 68 CURVE SMOOTH",
"850 331 LINE SMOOTH",
"850 405 OFFCURVE",
"750 454 OFFCURVE",
"516 454 CURVE SMOOTH",
"292 454 OFFCURVE",
"166 407 OFFCURVE",
"166 347 CURVE SMOOTH",
"166 311 OFFCURVE",
"216 286 OFFCURVE",
"290 286 CURVE SMOOTH",
"358 286 OFFCURVE",
"404 306 OFFCURVE",
"404 338 CURVE SMOOTH",
"404 368 OFFCURVE",
"364 376 OFFCURVE",
"364 395 CURVE SMOOTH",
"364 414 OFFCURVE",
"422 421 OFFCURVE",
"498 421 CURVE SMOOTH",
"614 421 OFFCURVE",
"650 391 OFFCURVE",
"650 331 CURVE SMOOTH",
"650 182 LINE",
"666 168 LINE",
"666 0 LINE"
);
},
{
closed = 1;
nodes = (
"366 24 OFFCURVE",
"294 59 OFFCURVE",
"294 113 CURVE SMOOTH",
"294 170 OFFCURVE",
"366 208 OFFCURVE",
"478 208 CURVE SMOOTH",
"588 208 OFFCURVE",
"662 170 OFFCURVE",
"662 113 CURVE SMOOTH",
"662 59 OFFCURVE",
"588 24 OFFCURVE",
"474 24 CURVE SMOOTH"
);
},
{
closed = 1;
nodes = (
"592 -16 OFFCURVE",
"710 29 OFFCURVE",
"710 113 CURVE SMOOTH",
"710 197 OFFCURVE",
"592 248 OFFCURVE",
"412 248 CURVE SMOOTH",
"226 248 OFFCURVE",
"98 194 OFFCURVE",
"98 113 CURVE SMOOTH",
"98 35 OFFCURVE",
"226 -16 OFFCURVE",
"412 -16 CURVE SMOOTH"
);
}
);
};
layerId = "28D540C6-4B1C-4739-9DB3-C8E6E4DDF73A";
paths = (
{
closed = 1;
nodes = (
"1020 0 LINE",
"1020 30 LINE",
"936 30 LINE SMOOTH",
"813 30 OFFCURVE",
"765 44 OFFCURVE",
"765 68 CURVE SMOOTH",
"765 331 LINE SMOOTH",
"765 405 OFFCURVE",
"690 454 OFFCURVE",
"516 454 CURVE SMOOTH",
"292 454 OFFCURVE",
"166 407 OFFCURVE",
"166 347 CURVE SMOOTH",
"166 311 OFFCURVE",
"216 286 OFFCURVE",
"290 286 CURVE SMOOTH",
"358 286 OFFCURVE",
"404 306 OFFCURVE",
"404 338 CURVE SMOOTH",
"404 368 OFFCURVE",
"364 376 OFFCURVE",
"364 395 CURVE SMOOTH",
"364 414 OFFCURVE",
"422 421 OFFCURVE",
"498 421 CURVE SMOOTH",
"679 421 OFFCURVE",
"735 391 OFFCURVE",
"735 331 CURVE SMOOTH",
"735 182 LINE",
"735 168 LINE",
"735 0 LINE"
);
},
{
closed = 1;
nodes = (
"315 24 OFFCURVE",
"209 59 OFFCURVE",
"209 113 CURVE SMOOTH",
"209 170 OFFCURVE",
"314 208 OFFCURVE",
"478 208 CURVE SMOOTH",
"632 208 OFFCURVE",
"735 170 OFFCURVE",
"735 113 CURVE SMOOTH",
"735 59 OFFCURVE",
"632 24 OFFCURVE",
"474 24 CURVE SMOOTH"
);
},
{
closed = 1;
nodes = (
"625 -16 OFFCURVE",
"765 29 OFFCURVE",
"765 113 CURVE SMOOTH",
"765 197 OFFCURVE",
"625 248 OFFCURVE",
"412 248 CURVE SMOOTH",
"276 248 OFFCURVE",
"183 194 OFFCURVE",
"183 113 CURVE SMOOTH",
"183 35 OFFCURVE",
"276 -16 OFFCURVE",
"412 -16 CURVE SMOOTH"
);
}
);
width = 1030;
}
);
leftKerningGroup = a;
rightKerningGroup = a;
unicode = 0061;
userData = {
com.typemytype.robofont.layerData = {
background = {
anchors = (
);
components = (
);
contours = (
{
points = (
{
segmentType = curve;
smooth = 1;
x = 202;
y = 337;
},
{
smooth = 0;
x = 202;
y = 370;
},
{
smooth = 0;
x = 182;
y = 378;
},
{
segmentType = curve;
smooth = 1;
x = 182;
y = 397;
},
{
smooth = 0;
x = 182;
y = 416.44;
},
{
smooth = 0;
x = 211;
y = 424;
},
{
segmentType = curve;
smooth = 1;
x = 249;
y = 424;
},
{
smooth = 0;
x = 307;
y = 424;
},
{
smooth = 0;
x = 325;
y = 394;
},
{
segmentType = curve;
smooth = 1;
x = 325;
y = 335;
},
{
segmentType = line;
smooth = 0;
x = 325;
y = 182;
},
{
segmentType = line;
smooth = 0;
x = 333;
y = 168;
},
{
segmentType = line;
smooth = 0;
x = 333;
y = 0;
},
{
segmentType = line;
smooth = 0;
x = 515;
y = 0;
},
{
segmentType = line;
smooth = 0;
x = 515;
y = 30;
},
{
segmentType = line;
smooth = 1;
x = 468;
y = 30;
},
{
smooth = 0;
x = 437;
y = 30;
},
{
smooth = 0;
x = 425;
y = 44;
},
{
segmentType = curve;
smooth = 1;
x = 425;
y = 68;
},
{
segmentType = line;
smooth = 1;
x = 425;
y = 335;
},
{
smooth = 0;
x = 425;
y = 409;
},
{
smooth = 0;
x = 375;
y = 458;
},
{
segmentType = curve;
smooth = 1;
x = 258;
y = 458;
},
{
smooth = 0;
x = 146;
y = 458;
},
{
smooth = 0;
x = 83;
y = 410;
},
{
segmentType = curve;
smooth = 1;
x = 83;
y = 349;
},
{
smooth = 0;
x = 83;
y = 312;
},
{
smooth = 0;
x = 108;
y = 287;
},
{
segmentType = curve;
smooth = 1;
x = 145;
y = 287;
},
{
smooth = 0;
x = 179;
y = 287;
},
{
smooth = 0;
x = 202;
y = 307;
}
);
},
{
points = (
{
segmentType = curve;
smooth = 1;
x = 239;
y = 210;
},
{
smooth = 0;
x = 294;
y = 210;
},
{
smooth = 0;
x = 331;
y = 171;
},
{
segmentType = curve;
smooth = 1;
x = 331;
y = 113;
},
{
smooth = 0;
x = 331;
y = 58;
},
{
smooth = 0;
x = 294;
y = 22;
},
{
segmentType = curve;
smooth = 1;
x = 237;
y = 22;
},
{
smooth = 0;
x = 182;
y = 22;
},
{
smooth = 0;
x = 145;
y = 58;
},
{
segmentType = curve;
smooth = 1;
x = 145;
y = 113;
},
{
smooth = 0;
x = 145;
y = 171;
},
{
smooth = 0;
x = 182;
y = 210;
}
);
},
{
points = (
{
segmentType = curve;
smooth = 1;
x = 206;
y = 250;
},
{
smooth = 0;
x = 113;
y = 250;
},
{
smooth = 0;
x = 49;
y = 195;
},
{
segmentType = curve;
smooth = 1;
x = 49;
y = 113;
},
{
smooth = 0;
x = 49;
y = 34;
},
{
smooth = 0;
x = 113;
y = -18;
},
{
segmentType = curve;
smooth = 1;
x = 206;
y = -18;
},
{
smooth = 0;
x = 296;
y = -18;
},
{
smooth = 0;
x = 355;
y = 34;
},
{
segmentType = curve;
smooth = 1;
x = 355;
y = 113;
},
{
smooth = 0;
x = 355;
y = 195;
},
{
smooth = 0;
x = 296;
y = 250;
}
);
}
);
lib = {
};
name = a;
unicodes = (
);
width = 515;
};
};
com.typemytype.robofont.mark = (
0.9366,
0.9212,
0.4821,
1
);
};
},
{
glyphname = b;
lastChange = "2018-07-13 09:52:20 +0000";
layers = (
{
layerId = "ADE64B87-3839-4AD4-BD35-A3CFF79840FC";
paths = (
{
closed = 1;
nodes = (
"242 391 OFFCURVE",
"205 452 OFFCURVE",
"152 452 CURVE SMOOTH",
"117 452 OFFCURVE",
"82 417 OFFCURVE",
"82 306 CURVE",
"93 306 LINE",
"93 670 LINE",
"-8 670 LINE",
"-8 640 LINE",
"21 640 LINE SMOOTH",
"37 640 OFFCURVE",
"43 625 OFFCURVE",
"43 597 CURVE SMOOTH",
"43 201 LINE SMOOTH",
"43 60 OFFCURVE",
"77 -12 OFFCURVE",
"136 -12 CURVE SMOOTH",
"197 -12 OFFCURVE",
"242 59 OFFCURVE",
"242 220 CURVE SMOOTH"
);
},
{
closed = 1;
nodes = (
"102 20 OFFCURVE",
"93 63 OFFCURVE",
"93 220 CURVE SMOOTH",
"93 363 OFFCURVE",
"106 416 OFFCURVE",
"141 416 CURVE SMOOTH",
"178 416 OFFCURVE",
"190 363 OFFCURVE",
"190 220 CURVE SMOOTH",
"190 77 OFFCURVE",
"172 20 OFFCURVE",
"137 20 CURVE SMOOTH"
);
}
);
width = 267;
},
{
layerId = "484F8FD9-52EC-47CF-91D8-DA5450121283";
paths = (
{
closed = 1;
nodes = (
"484 390.588 OFFCURVE",
"410 452 OFFCURVE",
"304 452 CURVE SMOOTH",
"234 452 OFFCURVE",
"164 417 OFFCURVE",
"164 306 CURVE",
"185 306 LINE",
"185 670 LINE",
"-15 670 LINE",
"-15 640 LINE",
"42 640 LINE SMOOTH",
"74 640 OFFCURVE",
"85 625 OFFCURVE",
"85 597 CURVE SMOOTH",
"85 201 LINE SMOOTH",
"85 60 OFFCURVE",
"154 -12 OFFCURVE",
"271 -12 CURVE SMOOTH",
"394 -12 OFFCURVE",
"484 59.16 OFFCURVE",
"484 220 CURVE SMOOTH"
);
},
{
closed = 1;
nodes = (
"204 20 OFFCURVE",
"185 63 OFFCURVE",
"185 220 CURVE SMOOTH",
"185 363 OFFCURVE",
"212 416 OFFCURVE",
"282 416 CURVE SMOOTH",
"356 416 OFFCURVE",
"379 362.634 OFFCURVE",
"379 220 CURVE SMOOTH",
"379 77.282 OFFCURVE",
"343 20 OFFCURVE",
"274 20 CURVE SMOOTH"
);
}
);
width = 534;
},
{
layerId = "28D540C6-4B1C-4739-9DB3-C8E6E4DDF73A";
paths = (
{
closed = 1;
nodes = (
"968 391 OFFCURVE",
"820 452 OFFCURVE",
"608 452 CURVE SMOOTH",
"468 452 OFFCURVE",
"328 417 OFFCURVE",
"328 306 CURVE",
"370 306 LINE",
"370 670 LINE",
"-30 670 LINE",
"-30 640 LINE",
"84 640 LINE SMOOTH",
"148 640 OFFCURVE",
"170 625 OFFCURVE",
"170 597 CURVE SMOOTH",
"170 201 LINE SMOOTH",
"170 60 OFFCURVE",
"308 -12 OFFCURVE",
"542 -12 CURVE SMOOTH",
"788 -12 OFFCURVE",
"968 59 OFFCURVE",
"968 220 CURVE SMOOTH"
);
},
{
closed = 1;
nodes = (
"408 20 OFFCURVE",
"370 63 OFFCURVE",
"370 220 CURVE SMOOTH",
"370 363 OFFCURVE",
"424 416 OFFCURVE",
"564 416 CURVE SMOOTH",
"712 416 OFFCURVE",
"758 363 OFFCURVE",
"758 220 CURVE SMOOTH",
"758 77 OFFCURVE",
"686 20 OFFCURVE",
"548 20 CURVE SMOOTH"
);
}
);
width = 1068;
}
);
leftKerningGroup = b;
rightKerningGroup = b;
unicode = 0062;
userData = {
com.typemytype.robofont.guides = (
);
com.typemytype.robofont.layerData = {
background = {
anchors = (
);
components = (
);
contours = (
);
lib = {
};
name = b;
unicodes = (
);
width = 534;
};
};
com.typemytype.robofont.mark = (
0.4827,
0.8546,
0.4678,
1
);
};
},
{
glyphname = c;
lastChange = "2018-07-13 09:52:20 +0000";
layers = (
{
background = {
paths = (
{
closed = 1;
nodes = (
"405 281 OFFCURVE",
"431 309 OFFCURVE",
"431 350 CURVE SMOOTH",
"431 411 OFFCURVE",
"370 452 OFFCURVE",
"256 452 CURVE SMOOTH",
"128 452 OFFCURVE",
"50 366 OFFCURVE",
"50 220 CURVE SMOOTH",
"50 74 OFFCURVE",
"128 -12 OFFCURVE",
"265 -12 CURVE SMOOTH",
"376 -12 OFFCURVE",
"446 37 OFFCURVE",
"515 116 CURVE",
"492 137 LINE",
"420 56 OFFCURVE",
"365 26 OFFCURVE",
"290 26 CURVE SMOOTH",
"189 26 OFFCURVE",
"155 96 OFFCURVE",
"155 223 CURVE SMOOTH",
"155 355 OFFCURVE",
"184 421 OFFCURVE",
"258 421 CURVE SMOOTH",
"284 421 OFFCURVE",
"304 408 OFFCURVE",
"304 387 CURVE SMOOTH",
"304 374 OFFCURVE",
"299 365 OFFCURVE",
"299 346 CURVE SMOOTH",
"299 306 OFFCURVE",
"329 281 OFFCURVE",
"363 281 CURVE SMOOTH"
);
}
);
};
layerId = "ADE64B87-3839-4AD4-BD35-A3CFF79840FC";
paths = (
{
closed = 1;
nodes = (
"198 74 OFFCURVE",
"177 24 OFFCURVE",
"135 24 CURVE SMOOTH",
"91 24 OFFCURVE",
"78 95 OFFCURVE",
"78 223 CURVE SMOOTH",
"78 355 OFFCURVE",
"92 421 OFFCURVE",
"129 421 CURVE SMOOTH",
"162 421 OFFCURVE",
"188 367 OFFCURVE",
"193 269 CURVE",
"208 269 LINE",
"208 455 LINE",
"193 455 LINE",
"192 442 OFFCURVE",
"188 432 OFFCURVE",
"181 432 CURVE SMOOTH",
"171 432 OFFCURVE",
"158 452 OFFCURVE",
"127 452 CURVE SMOOTH",
"64 452 OFFCURVE",
"25 366 OFFCURVE",
"25 220 CURVE SMOOTH",
"25 71 OFFCURVE",
"63 -16 OFFCURVE",
"129 -16 CURVE SMOOTH",
"182 -16 OFFCURVE",
"218 49 OFFCURVE",
"218 160 CURVE",
"201 160 LINE"
);
}
);
width = 243;
},
{
background = {
paths = (
{
closed = 1;
nodes = (
"405 281 OFFCURVE",
"431 309 OFFCURVE",
"431 350 CURVE SMOOTH",
"431 411 OFFCURVE",
"370 452 OFFCURVE",
"256 452 CURVE SMOOTH",
"128 452 OFFCURVE",
"50 366 OFFCURVE",
"50 220 CURVE SMOOTH",
"50 74 OFFCURVE",
"128 -12 OFFCURVE",
"265 -12 CURVE SMOOTH",
"376 -12 OFFCURVE",
"446 37 OFFCURVE",
"515 116 CURVE",
"492 137 LINE",
"420 56 OFFCURVE",
"365 26 OFFCURVE",
"290 26 CURVE SMOOTH",
"189 26 OFFCURVE",
"155 96 OFFCURVE",
"155 223 CURVE SMOOTH",
"155 355 OFFCURVE",
"184 421 OFFCURVE",
"258 421 CURVE SMOOTH",
"284 421 OFFCURVE",
"304 408 OFFCURVE",
"304 387 CURVE SMOOTH",
"304 374 OFFCURVE",
"299 365 OFFCURVE",
"299 346 CURVE SMOOTH",
"299 306 OFFCURVE",
"329 281 OFFCURVE",
"363 281 CURVE SMOOTH"
);
}
);
};
layerId = "484F8FD9-52EC-47CF-91D8-DA5450121283";
paths = (
{
closed = 1;
nodes = (
"395 74 OFFCURVE",
"354 24 OFFCURVE",
"270 24 CURVE SMOOTH",
"182 24 OFFCURVE",
"155 94.863 OFFCURVE",
"155 223 CURVE SMOOTH",
"155 355 OFFCURVE",
"184 421 OFFCURVE",
"258 421 CURVE SMOOTH",
"323 421 OFFCURVE",
"375 367 OFFCURVE",
"386 269 CURVE",
"415 269 LINE",
"415 455 LINE",
"385 455 LINE",
"383 442 OFFCURVE",
"375 432 OFFCURVE",
"361 432 CURVE SMOOTH",
"341 432 OFFCURVE",
"315 452 OFFCURVE",
"254 452 CURVE SMOOTH",
"128 452 OFFCURVE",
"50 366.218 OFFCURVE",
"50 220 CURVE SMOOTH",
"50 71.261 OFFCURVE",
"126 -16 OFFCURVE",
"257 -16 CURVE SMOOTH",
"364 -16 OFFCURVE",
"435 49 OFFCURVE",
"436 160 CURVE",
"402 160 LINE"
);
}
);
width = 486;
},
{
background = {
paths = (
{
closed = 1;
nodes = (
"405 281 OFFCURVE",
"431 309 OFFCURVE",
"431 350 CURVE SMOOTH",
"431 411 OFFCURVE",
"370 452 OFFCURVE",
"256 452 CURVE SMOOTH",
"128 452 OFFCURVE",
"50 366 OFFCURVE",
"50 220 CURVE SMOOTH",
"50 74 OFFCURVE",
"128 -12 OFFCURVE",
"265 -12 CURVE SMOOTH",
"376 -12 OFFCURVE",
"446 37 OFFCURVE",
"515 116 CURVE",
"492 137 LINE",
"420 56 OFFCURVE",
"365 26 OFFCURVE",
"290 26 CURVE SMOOTH",
"189 26 OFFCURVE",
"155 96 OFFCURVE",
"155 223 CURVE SMOOTH",
"155 355 OFFCURVE",
"184 421 OFFCURVE",
"258 421 CURVE SMOOTH",
"284 421 OFFCURVE",
"304 408 OFFCURVE",
"304 387 CURVE SMOOTH",
"304 374 OFFCURVE",
"299 365 OFFCURVE",
"299 346 CURVE SMOOTH",
"299 306 OFFCURVE",
"329 281 OFFCURVE",
"363 281 CURVE SMOOTH"
);
}
);
};
layerId = "28D540C6-4B1C-4739-9DB3-C8E6E4DDF73A";
paths = (
{
closed = 1;
nodes = (
"790 74 OFFCURVE",
"708 24 OFFCURVE",
"540 24 CURVE SMOOTH",
"364 24 OFFCURVE",
"310 95 OFFCURVE",
"310 223 CURVE SMOOTH",
"310 355 OFFCURVE",
"368 421 OFFCURVE",
"516 421 CURVE SMOOTH",
"646 421 OFFCURVE",
"750 367 OFFCURVE",
"772 269 CURVE",
"830 269 LINE",
"830 455 LINE",
"770 455 LINE",
"766 442 OFFCURVE",
"750 432 OFFCURVE",
"722 432 CURVE SMOOTH",
"682 432 OFFCURVE",
"630 452 OFFCURVE",
"508 452 CURVE SMOOTH",
"256 452 OFFCURVE",
"100 366 OFFCURVE",
"100 220 CURVE SMOOTH",
"100 71 OFFCURVE",
"252 -16 OFFCURVE",
"514 -16 CURVE SMOOTH",
"728 -16 OFFCURVE",
"870 49 OFFCURVE",
"872 160 CURVE",
"804 160 LINE"
);
}
);
width = 972;
}
);
leftKerningGroup = c;
unicode = 0063;
userData = {
com.typemytype.robofont.layerData = {
background = {
anchors = (
);
components = (
);
contours = (
{
points = (
{
segmentType = line;
smooth = 0;
x = 402;
y = 160;
},
{
smooth = 0;
x = 397.00105;
y = 73.0182;
},
{
smooth = 0;
x = 348.9037;
y = 24;
},
{
segmentType = curve;
smooth = 1;
x = 274;
y = 24;
},
{
smooth = 0;
x = 180;
y = 24;
},
{
smooth = 0;
x = 155;
y = 94.79808;
},
{
segmentType = curve;
smooth = 1;
x = 155;
y = 223;
},
{
smooth = 0;
x = 155;
y = 355;
},
{
smooth = 0;
x = 178;
y = 421;
},
{
segmentType = curve;
smooth = 1;
x = 254;
y = 421;
},
{
smooth = 0;
x = 328;
y = 421;
},
{
smooth = 0;
x = 340;
y = 365;
},
{
segmentType = curve;
smooth = 0;
x = 340;
y = 261;
},
{
segmentType = line;
smooth = 0;
x = 122;
y = 261;
},
{
segmentType = line;
smooth = 0;
x = 122;
y = 231;
},
{
segmentType = line;
smooth = 0;
x = 452;
y = 231;
},
{
smooth = 0;
x = 452;
y = 363;
},
{
smooth = 0;
x = 387;
y = 452;
},
{
segmentType = curve;
smooth = 1;
x = 254;
y = 452;
},
{
smooth = 0;
x = 125;
y = 452;
},
{
smooth = 0;
x = 50;
y = 366.21849;
},
{
segmentType = curve;
smooth = 1;
x = 50;
y = 220;
},
{
smooth = 0;
x = 50;
y = 71.2605;
},
{
smooth = 0;
x = 125;
y = -16;
},
{
segmentType = curve;
smooth = 1;
x = 253;
y = -16;
},
{
smooth = 0;
x = 371.1875;
y = -16;
},
{
smooth = 0;
x = 436;
y = 56;
},
{
segmentType = curve;
smooth = 0;
x = 436;
y = 160;
}
);
},
{
points = (
{
smooth = 0;
x = 923;
y = 163;
},
{
smooth = 0;
x = 902;
y = 163;
},
{
segmentType = curve;
smooth = 0;
x = 889;
y = 158;
},
{
smooth = 0;
x = 882;
y = 65;
},
{
smooth = 0;
x = 846;
y = 18;
},
{
segmentType = curve;
smooth = 1;
x = 769;
y = 18;
},
{
smooth = 0;
x = 682;
y = 18;
},
{
smooth = 0;
x = 655;
y = 91;
},
{
segmentType = curve;
smooth = 1;
x = 655;
y = 223;
},
{
smooth = 0;
x = 655;
y = 359;
},
{
smooth = 0;
x = 684;
y = 427;
},
{
segmentType = curve;
smooth = 1;
x = 759;
y = 427;
},
{
smooth = 0;
x = 823;
y = 427;
},
{
smooth = 0;
x = 875;
y = 373;
},
{
segmentType = curve;
smooth = 0;
x = 886;
y = 275;
},
{
segmentType = line;
smooth = 0;
x = 915;
y = 275;
},
{
segmentType = line;
smooth = 0;
x = 915;
y = 461;
},
{
segmentType = line;
smooth = 0;
x = 885;
y = 461;
},
{
smooth = 0;
x = 883;
y = 448;
},
{
smooth = 0;
x = 875;
y = 438;
},
{
segmentType = curve;
smooth = 1;
x = 861;
y = 438;
},
{
smooth = 0;
x = 841;
y = 438;
},
{
smooth = 0;
x = 815;
y = 458;
},
{
segmentType = curve;
smooth = 1;
x = 754;
y = 458;
},
{
smooth = 0;
x = 628;
y = 458;
},
{
smooth = 0;
x = 550;
y = 370;
},
{
segmentType = curve;
smooth = 1;
x = 550;
y = 220;
},
{
smooth = 0;
x = 550;
y = 70;
},
{
smooth = 0;
x = 628;
y = -18;
},
{
segmentType = curve;
smooth = 1;
x = 760;
y = -18;
},
{
smooth = 0;
x = 867;
y = -18;
},
{
smooth = 0;
x = 926;
y = 47;
},
{
segmentType = curve;
smooth = 0;
x = 936;
y = 158;
}
);
}
);
lib = {
};
name = c;
unicodes = (
);
width = 486;
};
};
com.typemytype.robofont.mark = (
0.9366,
0.9212,
0.4821,
1
);
};
},
{
glyphname = d;
lastChange = "2018-07-13 09:52:20 +0000";
layers = (
{
background = {
paths = (
{
closed = 1;
nodes = (
"250 670 LINE",
"250 640 LINE",
"307 640 LINE SMOOTH",
"339 640 OFFCURVE",
"350 625 OFFCURVE",
"350 597 CURVE SMOOTH",
"350 308 LINE SMOOTH",
"367 219 LINE",
"350 120 LINE",
"350 57 OFFCURVE",
"373 -10 OFFCURVE",
"476 -10 CURVE SMOOTH",
"547 -10 OFFCURVE",
"604 28 OFFCURVE",
"661 130 CURVE",
"633 145 LINE",
"589 65 OFFCURVE",
"546 32 OFFCURVE",
"506 32 CURVE SMOOTH",
"474 32 OFFCURVE",
"450 56 OFFCURVE",
"450 118 CURVE SMOOTH",
"450 670 LINE"
);
},
{
closed = 1;
nodes = (
"353 60 OFFCURVE",
"303 26 OFFCURVE",
"250 26 CURVE SMOOTH",
"191 26 OFFCURVE",
"155 79 OFFCURVE",
"155 220 CURVE SMOOTH",
"155 361 OFFCURVE",
"191 414 OFFCURVE",
"250 414 CURVE SMOOTH",
"303 414 OFFCURVE",
"353 380 OFFCURVE",
"353 220 CURVE SMOOTH"
);
},
{
closed = 1;
nodes = (
"378 388 OFFCURVE",
"334 448 OFFCURVE",
"230 448 CURVE SMOOTH",
"125 448 OFFCURVE",
"50 368 OFFCURVE",
"50 220 CURVE SMOOTH",
"50 72 OFFCURVE",
"125 -8 OFFCURVE",
"230 -8 CURVE SMOOTH",
"334 -8 OFFCURVE",
"378 45 OFFCURVE",
"378 220 CURVE SMOOTH"
);
}
);
};
layerId = "ADE64B87-3839-4AD4-BD35-A3CFF79840FC";
paths = (
{
closed = 1;
nodes = (
"184 221 LINE",
"179 134 LINE",
"179 0 LINE",
"271 0 LINE",
"271 30 LINE",
"247 30 LINE SMOOTH",
"231 30 OFFCURVE",
"225 45 OFFCURVE",
"225 73 CURVE SMOOTH",
"225 670 LINE",
"130 670 LINE",
"130 640 LINE",
"157 640 LINE SMOOTH",
"170 640 OFFCURVE",
"175 626 OFFCURVE",
"175 602 CURVE SMOOTH",
"175 359 LINE"
);
},
{
closed = 1;
nodes = (
"155 420 OFFCURVE",
"177 365 OFFCURVE",
"177 220 CURVE SMOOTH",
"177 74 OFFCURVE",
"155 18 OFFCURVE",
"125 18 CURVE SMOOTH",
"96 18 OFFCURVE",
"78 74 OFFCURVE",
"78 220 CURVE SMOOTH",
"78 365 OFFCURVE",
"96 420 OFFCURVE",
"125 420 CURVE SMOOTH"
);
},
{
closed = 1;
nodes = (
"189 395 OFFCURVE",
"168 452 OFFCURVE",
"115 452 CURVE SMOOTH",
"63 452 OFFCURVE",
"25 371 OFFCURVE",
"25 220 CURVE SMOOTH",
"25 68 OFFCURVE",
"63 -14 OFFCURVE",
"115 -14 CURVE SMOOTH",
"168 -14 OFFCURVE",
"189 43 OFFCURVE",
"189 220 CURVE SMOOTH"
);
}
);
width = 273;
},
{
background = {
paths = (
{
closed = 1;
nodes = (
"250 670 LINE",
"250 640 LINE",
"307 640 LINE SMOOTH",
"339 640 OFFCURVE",
"350 625 OFFCURVE",
"350 597 CURVE SMOOTH",
"350 308 LINE SMOOTH",
"367 219 LINE",
"350 120 LINE",
"350 57 OFFCURVE",
"373 -10 OFFCURVE",
"476 -10 CURVE SMOOTH",
"547 -10 OFFCURVE",
"604 28 OFFCURVE",
"661 130 CURVE",
"633 145 LINE",
"589 65 OFFCURVE",
"546 32 OFFCURVE",
"506 32 CURVE SMOOTH",
"474 32 OFFCURVE",
"450 56 OFFCURVE",
"450 118 CURVE SMOOTH",
"450 670 LINE"
);
},
{
closed = 1;
nodes = (
"353 60 OFFCURVE",
"303 26 OFFCURVE",
"250 26 CURVE SMOOTH",
"191 26 OFFCURVE",
"155 79 OFFCURVE",
"155 220 CURVE SMOOTH",
"155 361 OFFCURVE",
"191 414 OFFCURVE",
"250 414 CURVE SMOOTH",
"303 414 OFFCURVE",
"353 380 OFFCURVE",
"353 220 CURVE SMOOTH"
);
},
{
closed = 1;
nodes = (
"378 388 OFFCURVE",
"334 448 OFFCURVE",
"230 448 CURVE SMOOTH",
"125 448 OFFCURVE",
"50 368 OFFCURVE",
"50 220 CURVE SMOOTH",
"50 72 OFFCURVE",
"125 -8 OFFCURVE",
"230 -8 CURVE SMOOTH",
"334 -8 OFFCURVE",
"378 45 OFFCURVE",
"378 220 CURVE SMOOTH"
);
}
);
};
layerId = "484F8FD9-52EC-47CF-91D8-DA5450121283";
paths = (
{
closed = 1;
nodes = (
"367 221 LINE",
"358 134 LINE",
"358 0 LINE",
"541 0 LINE",
"541 30 LINE",
"493 30 LINE SMOOTH",
"461 30 OFFCURVE",
"450 45 OFFCURVE",
"450 73 CURVE SMOOTH",
"450 670 LINE",
"260 670 LINE",
"260 640 LINE",
"313 640 LINE SMOOTH",
"340 640 OFFCURVE",
"350 626 OFFCURVE",
"350 602 CURVE SMOOTH",
"350 359 LINE"
);
},
{
closed = 1;
nodes = (
"309 420 OFFCURVE",
"353 364.66 OFFCURVE",
"353 220 CURVE SMOOTH",
"353 73.893 OFFCURVE",
"309 18 OFFCURVE",
"250 18 CURVE SMOOTH",
"191 18 OFFCURVE",
"155 73.893 OFFCURVE",
"155 220 CURVE SMOOTH",
"155 364.66 OFFCURVE",
"191 420 OFFCURVE",
"250 420 CURVE SMOOTH"
);
},
{
closed = 1;
nodes = (
"378 395.462 OFFCURVE",
"335 452 OFFCURVE",
"230 452 CURVE SMOOTH",
"125 452 OFFCURVE",
"50 371.092 OFFCURVE",
"50 220 CURVE SMOOTH",
"50 67.605 OFFCURVE",
"125 -14 OFFCURVE",
"230 -14 CURVE SMOOTH",
"335 -14 OFFCURVE",
"378 43.025 OFFCURVE",
"378 220 CURVE SMOOTH"
);
}
);
width = 545;
},
{
background = {
paths = (
{
closed = 1;
nodes = (
"250 670 LINE",
"250 640 LINE",
"307 640 LINE SMOOTH",
"339 640 OFFCURVE",
"350 625 OFFCURVE",
"350 597 CURVE SMOOTH",
"350 308 LINE SMOOTH",
"367 219 LINE",
"350 120 LINE",
"350 57 OFFCURVE",
"373 -10 OFFCURVE",
"476 -10 CURVE SMOOTH",
"547 -10 OFFCURVE",
"604 28 OFFCURVE",
"661 130 CURVE",
"633 145 LINE",
"589 65 OFFCURVE",
"546 32 OFFCURVE",
"506 32 CURVE SMOOTH",
"474 32 OFFCURVE",
"450 56 OFFCURVE",
"450 118 CURVE SMOOTH",
"450 670 LINE"
);
},
{
closed = 1;
nodes = (
"353 60 OFFCURVE",
"303 26 OFFCURVE",
"250 26 CURVE SMOOTH",
"191 26 OFFCURVE",
"155 79 OFFCURVE",
"155 220 CURVE SMOOTH",
"155 361 OFFCURVE",
"191 414 OFFCURVE",
"250 414 CURVE SMOOTH",
"303 414 OFFCURVE",
"353 380 OFFCURVE",
"353 220 CURVE SMOOTH"
);
},
{
closed = 1;
nodes = (
"378 388 OFFCURVE",
"334 448 OFFCURVE",
"230 448 CURVE SMOOTH",
"125 448 OFFCURVE",
"50 368 OFFCURVE",
"50 220 CURVE SMOOTH",
"50 72 OFFCURVE",
"125 -8 OFFCURVE",
"230 -8 CURVE SMOOTH",
"334 -8 OFFCURVE",
"378 45 OFFCURVE",
"378 220 CURVE SMOOTH"
);
}
);
};
layerId = "28D540C6-4B1C-4739-9DB3-C8E6E4DDF73A";
paths = (
{
closed = 1;
nodes = (
"734 221 LINE",
"716 134 LINE",
"716 0 LINE",
"1082 0 LINE",
"1082 30 LINE",
"986 30 LINE SMOOTH",
"922 30 OFFCURVE",
"900 45 OFFCURVE",
"900 73 CURVE SMOOTH",
"900 670 LINE",
"520 670 LINE",
"520 640 LINE",
"626 640 LINE SMOOTH",
"680 640 OFFCURVE",
"700 626 OFFCURVE",
"700 602 CURVE SMOOTH",
"700 359 LINE"
);
},
{
closed = 1;
nodes = (
"618 420 OFFCURVE",
"706 365 OFFCURVE",
"706 220 CURVE SMOOTH",
"706 74 OFFCURVE",
"618 18 OFFCURVE",
"500 18 CURVE SMOOTH",
"382 18 OFFCURVE",
"310 74 OFFCURVE",
"310 220 CURVE SMOOTH",
"310 365 OFFCURVE",
"382 420 OFFCURVE",
"500 420 CURVE SMOOTH"
);
},
{
closed = 1;
nodes = (
"756 395 OFFCURVE",
"670 452 OFFCURVE",
"460 452 CURVE SMOOTH",
"250 452 OFFCURVE",
"100 371 OFFCURVE",
"100 220 CURVE SMOOTH",
"100 68 OFFCURVE",
"250 -14 OFFCURVE",
"460 -14 CURVE SMOOTH",
"670 -14 OFFCURVE",
"756 43 OFFCURVE",
"756 220 CURVE SMOOTH"
);
}
);
width = 1090;
}
);
leftKerningGroup = c;
rightKerningGroup = d;
unicode = 0064;
userData = {
com.typemytype.robofont.guides = (
);
com.typemytype.robofont.layerData = {
background = {
anchors = (
);
components = (
);
contours = (
);
lib = {
};
name = d;
unicodes = (
);
width = 545;
};
};
com.typemytype.robofont.mark = (
0.9366,
0.9212,
0.4821,
1
);
};
},
{
glyphname = e;
lastChange = "2019-11-10 16:28:20 +0000";
layers = (
{
anchors = (
{
name = bottom;
position = "{140, 0}";
},
{
name = ogonek;
position = "{178, 0}";
},
{
name = top;
position = "{140, 440}";
}
);
background = {
paths = (
{
closed = 1;
nodes = (
"198 -12 OFFCURVE",
"224 55 OFFCURVE",
"228 162 CURVE",
"202 162 LINE",
"198 80 OFFCURVE",
"180 18 OFFCURVE",
"137 18 CURVE SMOOTH",
"90 18 OFFCURVE",
"76 88 OFFCURVE",
"76 220 CURVE SMOOTH",
"76 353 OFFCURVE",
"89 424 OFFCURVE",
"137 424 CURVE SMOOTH",
"183 424 OFFCURVE",
"196 359 OFFCURVE",
"196 245 CURVE",
"225 260 LINE",
"57 260 LINE",
"57 232 LINE",
"232 232 LINE",
"232 365 OFFCURVE",
"211 452 OFFCURVE",
"139 452 CURVE SMOOTH",
"61 452 OFFCURVE",
"40 360 OFFCURVE",
"40 220 CURVE SMOOTH",
"40 78 OFFCURVE",
"63 -12 OFFCURVE",
"136 -12 CURVE SMOOTH"
);
}
);
};
color = 4;
layerId = "ADE64B87-3839-4AD4-BD35-A3CFF79840FC";
paths = (
{
closed = 1;
nodes = (
"200 -12 OFFCURVE",
"225 55 OFFCURVE",
"229 162 CURVE",
"203 162 LINE",
"199 80 OFFCURVE",
"182 18 OFFCURVE",
"140 18 CURVE SMOOTH",
"96 18 OFFCURVE",
"83 88 OFFCURVE",
"83 220 CURVE SMOOTH",
"83 353 OFFCURVE",
"95 424 OFFCURVE",
"140 424 CURVE SMOOTH",
"184 424 OFFCURVE",
"197 359 OFFCURVE",
"197 245 CURVE",
"226 260 LINE",
"60 260 LINE",
"60 232 LINE",
"233 232 LINE",
"233 365 OFFCURVE",
"212 452 OFFCURVE",
"142 452 CURVE SMOOTH",
"67 452 OFFCURVE",
"47 360 OFFCURVE",
"47 220 CURVE SMOOTH",
"47 78 OFFCURVE",
"69 -12 OFFCURVE",
"139 -12 CURVE SMOOTH"
);
}
);
width = 280;
},
{
background = {
paths = (
{
closed = 1;
nodes = (
"187 213 OFFCURVE",
"159 249 OFFCURVE",
"159 311 CURVE SMOOTH",
"159 379 OFFCURVE",
"194 421 OFFCURVE",
"243 421 CURVE SMOOTH",
"290 421 OFFCURVE",
"326 384 OFFCURVE",
"326 322 CURVE SMOOTH",
"326 260 OFFCURVE",
"294 213 OFFCURVE",
"236 213 CURVE SMOOTH"
);
},
{
closed = 1;
nodes = (
"398 -12 OFFCURVE",
"473 40 OFFCURVE",
"557 140 CURVE",
"533 159 LINE",
"443 54 OFFCURVE",
"383.647 26 OFFCURVE",
"302 26 CURVE SMOOTH",
"180 26 OFFCURVE",
"155 112 OFFCURVE",
"155 220 CURVE SMOOTH",
"155 302 LINE",
"132 314 LINE",
"132 235 OFFCURVE",
"175 174 OFFCURVE",
"271 174 CURVE SMOOTH",
"365.222 174 OFFCURVE",
"430 224 OFFCURVE",
"430 307 CURVE SMOOTH",
"430 394 OFFCURVE",
"354 452 OFFCURVE",
"245 452 CURVE SMOOTH",
"126 452 OFFCURVE",
"50 372 OFFCURVE",
"50 220 CURVE SMOOTH",
"50 74 OFFCURVE",
"128 -12 OFFCURVE",
"273 -12 CURVE SMOOTH"
);
}
);
};
layerId = "484F8FD9-52EC-47CF-91D8-DA5450121283";
paths = (
{
closed = 1;
nodes = (
"377 -16 OFFCURVE",
"445 56 OFFCURVE",
"445 160 CURVE",
"411 160 LINE",
"406 73 OFFCURVE",
"354.17 24 OFFCURVE",
"274 24 CURVE SMOOTH",
"180 24 OFFCURVE",
"155 94.798 OFFCURVE",
"155 223 CURVE SMOOTH",
"155 355 OFFCURVE",
"178 421 OFFCURVE",
"254 421 CURVE SMOOTH",
"328 421 OFFCURVE",
"340 365 OFFCURVE",
"340 261 CURVE",
"122 261 LINE",
"122 231 LINE",
"452 231 LINE",
"452 363 OFFCURVE",
"387 452 OFFCURVE",
"254 452 CURVE SMOOTH",
"125 452 OFFCURVE",
"50 366.218 OFFCURVE",
"50 220 CURVE SMOOTH",
"50 71.261 OFFCURVE",
"125 -16 OFFCURVE",
"253 -16 CURVE SMOOTH"
);
}
);
width = 507;
},
{
background = {
paths = (
{
closed = 1;
nodes = (
"187 213 OFFCURVE",
"159 249 OFFCURVE",
"159 311 CURVE SMOOTH",
"159 379 OFFCURVE",
"194 421 OFFCURVE",
"243 421 CURVE SMOOTH",
"290 421 OFFCURVE",
"326 384 OFFCURVE",
"326 322 CURVE SMOOTH",
"326 260 OFFCURVE",
"294 213 OFFCURVE",
"236 213 CURVE SMOOTH"
);
},
{
closed = 1;
nodes = (
"398 -12 OFFCURVE",
"473 40 OFFCURVE",
"557 140 CURVE",
"533 159 LINE",
"443 54 OFFCURVE",
"383.647 26 OFFCURVE",
"302 26 CURVE SMOOTH",
"180 26 OFFCURVE",
"155 112 OFFCURVE",
"155 220 CURVE SMOOTH",
"155 302 LINE",
"132 314 LINE",
"132 235 OFFCURVE",
"175 174 OFFCURVE",
"271 174 CURVE SMOOTH",
"365.222 174 OFFCURVE",
"430 224 OFFCURVE",
"430 307 CURVE SMOOTH",
"430 394 OFFCURVE",
"354 452 OFFCURVE",
"245 452 CURVE SMOOTH",
"126 452 OFFCURVE",
"50 372 OFFCURVE",
"50 220 CURVE SMOOTH",
"50 74 OFFCURVE",
"128 -12 OFFCURVE",
"273 -12 CURVE SMOOTH"
);
}
);
};
layerId = "28D540C6-4B1C-4739-9DB3-C8E6E4DDF73A";
paths = (
{
closed = 1;
nodes = (
"754 -16 OFFCURVE",
"890 56 OFFCURVE",
"890 160 CURVE",
"822 160 LINE",
"812 73 OFFCURVE",
"708 24 OFFCURVE",
"548 24 CURVE SMOOTH",
"360 24 OFFCURVE",
"310 95 OFFCURVE",
"310 223 CURVE SMOOTH",
"310 355 OFFCURVE",
"356 421 OFFCURVE",
"508 421 CURVE SMOOTH",
"656 421 OFFCURVE",
"680 365 OFFCURVE",
"680 261 CURVE",
"244 261 LINE",
"244 231 LINE",
"904 231 LINE",
"904 363 OFFCURVE",
"774 452 OFFCURVE",
"508 452 CURVE SMOOTH",
"250 452 OFFCURVE",
"100 366 OFFCURVE",
"100 220 CURVE SMOOTH",
"100 71 OFFCURVE",
"250 -16 OFFCURVE",
"506 -16 CURVE SMOOTH"
);
}
);
width = 1014;
}
);
leftKerningGroup = c;
rightKerningGroup = b;
unicode = 0065;
userData = {
com.typemytype.robofont.layerData = {
background = {
anchors = (
);
components = (
);
contours = (
{
points = (
{
segmentType = curve;
smooth = 1;
x = -240;
y = 454;
},
{
smooth = 0;
x = -372;
y = 454;
},
{
smooth = 0;
x = -450;
y = 367;
},
{
segmentType = curve;
smooth = 1;
x = -450;
y = 220;
},
{
smooth = 0;
x = -450;
y = 71;
},
{
smooth = 0;
x = -372;
y = -16;
},
{
segmentType = curve;
smooth = 1;
x = -240;
y = -16;
},
{
smooth = 0;
x = -108;
y = -16;
},
{
smooth = 0;
x = -30;
y = 71;
},
{
segmentType = curve;
smooth = 1;
x = -30;
y = 220;
},
{
smooth = 0;
x = -30;
y = 367;
},
{
smooth = 0;
x = -108;
y = 454;
}
);
},
{
points = (
{
segmentType = curve;
smooth = 1;
x = -240;
y = 423;
},
{
smooth = 0;
x = -160;
y = 423;
},
{
smooth = 0;
x = -135;
y = 353;
},
{
segmentType = curve;
smooth = 1;
x = -135;
y = 220;
},
{
smooth = 0;
x = -135;
y = 87;
},
{
smooth = 0;
x = -160;
y = 17;
},
{
segmentType = curve;
smooth = 1;
x = -240;
y = 17;
},
{
smooth = 0;
x = -320;
y = 17;
},
{
smooth = 0;
x = -345;
y = 87;
},
{
segmentType = curve;
smooth = 1;
x = -345;
y = 220;
},
{
smooth = 0;
x = -345;
y = 353;
},
{
smooth = 0;
x = -320;
y = 423;
}
);
},
{
points = (
{
smooth = 0;
x = 1048;
y = 146;
},
{
smooth = 0;
x = 1024;
y = 149;
},
{
segmentType = curve;
smooth = 0;
x = 1007;
y = 145;
},
{
smooth = 0;
x = 994;
y = 66;
},
{
smooth = 0;
x = 961;
y = 20;
},
{
segmentType = curve;
smooth = 1;
x = 881;
y = 20;
},
{
smooth = 0;
x = 782;
y = 20;
},
{
smooth = 0;
x = 755;
y = 92;
},
{
segmentType = curve;
smooth = 1;
x = 755;
y = 223;
},
{
smooth = 0;
x = 755;
y = 359;
},
{
smooth = 0;
x = 780;
y = 427;
},
{
segmentType = curve;
smooth = 1;
x = 863;
y = 427;
},
{
smooth = 0;
x = 943;
y = 427;
},
{
smooth = 0;
x = 956;
y = 369;
},
{
segmentType = curve;
smooth = 0;
x = 956;
y = 261;
},
{
segmentType = line;
smooth = 0;
x = 722;
y = 261;
},
{
segmentType = line;
smooth = 0;
x = 722;
y = 231;
},
{
segmentType = line;
smooth = 0;
x = 1068;
y = 231;
},
{
smooth = 0;
x = 1068;
y = 377;
},
{
smooth = 0;
x = 1000;
y = 458;
},
{
segmentType = curve;
smooth = 1;
x = 863;
y = 458;
},
{
smooth = 0;
x = 728;
y = 458;
},
{
smooth = 0;
x = 650;
y = 370;
},
{
segmentType = curve;
smooth = 1;
x = 650;
y = 220;
},
{
smooth = 0;
x = 650;
y = 70;
},
{
smooth = 0;
x = 728;
y = -18;
},
{
segmentType = curve;
smooth = 1;
x = 860;
y = -18;
},
{
smooth = 0;
x = 967;
y = -18;
},
{
smooth = 0;
x = 1038;
y = 39;
},
{
segmentType = curve;
smooth = 0;
x = 1061;
y = 140;
}
);
},
{
points = (
{
smooth = 0;
x = 432;
y = 146;
},
{
smooth = 0;
x = 408;
y = 149;
},
{
segmentType = curve;
smooth = 0;
x = 391;
y = 145;
},
{
smooth = 0;
x = 378.02214;
y = 67.13286;
},
{
smooth = 0;
x = 347.73333;
y = 22;
},
{
segmentType = curve;
smooth = 1;
x = 273;
y = 22;
},
{
smooth = 0;
x = 180.43103;
y = 22;
},
{
smooth = 0;
x = 155;
y = 93.50962;
},
{
segmentType = curve;
smooth = 1;
x = 155;
y = 223;
},
{
smooth = 0;
x = 155;
y = 355;
},
{
smooth = 0;
x = 178;
y = 421;
},
{
segmentType = curve;
smooth = 1;
x = 254;
y = 421;
},
{
smooth = 0;
x = 328;
y = 421;
},
{
smooth = 0;
x = 340;
y = 365;
},
{
segmentType = curve;
smooth = 0;
x = 340;
y = 261;
},
{
segmentType = line;
smooth = 0;
x = 122;
y = 261;
},
{
segmentType = line;
smooth = 0;
x = 122;
y = 231;
},
{
segmentType = line;
smooth = 0;
x = 452;
y = 231;
},
{
smooth = 0;
x = 452;
y = 373;
},
{
smooth = 0;
x = 387;
y = 452;
},
{
segmentType = curve;
smooth = 1;
x = 253;
y = 452;
},
{
smooth = 0;
x = 125;
y = 452;
},
{
smooth = 0;
x = 50;
y = 366.21849;
},
{
segmentType = curve;
smooth = 1;
x = 50;
y = 220;
},
{
smooth = 0;
x = 50;
y = 71.2605;
},
{
smooth = 0;
x = 124.74;
y = -16;
},
{
segmentType = curve;
smooth = 1;
x = 252;
y = -16;
},
{
smooth = 0;
x = 354.93333;
y = -16;
},
{
smooth = 0;
x = 422.04578;
y = 40.19905;
},
{
segmentType = curve;
smooth = 0;
x = 445;
y = 140;
}
);
}
);
lib = {
};
name = e;
unicodes = (
);
width = 507;
};
};
com.typemytype.robofont.mark = (
0.9366,
0.9212,
0.4821,
1
);
};
},
{
color = 7;
glyphname = f;
lastChange = "2018-07-13 09:52:20 +0000";
layers = (
{
background = {
components = (
{
name = longs;
transform = "{1, 0, 0, 1, 5, 0}";
}
);
paths = (
{
closed = 1;
nodes = (
"10 408 LINE",
"285 408 LINE",
"285 440 LINE",
"10 440 LINE"
);
}
);
};
components = (
{
name = longs;
transform = "{1, 0, 0, 1, 5, 0}";
}
);
layerId = "ADE64B87-3839-4AD4-BD35-A3CFF79840FC";
paths = (
{
closed = 1;
nodes = (
"140 408 LINE",
"140 440 LINE",
"13 440 LINE",
"13 408 LINE"
);
}
);
width = 163;
},
{
background = {
components = (
{
name = longs;
transform = "{1, 0, 0, 1, 5, 0}";
}
);
paths = (
{
closed = 1;
nodes = (
"10 408 LINE",
"285 408 LINE",
"285 440 LINE",
"10 440 LINE"
);
}
);
};
components = (
{
name = longs;
transform = "{1, 0, 0, 1, 10, 0}";
}
);
layerId = "484F8FD9-52EC-47CF-91D8-DA5450121283";
paths = (
{
closed = 1;
nodes = (
"280 408 LINE",
"280 440 LINE",
"25 440 LINE",
"25 408 LINE"
);
}
);
width = 325;
},
{
background = {
components = (
{
name = longs;
transform = "{1, 0, 0, 1, 5, 0}";
}
);
paths = (
{
closed = 1;
nodes = (
"10 408 LINE",
"285 408 LINE",
"285 440 LINE",
"10 440 LINE"
);
}
);
};
components = (
{
name = longs;
transform = "{1, 0, 0, 1, 20, 0}";
}
);
layerId = "28D540C6-4B1C-4739-9DB3-C8E6E4DDF73A";
paths = (
{
closed = 1;
nodes = (
"560 408 LINE",
"560 440 LINE",
"50 440 LINE",
"50 408 LINE"
);
}
);
width = 650;
}
);
leftKerningGroup = f;
rightKerningGroup = f;
unicode = 0066;
userData = {
com.typemytype.robofont.guides = (
);
com.typemytype.robofont.layerData = {
background = {
anchors = (
);
components = (
);
contours = (
);
lib = {
};
name = f;
unicodes = (
);
width = 325;
};
};
com.typemytype.robofont.mark = (
0.3692,
0.5456,
0.891,
1
);
};
},
{
glyphname = g;
lastChange = "2019-11-10 16:36:44 +0000";
layers = (
{
background = {
paths = (
{
closed = 1;
nodes = (
"206 -285 OFFCURVE",
"254 -220 OFFCURVE",
"254 -100 CURVE SMOOTH",
"254 -24 OFFCURVE",
"230 36 OFFCURVE",
"158 46 CURVE SMOOTH",
"129 50 LINE SMOOTH",
"94 55 OFFCURVE",
"77 66 OFFCURVE",
"77 107 CURVE SMOOTH",
"77 129 OFFCURVE",
"82 156 OFFCURVE",
"103 189 CURVE",
"83 199 LINE",
"62 169 OFFCURVE",
"49 135 OFFCURVE",
"49 99 CURVE SMOOTH",
"49 57 OFFCURVE",
"62 24 OFFCURVE",
"125 15 CURVE SMOOTH",
"152 11 LINE SMOOTH",
"207 3 OFFCURVE",
"226 -33 OFFCURVE",
"226 -103 CURVE SMOOTH",
"226 -210 OFFCURVE",
"187 -253 OFFCURVE",
"137 -253 CURVE SMOOTH",
"89 -253 OFFCURVE",
"52 -207 OFFCURVE",
"52 -120 CURVE SMOOTH",
"52 -56 OFFCURVE",
"71 -11 OFFCURVE",
"123 17 CURVE",
"114 38 LINE",
"59 12 OFFCURVE",
"24 -41 OFFCURVE",
"24 -124 CURVE SMOOTH",
"24 -218 OFFCURVE",
"70 -285 OFFCURVE",
"137 -285 CURVE SMOOTH"
);
},
{
closed = 1;
nodes = (
"196 166 OFFCURVE",
"231 224 OFFCURVE",
"231 308 CURVE SMOOTH",
"231 394 OFFCURVE",
"198 450 OFFCURVE",
"138 450 CURVE SMOOTH",
"79 450 OFFCURVE",
"43 394 OFFCURVE",
"43 308 CURVE SMOOTH",
"43 224 OFFCURVE",
"77 166 OFFCURVE",
"136 166 CURVE SMOOTH"
);
},
{
closed = 1;
nodes = (
"98 194 OFFCURVE",
"79 237 OFFCURVE",
"79 308 CURVE SMOOTH",
"79 381 OFFCURVE",
"98 422 OFFCURVE",
"136 422 CURVE SMOOTH",
"176 422 OFFCURVE",
"195 381 OFFCURVE",
"195 308 CURVE SMOOTH",
"195 237 OFFCURVE",
"176 194 OFFCURVE",
"138 194 CURVE SMOOTH"
);
},
{
closed = 1;
nodes = (
"151 435 LINE",
"151 560 LINE SMOOTH",
"151 588 OFFCURVE",
"157 603 OFFCURVE",
"175 603 CURVE SMOOTH",
"189 603 OFFCURVE",
"196 594 OFFCURVE",
"196 584 CURVE SMOOTH",
"196 561 OFFCURVE",
"176 556 OFFCURVE",
"176 529 CURVE SMOOTH",
"176 511 OFFCURVE",
"186 500 OFFCURVE",
"199 500 CURVE SMOOTH",
"217 500 OFFCURVE",
"227 518 OFFCURVE",
"227 552 CURVE SMOOTH",
"227 594 OFFCURVE",
"211 629 OFFCURVE",
"173 629 CURVE SMOOTH",
"141 629 OFFCURVE",
"123 607 OFFCURVE",
"123 561 CURVE SMOOTH",
"123 435 LINE"
);
}
);
};
color = 4;
layerId = "ADE64B87-3839-4AD4-BD35-A3CFF79840FC";
paths = (
{
closed = 1;
nodes = (
"206 -285 OFFCURVE",
"254 -220 OFFCURVE",
"254 -100 CURVE SMOOTH",
"254 -23 OFFCURVE",
"231 36 OFFCURVE",
"158 48 CURVE SMOOTH",
"148 50 OFFCURVE",
"139 51 OFFCURVE",
"129 52 CURVE SMOOTH",
"93 56 OFFCURVE",
"77 67 OFFCURVE",
"77 107 CURVE SMOOTH",
"77 129 OFFCURVE",
"82 156 OFFCURVE",
"103 189 CURVE",
"83 199 LINE",
"62 169 OFFCURVE",
"49 135 OFFCURVE",
"49 99 CURVE SMOOTH",
"49 57 OFFCURVE",
"65 22 OFFCURVE",
"125 15 CURVE SMOOTH",
"134 14 OFFCURVE",
"143 13 OFFCURVE",
"152 11 CURVE SMOOTH",
"208 1 OFFCURVE",
"226 -33 OFFCURVE",
"226 -103 CURVE SMOOTH",
"226 -209 OFFCURVE",
"187 -251 OFFCURVE",
"137 -251 CURVE SMOOTH",
"89 -251 OFFCURVE",
"52 -206 OFFCURVE",
"52 -120 CURVE SMOOTH",
"52 -56 OFFCURVE",
"71 -11 OFFCURVE",
"123 17 CURVE",
"114 38 LINE",
"59 12 OFFCURVE",
"24 -41 OFFCURVE",
"24 -124 CURVE SMOOTH",
"24 -218 OFFCURVE",
"70 -285 OFFCURVE",
"137 -285 CURVE SMOOTH"
);
},
{
closed = 1;
nodes = (
"206 166 OFFCURVE",
"230 237 OFFCURVE",
"230 308 CURVE SMOOTH",
"230 379 OFFCURVE",
"206 450 OFFCURVE",
"138 450 CURVE SMOOTH",
"70 450 OFFCURVE",
"44 379 OFFCURVE",
"44 308 CURVE SMOOTH",
"44 237 OFFCURVE",
"66 166 OFFCURVE",
"136 166 CURVE SMOOTH"
);
},
{
closed = 1;
nodes = (
"97 194 OFFCURVE",
"79 241 OFFCURVE",
"79 308 CURVE SMOOTH",
"79 375 OFFCURVE",
"93 422 OFFCURVE",
"136 422 CURVE SMOOTH",
"179 422 OFFCURVE",
"195 375 OFFCURVE",
"195 308 CURVE SMOOTH",
"195 241 OFFCURVE",
"179 194 OFFCURVE",
"138 194 CURVE SMOOTH"
);
},
{
closed = 1;
nodes = (
"151 435 LINE",
"151 560 LINE SMOOTH",
"151 588 OFFCURVE",
"157 603 OFFCURVE",
"175 603 CURVE SMOOTH",
"189 603 OFFCURVE",
"196 594 OFFCURVE",
"196 584 CURVE SMOOTH",
"196 561 OFFCURVE",
"176 556 OFFCURVE",
"176 529 CURVE SMOOTH",
"176 511 OFFCURVE",
"186 500 OFFCURVE",
"199 500 CURVE SMOOTH",
"217 500 OFFCURVE",
"227 518 OFFCURVE",
"227 552 CURVE SMOOTH",
"227 594 OFFCURVE",
"211 629 OFFCURVE",
"173 629 CURVE SMOOTH",
"141 629 OFFCURVE",
"123 607 OFFCURVE",
"123 561 CURVE SMOOTH",
"123 435 LINE"
);
}
);
width = 280;
},
{
background = {
paths = (
{
closed = 1;
nodes = (
"378 388 OFFCURVE",
"334 448 OFFCURVE",
"230 448 CURVE SMOOTH",
"125 448 OFFCURVE",
"50 368 OFFCURVE",
"50 220 CURVE SMOOTH",
"50 72 OFFCURVE",
"125 -8 OFFCURVE",
"230 -8 CURVE SMOOTH",
"334 -8 OFFCURVE",
"378 45 OFFCURVE",
"378 220 CURVE SMOOTH"
);
},
{
closed = 1;
nodes = (
"191 26 OFFCURVE",
"155 79 OFFCURVE",
"155 220 CURVE SMOOTH",
"155 361 OFFCURVE",
"191 414 OFFCURVE",
"250 414 CURVE SMOOTH",
"303 414 OFFCURVE",
"353 380 OFFCURVE",
"353 220 CURVE SMOOTH",
"353 60 OFFCURVE",
"303 26 OFFCURVE",
"250 26 CURVE SMOOTH"
);
},
{
closed = 1;
nodes = (
"356 332 LINE",
"366 220 LINE",
"350 99 LINE",
"350 -102 LINE SMOOTH",
"350 -200 OFFCURVE",
"312 -240 OFFCURVE",
"250 -240 CURVE SMOOTH",
"218 -240 OFFCURVE",
"194 -221 OFFCURVE",
"194 -190 CURVE SMOOTH",
"194 -168 OFFCURVE",
"207 -160 OFFCURVE",
"207 -131 CURVE SMOOTH",
"207 -94 OFFCURVE",
"180 -67 OFFCURVE",
"140 -67 CURVE SMOOTH",
"101 -67 OFFCURVE",
"73 -96 OFFCURVE",
"73 -142 CURVE SMOOTH",
"73 -215 OFFCURVE",
"142 -272 OFFCURVE",
"258 -272 CURVE SMOOTH",
"381 -272 OFFCURVE",
"450 -203 OFFCURVE",
"450 -98 CURVE SMOOTH",
"450 440 LINE",
"356 440 LINE"
);
}
);
};
layerId = "484F8FD9-52EC-47CF-91D8-DA5450121283";
paths = (
{
closed = 1;
nodes = (
"436 -275 OFFCURVE",
"497 -169 OFFCURVE",
"497 -83 CURVE SMOOTH",
"497 -7 OFFCURVE",
"452 52 OFFCURVE",
"367 66 CURVE SMOOTH",
"324 73 OFFCURVE",
"262 76 OFFCURVE",
"222 77 CURVE SMOOTH",
"166 79 OFFCURVE",
"143 92 OFFCURVE",
"143 118 CURVE SMOOTH",
"143 149 OFFCURVE",
"157 162 OFFCURVE",
"185 191 CURVE",
"153 202 LINE",
"107 171 OFFCURVE",
"74 140 OFFCURVE",
"74 90 CURVE SMOOTH",
"74 30 OFFCURVE",
"125 -5 OFFCURVE",
"215 -10 CURVE SMOOTH",
"270 -13 OFFCURVE",
"332 -17 OFFCURVE",
"358 -23 CURVE SMOOTH",
"429 -40 OFFCURVE",
"448 -76 OFFCURVE",
"448 -110 CURVE SMOOTH",
"448 -177 OFFCURVE",
"366 -225 OFFCURVE",
"257 -225 CURVE SMOOTH",
"146 -225 OFFCURVE",
"64 -177 OFFCURVE",
"64 -113 CURVE SMOOTH",
"64 -65 OFFCURVE",
"102 -27 OFFCURVE",
"214 -7 CURVE",
"209 17 LINE",
"89 0 OFFCURVE",
"28 -42 OFFCURVE",
"28 -114 CURVE SMOOTH",
"28 -188 OFFCURVE",
"108 -275 OFFCURVE",
"257 -275 CURVE SMOOTH"
);
},
{
closed = 1;
nodes = (
"382 166 OFFCURVE",
"462 225 OFFCURVE",
"462 310 CURVE SMOOTH",
"462 395 OFFCURVE",
"382 450 OFFCURVE",
"257 450 CURVE SMOOTH",
"131 450 OFFCURVE",
"53 395 OFFCURVE",
"53 310 CURVE SMOOTH",
"53 225 OFFCURVE",
"131 166 OFFCURVE",
"257 166 CURVE SMOOTH"
);
},
{
closed = 1;
nodes = (
"200 196 OFFCURVE",
"158 239 OFFCURVE",
"158 310 CURVE SMOOTH",
"158 380 OFFCURVE",
"200 420 OFFCURVE",
"257 420 CURVE SMOOTH",
"314 420 OFFCURVE",
"357 380 OFFCURVE",
"357 310 CURVE SMOOTH",
"357 239 OFFCURVE",
"314 196 OFFCURVE",
"257 196 CURVE SMOOTH"
);
},
{
closed = 1;
nodes = (
"273 435 LINE",
"273 521 LINE SMOOTH",
"273 565 OFFCURVE",
"284 581 OFFCURVE",
"302 581 CURVE SMOOTH",
"314 581 OFFCURVE",
"318 574 OFFCURVE",
"318 566 CURVE SMOOTH",
"318 560 OFFCURVE",
"316 549 OFFCURVE",
"316 542 CURVE SMOOTH",
"316 515 OFFCURVE",
"338 495 OFFCURVE",
"368 495 CURVE SMOOTH",
"403 495 OFFCURVE",
"428 522 OFFCURVE",
"428 558 CURVE SMOOTH",
"428 603 OFFCURVE",
"391 635 OFFCURVE",
"340 635 CURVE SMOOTH",
"270 635 OFFCURVE",
"241 588 OFFCURVE",
"241 525 CURVE SMOOTH",
"241 435 LINE"
);
}
);
width = 527;
},
{
background = {
paths = (
{
closed = 1;
nodes = (
"378 388 OFFCURVE",
"334 448 OFFCURVE",
"230 448 CURVE SMOOTH",
"125 448 OFFCURVE",
"50 368 OFFCURVE",
"50 220 CURVE SMOOTH",
"50 72 OFFCURVE",
"125 -8 OFFCURVE",
"230 -8 CURVE SMOOTH",
"334 -8 OFFCURVE",
"378 45 OFFCURVE",
"378 220 CURVE SMOOTH"
);
},
{
closed = 1;
nodes = (
"191 26 OFFCURVE",
"155 79 OFFCURVE",
"155 220 CURVE SMOOTH",
"155 361 OFFCURVE",
"191 414 OFFCURVE",
"250 414 CURVE SMOOTH",
"303 414 OFFCURVE",
"353 380 OFFCURVE",
"353 220 CURVE SMOOTH",
"353 60 OFFCURVE",
"303 26 OFFCURVE",
"250 26 CURVE SMOOTH"
);
},
{
closed = 1;
nodes = (
"356 332 LINE",
"366 220 LINE",
"350 99 LINE",
"350 -102 LINE SMOOTH",
"350 -200 OFFCURVE",
"312 -240 OFFCURVE",
"250 -240 CURVE SMOOTH",
"218 -240 OFFCURVE",
"194 -221 OFFCURVE",
"194 -190 CURVE SMOOTH",
"194 -168 OFFCURVE",
"207 -160 OFFCURVE",
"207 -131 CURVE SMOOTH",
"207 -94 OFFCURVE",
"180 -67 OFFCURVE",
"140 -67 CURVE SMOOTH",
"101 -67 OFFCURVE",
"73 -96 OFFCURVE",
"73 -142 CURVE SMOOTH",
"73 -215 OFFCURVE",
"142 -272 OFFCURVE",
"258 -272 CURVE SMOOTH",
"381 -272 OFFCURVE",
"450 -203 OFFCURVE",
"450 -98 CURVE SMOOTH",
"450 440 LINE",
"356 440 LINE"
);
}
);
};
layerId = "28D540C6-4B1C-4739-9DB3-C8E6E4DDF73A";
paths = (
{
closed = 1;
nodes = (
"872 -275 OFFCURVE",
"994 -169 OFFCURVE",
"994 -83 CURVE SMOOTH",
"994 -7 OFFCURVE",
"904 52 OFFCURVE",
"734 66 CURVE SMOOTH",
"648 73 OFFCURVE",
"524 76 OFFCURVE",
"444 77 CURVE SMOOTH",
"332 79 OFFCURVE",
"286 92 OFFCURVE",
"286 118 CURVE SMOOTH",
"286 149 OFFCURVE",
"314 162 OFFCURVE",
"370 191 CURVE",
"306 202 LINE",
"214 171 OFFCURVE",
"148 140 OFFCURVE",
"148 90 CURVE SMOOTH",
"148 30 OFFCURVE",
"250 -5 OFFCURVE",
"430 -10 CURVE SMOOTH",
"540 -13 OFFCURVE",
"664 -17 OFFCURVE",
"716 -23 CURVE SMOOTH",
"858 -40 OFFCURVE",
"896 -76 OFFCURVE",
"896 -110 CURVE SMOOTH",
"896 -177 OFFCURVE",
"732 -225 OFFCURVE",
"514 -225 CURVE SMOOTH",
"292 -225 OFFCURVE",
"128 -177 OFFCURVE",
"128 -113 CURVE SMOOTH",
"128 -65 OFFCURVE",
"204 -27 OFFCURVE",
"428 -7 CURVE",
"418 17 LINE",
"178 0 OFFCURVE",
"56 -42 OFFCURVE",
"56 -114 CURVE SMOOTH",
"56 -188 OFFCURVE",
"216 -275 OFFCURVE",
"514 -275 CURVE SMOOTH"
);
},
{
closed = 1;
nodes = (
"764 166 OFFCURVE",
"924 225 OFFCURVE",
"924 310 CURVE SMOOTH",
"924 395 OFFCURVE",
"764 450 OFFCURVE",
"514 450 CURVE SMOOTH",
"262 450 OFFCURVE",
"106 395 OFFCURVE",
"106 310 CURVE SMOOTH",
"106 225 OFFCURVE",
"262 166 OFFCURVE",
"514 166 CURVE SMOOTH"
);
},
{
closed = 1;
nodes = (
"400 196 OFFCURVE",
"316 239 OFFCURVE",
"316 310 CURVE SMOOTH",
"316 380 OFFCURVE",
"400 420 OFFCURVE",
"514 420 CURVE SMOOTH",
"628 420 OFFCURVE",
"714 380 OFFCURVE",
"714 310 CURVE SMOOTH",
"714 239 OFFCURVE",
"628 196 OFFCURVE",
"514 196 CURVE SMOOTH"
);
},
{
closed = 1;
nodes = (
"546 435 LINE",
"546 521 LINE SMOOTH",
"546 565 OFFCURVE",
"568 581 OFFCURVE",
"604 581 CURVE SMOOTH",
"628 581 OFFCURVE",
"636 574 OFFCURVE",
"636 566 CURVE SMOOTH",
"636 560 OFFCURVE",
"632 549 OFFCURVE",
"632 542 CURVE SMOOTH",
"632 515 OFFCURVE",
"676 495 OFFCURVE",
"736 495 CURVE SMOOTH",
"806 495 OFFCURVE",
"856 522 OFFCURVE",
"856 558 CURVE SMOOTH",
"856 603 OFFCURVE",
"782 635 OFFCURVE",
"680 635 CURVE SMOOTH",
"540 635 OFFCURVE",
"482 588 OFFCURVE",
"482 525 CURVE SMOOTH",
"482 435 LINE"
);
}
);
width = 1054;
}
);
unicode = 0067;
userData = {
com.typemytype.robofont.guides = (
);
com.typemytype.robofont.layerData = {
background = {
anchors = (
);
components = (
);
contours = (
{
points = (
{
segmentType = curve;
smooth = 1;
x = 257;
y = -275;
},
{
smooth = 0;
x = 436.4958;
y = -275;
},
{
smooth = 0;
x = 497;
y = -169;
},
{
segmentType = curve;
smooth = 1;
x = 497;
y = -83;
},
{
smooth = 0;
x = 497;
y = -7;
},
{
smooth = 0;
x = 452;
y = 52;
},
{
segmentType = curve;
smooth = 1;
x = 367;
y = 66;
},
{
smooth = 0;
x = 324;
y = 73;
},
{
smooth = 0;
x = 262.12526;
y = 76.02134;
},
{
segmentType = curve;
smooth = 1;
x = 222;
y = 77;
},
{
smooth = 0;
x = 166;
y = 79;
},
{
smooth = 0;
x = 143;
y = 92;
},
{
segmentType = curve;
smooth = 1;
x = 143;
y = 118;
},
{
smooth = 0;
x = 143;
y = 150;
},
{
smooth = 0;
x = 174;
y = 163;
},
{
segmentType = curve;
smooth = 1;
x = 257;
y = 165;
},
{
smooth = 0;
x = 382.3887;
y = 167.98545;
},
{
smooth = 0;
x = 462;
y = 222;
},
{
segmentType = curve;
smooth = 1;
x = 462;
y = 310;
},
{
smooth = 0;
x = 462;
y = 394;
},
{
smooth = 0;
x = 382.38835;
y = 450;
},
{
segmentType = curve;
smooth = 1;
x = 257;
y = 450;
},
{
smooth = 0;
x = 131;
y = 450;
},
{
smooth = 0;
x = 53;
y = 394;
},
{
segmentType = curve;
smooth = 1;
x = 53;
y = 310;
},
{
smooth = 0;
x = 53;
y = 229;
},
{
smooth = 0;
x = 125;
y = 174;
},
{
segmentType = curve;
smooth = 0;
x = 242;
y = 174;
},
{
segmentType = line;
smooth = 0;
x = 242;
y = 191;
},
{
smooth = 0;
x = 117;
y = 191;
},
{
smooth = 0;
x = 74;
y = 139.52885;
},
{
segmentType = curve;
smooth = 1;
x = 74;
y = 90;
},
{
smooth = 0;
x = 74;
y = 30;
},
{
smooth = 0;
x = 129;
y = -1;
},
{
segmentType = curve;
smooth = 0;
x = 175;
y = -7;
},
{
segmentType = line;
smooth = 0;
x = 258;
y = 14;
},
{
smooth = 0;
x = 92;
y = 14;
},
{
smooth = 0;
x = 28;
y = -42;
},
{
segmentType = curve;
smooth = 1;
x = 28;
y = -114;
},
{
smooth = 0;
x = 28;
y = -188;
},
{
smooth = 0;
x = 107.95259;
y = -275;
}
);
},
{
points = (
{
segmentType = line;
smooth = 0;
x = 242;
y = 335;
},
{
segmentType = line;
smooth = 0;
x = 274;
y = 335;
},
{
segmentType = line;
smooth = 1;
x = 274;
y = 521;
},
{
smooth = 0;
x = 274;
y = 565;
},
{
smooth = 0;
x = 284.63333;
y = 581;
},
{
segmentType = curve;
smooth = 1;
x = 303;
y = 581;
},
{
smooth = 0;
x = 326;
y = 581;
},
{
smooth = 0;
x = 317;
y = 557;
},
{
segmentType = curve;
smooth = 1;
x = 317;
y = 542;
},
{
smooth = 0;
x = 317;
y = 515;
},
{
smooth = 0;
x = 339;
y = 495;
},
{
segmentType = curve;
smooth = 1;
x = 369;
y = 495;
},
{
smooth = 0;
x = 404;
y = 495;
},
{
smooth = 0;
x = 429;
y = 522;
},
{
segmentType = curve;
smooth = 1;
x = 429;
y = 558;
},
{
smooth = 0;
x = 429;
y = 603;
},
{
smooth = 0;
x = 392;
y = 635;
},
{
segmentType = curve;
smooth = 1;
x = 341;
y = 635;
},
{
smooth = 0;
x = 271.29592;
y = 635;
},
{
smooth = 0;
x = 242;
y = 588;
},
{
segmentType = curve;
smooth = 1;
x = 242;
y = 525;
}
);
},
{
points = (
{
segmentType = line;
smooth = 0;
x = 135;
y = -10;
},
{
segmentType = line;
smooth = 0;
x = 265;
y = -10;
},
{
segmentType = line;
smooth = 0;
x = 265;
y = 15;
},
{
segmentType = line;
smooth = 0;
x = 137;
y = 15;
}
);
},
{
points = (
{
segmentType = line;
smooth = 0;
x = 159;
y = 170;
},
{
segmentType = line;
smooth = 0;
x = 248;
y = 170;
},
{
segmentType = line;
smooth = 0;
x = 248;
y = 195;
},
{
segmentType = line;
smooth = 0;
x = 159;
y = 195;
}
);
},
{
points = (
{
segmentType = curve;
smooth = 1;
x = 257;
y = -13;
},
{
smooth = 0;
x = 412;
y = -13;
},
{
smooth = 0;
x = 448;
y = -63;
},
{
segmentType = curve;
smooth = 1;
x = 448;
y = -110;
},
{
smooth = 0;
x = 448;
y = -177;
},
{
smooth = 0;
x = 365.72308;
y = -225;
},
{
segmentType = curve;
smooth = 1;
x = 257;
y = -225;
},
{
smooth = 0;
x = 146;
y = -225;
},
{
smooth = 0;
x = 64;
y = -177;
},
{
segmentType = curve;
smooth = 1;
x = 64;
y = -113;
},
{
smooth = 0;
x = 64;
y = -57;
},
{
smooth = 0;
x = 118;
y = -13;
}
);
},
{
points = (
{
segmentType = curve;
smooth = 1;
x = 257;
y = 420;
},
{
smooth = 0;
x = 314;
y = 420;
},
{
smooth = 0;
x = 357;
y = 380;
},
{
segmentType = curve;
smooth = 1;
x = 357;
y = 310;
},
{
smooth = 0;
x = 357;
y = 239;
},
{
smooth = 0;
x = 314;
y = 196;
},
{
segmentType = curve;
smooth = 1;
x = 257;
y = 196;
},
{
smooth = 0;
x = 200;
y = 196;
},
{
smooth = 0;
x = 158;
y = 239;
},
{
segmentType = curve;
smooth = 1;
x = 158;
y = 310;
},
{
smooth = 0;
x = 158;
y = 380;
},
{
smooth = 0;
x = 200;
y = 420;
}
);
}
);
lib = {
};
name = g;
unicodes = (
);
width = 527;
};
};
com.typemytype.robofont.mark = (
0.9366,
0.9212,
0.4821,
1
);
};
},
{
glyphname = h;
lastChange = "2019-11-10 16:40:31 +0000";
layers = (
{
background = {
paths = (
{
closed = 1;
nodes = (
"138 0 LINE",
"138 30 LINE",
"115 30 LINE SMOOTH",
"100 30 OFFCURVE",
"95 44 OFFCURVE",
"95 68 CURVE SMOOTH",
"95 266 LINE SMOOTH",
"95 365 OFFCURVE",
"114 414 OFFCURVE",
"143 414 CURVE SMOOTH",
"172 414 OFFCURVE",
"181 383 OFFCURVE",
"181 314 CURVE SMOOTH",
"181 68 LINE",
"181 44 LINE",
"181 44 OFFCURVE",
"181 30 OFFCURVE",
"181 30 CURVE",
"181 0 LINE",
"274 0 LINE",
"274 30 LINE",
"253 30 LINE SMOOTH",
"237 30 OFFCURVE",
"231 44 OFFCURVE",
"231 68 CURVE SMOOTH",
"231 316 LINE SMOOTH",
"231 400 OFFCURVE",
"209 450 OFFCURVE",
"157 450 CURVE SMOOTH",
"122 450 OFFCURVE",
"86 418 OFFCURVE",
"86 306 CURVE",
"95 306 LINE",
"95 670 LINE",
"0 670 LINE",
"0 640 LINE",
"24 640 LINE SMOOTH",
"40 640 OFFCURVE",
"45 625 OFFCURVE",
"45 597 CURVE SMOOTH",
"45 68 LINE SMOOTH",
"45 44 OFFCURVE",
"40 30 OFFCURVE",
"27 30 CURVE SMOOTH",
"3 30 LINE",
"3 0 LINE"
);
}
);
};
color = 4;
layerId = "ADE64B87-3839-4AD4-BD35-A3CFF79840FC";
paths = (
{
closed = 1;
nodes = (
"135 0 LINE",
"135 24 LINE",
"103 24 LINE SMOOTH",
"91 24 OFFCURVE",
"88 30 OFFCURVE",
"88 40 CURVE SMOOTH",
"88 339 LINE SMOOTH",
"88 396 OFFCURVE",
"114 425 OFFCURVE",
"147 425 CURVE SMOOTH",
"179 425 OFFCURVE",
"192 405 OFFCURVE",
"192 366 CURVE SMOOTH",
"192 40 LINE",
"192 34 OFFCURVE",
"192 29 OFFCURVE",
"192 24 CURVE",
"192 24 LINE",
"192 0 LINE",
"272 0 LINE",
"272 24 LINE",
"240 24 LINE SMOOTH",
"229 24 OFFCURVE",
"224 30 OFFCURVE",
"224 40 CURVE SMOOTH",
"224 369 LINE SMOOTH",
"224 418 OFFCURVE",
"204 452 OFFCURVE",
"158 452 CURVE SMOOTH",
"111 452 OFFCURVE",
"72 420 OFFCURVE",
"72 308 CURVE",
"88 386 LINE",
"88 670 LINE",
"8 670 LINE",
"8 646 LINE",
"40 646 LINE SMOOTH",
"52 646 OFFCURVE",
"56 639 OFFCURVE",
"56 630 CURVE SMOOTH",
"56 40 LINE SMOOTH",
"56 30 OFFCURVE",
"53 24 OFFCURVE",
"40 24 CURVE SMOOTH",
"8 24 LINE",
"8 0 LINE"
);
}
);
width = 280;
},
{
background = {
paths = (
{
closed = 1;
nodes = (
"530 -10 OFFCURVE",
"587 28 OFFCURVE",
"644 130 CURVE",
"616 145 LINE",
"572 65 OFFCURVE",
"529 32 OFFCURVE",
"489 32 CURVE SMOOTH",
"457 32 OFFCURVE",
"433 56 OFFCURVE",
"433 118 CURVE SMOOTH",
"433 328 LINE SMOOTH",
"433 404 OFFCURVE",
"393 450 OFFCURVE",
"300 450 CURVE SMOOTH",
"235 450 OFFCURVE",
"166 417 OFFCURVE",
"166 306 CURVE",
"185 306 LINE",
"185 670 LINE",
"-15 670 LINE",
"-15 640 LINE",
"42 640 LINE SMOOTH",
"74 640 OFFCURVE",
"85 625 OFFCURVE",
"85 597 CURVE SMOOTH",
"85 0 LINE SMOOTH",
"185 0 LINE",
"185 281 LINE SMOOTH",
"185 364 OFFCURVE",
"215 412 OFFCURVE",
"268 412 CURVE SMOOTH",
"313 412 OFFCURVE",
"333 384 OFFCURVE",
"333 327 CURVE SMOOTH",
"333 120 LINE SMOOTH",
"333 57 OFFCURVE",
"356 -10 OFFCURVE",
"459 -10 CURVE SMOOTH"
);
}
);
};
layerId = "484F8FD9-52EC-47CF-91D8-DA5450121283";
paths = (
{
closed = 1;
nodes = (
"275 0 LINE",
"275 30 LINE",
"230 30 LINE SMOOTH",
"200 30 OFFCURVE",
"190 44 OFFCURVE",
"190 68 CURVE SMOOTH",
"190 266 LINE SMOOTH",
"190 365 OFFCURVE",
"227 414 OFFCURVE",
"285 414 CURVE SMOOTH",
"343 414 OFFCURVE",
"362 383 OFFCURVE",
"362 314 CURVE SMOOTH",
"362 68 LINE",
"362 55 OFFCURVE",
"362 43 OFFCURVE",
"362 30 CURVE",
"362 30 LINE",
"362 0 LINE",
"547 0 LINE",
"547 30 LINE",
"505 30 LINE SMOOTH",
"474 30 OFFCURVE",
"462 44 OFFCURVE",
"462 68 CURVE SMOOTH",
"462 316 LINE SMOOTH",
"462 400 OFFCURVE",
"418 450 OFFCURVE",
"314 450 CURVE SMOOTH",
"243 450 OFFCURVE",
"172 418 OFFCURVE",
"172 306 CURVE",
"190 306 LINE",
"190 670 LINE",
"0 670 LINE",
"0 640 LINE",
"47 640 LINE SMOOTH",
"79 640 OFFCURVE",
"90 625 OFFCURVE",
"90 597 CURVE SMOOTH",
"90 68 LINE SMOOTH",
"90 44 OFFCURVE",
"80 30 OFFCURVE",
"53 30 CURVE SMOOTH",
"5 30 LINE",
"5 0 LINE"
);
}
);
width = 552;
},
{
background = {
paths = (
{
closed = 1;
nodes = (
"530 -10 OFFCURVE",
"587 28 OFFCURVE",
"644 130 CURVE",
"616 145 LINE",
"572 65 OFFCURVE",
"529 32 OFFCURVE",
"489 32 CURVE SMOOTH",
"457 32 OFFCURVE",
"433 56 OFFCURVE",
"433 118 CURVE SMOOTH",
"433 328 LINE SMOOTH",
"433 404 OFFCURVE",
"393 450 OFFCURVE",
"300 450 CURVE SMOOTH",
"235 450 OFFCURVE",
"166 417 OFFCURVE",
"166 306 CURVE",
"185 306 LINE",
"185 670 LINE",
"-15 670 LINE",
"-15 640 LINE",
"42 640 LINE SMOOTH",
"74 640 OFFCURVE",
"85 625 OFFCURVE",
"85 597 CURVE SMOOTH",
"85 0 LINE SMOOTH",
"185 0 LINE",
"185 281 LINE SMOOTH",
"185 364 OFFCURVE",
"215 412 OFFCURVE",
"268 412 CURVE SMOOTH",
"313 412 OFFCURVE",
"333 384 OFFCURVE",
"333 327 CURVE SMOOTH",
"333 120 LINE SMOOTH",
"333 57 OFFCURVE",
"356 -10 OFFCURVE",
"459 -10 CURVE SMOOTH"
);
}
);
};
layerId = "28D540C6-4B1C-4739-9DB3-C8E6E4DDF73A";
paths = (
{
closed = 1;
nodes = (
"550 0 LINE",
"550 30 LINE",
"460 30 LINE SMOOTH",
"400 30 OFFCURVE",
"380 44 OFFCURVE",
"380 68 CURVE SMOOTH",
"380 266 LINE SMOOTH",
"380 365 OFFCURVE",
"454 414 OFFCURVE",
"570 414 CURVE SMOOTH",
"686 414 OFFCURVE",
"724 383 OFFCURVE",
"724 314 CURVE SMOOTH",
"724 68 LINE",
"724 55 OFFCURVE",
"724 43 OFFCURVE",
"724 30 CURVE",
"724 30 LINE",
"724 0 LINE",
"1094 0 LINE",
"1094 30 LINE",
"1010 30 LINE SMOOTH",
"948 30 OFFCURVE",
"924 44 OFFCURVE",
"924 68 CURVE SMOOTH",
"924 316 LINE SMOOTH",
"924 400 OFFCURVE",
"836 450 OFFCURVE",
"628 450 CURVE SMOOTH",
"486 450 OFFCURVE",
"344 418 OFFCURVE",
"344 306 CURVE",
"380 306 LINE",
"380 670 LINE",
"0 670 LINE",
"0 640 LINE",
"94 640 LINE SMOOTH",
"158 640 OFFCURVE",
"180 625 OFFCURVE",
"180 597 CURVE SMOOTH",
"180 68 LINE SMOOTH",
"180 44 OFFCURVE",
"160 30 OFFCURVE",
"106 30 CURVE SMOOTH",
"10 30 LINE",
"10 0 LINE"
);
}
);
width = 1104;
}
);
leftKerningGroup = h;
leftMetricsKey = n;
rightKerningGroup = a;
rightMetricsKey = n;
unicode = 0068;
userData = {
com.typemytype.robofont.layerData = {
background = {
anchors = (
);
components = (
);
contours = (
{
points = (
{
segmentType = line;
smooth = 0;
x = 190;
y = 670;
},
{
segmentType = line;
smooth = 0;
x = -1;
y = 670;
},
{
segmentType = line;
smooth = 0;
x = -1;
y = 640;
},
{
segmentType = line;
smooth = 1;
x = 47;
y = 640;
},
{
smooth = 0;
x = 79;
y = 640;
},
{
smooth = 0;
x = 90;
y = 625;
},
{
segmentType = curve;
smooth = 1;
x = 90;
y = 597;
},
{
segmentType = line;
smooth = 1;
x = 90;
y = 68;
},
{
smooth = 0;
x = 90;
y = 44;
},
{
smooth = 0;
x = 80;
y = 30;
},
{
segmentType = curve;
smooth = 1;
x = 53;
y = 30;
},
{
segmentType = line;
smooth = 0;
x = 6;
y = 30;
},
{
segmentType = line;
smooth = 0;
x = 6;
y = 0;
},
{
segmentType = line;
smooth = 0;
x = 275;
y = 0;
},
{
segmentType = line;
smooth = 0;
x = 275;
y = 30;
},
{
segmentType = line;
smooth = 1;
x = 230;
y = 30;
},
{
smooth = 0;
x = 200;
y = 30;
},
{
smooth = 0;
x = 190;
y = 44;
},
{
segmentType = curve;
smooth = 1;
x = 190;
y = 68;
},
{
segmentType = line;
smooth = 1;
x = 190;
y = 266;
},
{
smooth = 0;
x = 190;
y = 370;
},
{
smooth = 0;
x = 224;
y = 422;
},
{
segmentType = curve;
smooth = 1;
x = 286;
y = 422;
},
{
smooth = 0;
x = 344;
y = 422;
},
{
smooth = 0;
x = 362;
y = 391;
},
{
segmentType = curve;
smooth = 1;
x = 362;
y = 327;
},
{
segmentType = line;
smooth = 0;
x = 362;
y = 0;
},
{
segmentType = line;
smooth = 0;
x = 552;
y = 0;
},
{
segmentType = line;
smooth = 0;
x = 552;
y = 30;
},
{
segmentType = line;
smooth = 1;
x = 505;
y = 30;
},
{
smooth = 0;
x = 474;
y = 30;
},
{
smooth = 0;
x = 462;
y = 44;
},
{
segmentType = curve;
smooth = 1;
x = 462;
y = 68;
},
{
segmentType = line;
smooth = 1;
x = 462;
y = 328;
},
{
smooth = 0;
x = 462;
y = 409;
},
{
smooth = 0;
x = 418;
y = 458;
},
{
segmentType = curve;
smooth = 1;
x = 314;
y = 458;
},
{
smooth = 0;
x = 243;
y = 458;
},
{
smooth = 0;
x = 171;
y = 427;
},
{
segmentType = curve;
smooth = 0;
x = 171;
y = 306;
},
{
segmentType = line;
smooth = 0;
x = 190;
y = 306;
}
);
}
);
lib = {
};
name = h;
unicodes = (
);
width = 552;
};
};
com.typemytype.robofont.mark = (
0.9366,
0.9212,
0.4821,
1
);
};
},
{
glyphname = i;
lastChange = "2018-07-13 09:52:20 +0000";
layers = (
{
background = {
paths = (
{
closed = 1;
nodes = (
"282 -10 OFFCURVE",
"339 28 OFFCURVE",
"396 130 CURVE",
"368 145 LINE",
"324 65 OFFCURVE",
"281 32 OFFCURVE",
"241 32 CURVE SMOOTH",
"209 32 OFFCURVE",
"185 56 OFFCURVE",
"185 118 CURVE SMOOTH",
"185 440 LINE",
"-10 440 LINE",
"-10 410 LINE",
"42 410 LINE SMOOTH",
"74 410 OFFCURVE",
"85 395 OFFCURVE",
"85 367 CURVE SMOOTH",
"85 120 LINE SMOOTH",
"85 57 OFFCURVE",
"108 -10 OFFCURVE",
"211 -10 CURVE SMOOTH"
);
},
{
closed = 1;
nodes = (
"163 540 OFFCURVE",
"190 567 OFFCURVE",
"190 604 CURVE SMOOTH",
"190 640 OFFCURVE",
"163 667 OFFCURVE",
"126 667 CURVE SMOOTH",
"89 667 OFFCURVE",
"62 640 OFFCURVE",
"62 604 CURVE SMOOTH",
"62 567 OFFCURVE",
"89 540 OFFCURVE",
"126 540 CURVE SMOOTH"
);
}
);
};
layerId = "ADE64B87-3839-4AD4-BD35-A3CFF79840FC";
paths = (
{
closed = 1;
nodes = (
"140 0 LINE",
"140 30 LINE",
"118 30 LINE SMOOTH",
"103 30 OFFCURVE",
"98 44 OFFCURVE",
"98 68 CURVE SMOOTH",
"98 440 LINE",
"2 440 LINE",
"2 410 LINE",
"26 410 LINE SMOOTH",
"42 410 OFFCURVE",
"48 395 OFFCURVE",
"48 367 CURVE SMOOTH",
"48 68 LINE SMOOTH",
"48 44 OFFCURVE",
"43 30 OFFCURVE",
"29 30 CURVE SMOOTH",
"6 30 LINE",
"6 0 LINE"
);
},
{
closed = 1;
nodes = (
"89 540 OFFCURVE",
"103 567 OFFCURVE",
"103 604 CURVE SMOOTH",
"103 640 OFFCURVE",
"89 667 OFFCURVE",
"71 667 CURVE SMOOTH",
"52 667 OFFCURVE",
"39 640 OFFCURVE",
"39 604 CURVE SMOOTH",
"39 567 OFFCURVE",
"52 540 OFFCURVE",
"71 540 CURVE SMOOTH"
);
}
);
width = 145;
},
{
background = {
paths = (
{
closed = 1;
nodes = (
"282 -10 OFFCURVE",
"339 28 OFFCURVE",
"396 130 CURVE",
"368 145 LINE",
"324 65 OFFCURVE",
"281 32 OFFCURVE",
"241 32 CURVE SMOOTH",
"209 32 OFFCURVE",
"185 56 OFFCURVE",
"185 118 CURVE SMOOTH",
"185 440 LINE",
"-10 440 LINE",
"-10 410 LINE",
"42 410 LINE SMOOTH",
"74 410 OFFCURVE",
"85 395 OFFCURVE",
"85 367 CURVE SMOOTH",
"85 120 LINE SMOOTH",
"85 57 OFFCURVE",
"108 -10 OFFCURVE",
"211 -10 CURVE SMOOTH"
);
},
{
closed = 1;
nodes = (
"163 540 OFFCURVE",
"190 567 OFFCURVE",
"190 604 CURVE SMOOTH",
"190 640 OFFCURVE",
"163 667 OFFCURVE",
"126 667 CURVE SMOOTH",
"89 667 OFFCURVE",
"62 640 OFFCURVE",
"62 604 CURVE SMOOTH",
"62 567 OFFCURVE",
"89 540 OFFCURVE",
"126 540 CURVE SMOOTH"
);
}
);
};
layerId = "484F8FD9-52EC-47CF-91D8-DA5450121283";
paths = (
{
closed = 1;
nodes = (
"280 0 LINE",
"280 30 LINE",
"235 30 LINE SMOOTH",
"205 30 OFFCURVE",
"195 44 OFFCURVE",
"195 68 CURVE SMOOTH",
"195 440 LINE",
"4 440 LINE",
"4 410 LINE",
"52 410 LINE SMOOTH",
"84 410 OFFCURVE",
"95 395 OFFCURVE",
"95 367 CURVE SMOOTH",
"95 68 LINE SMOOTH",
"95 44 OFFCURVE",
"85 30 OFFCURVE",
"58 30 CURVE SMOOTH",
"11 30 LINE",
"11 0 LINE"
);
},
{
closed = 1;
nodes = (
"178 540 OFFCURVE",
"205 567 OFFCURVE",
"205 604 CURVE SMOOTH",
"205 640 OFFCURVE",
"178 667 OFFCURVE",
"141 667 CURVE SMOOTH",
"104 667 OFFCURVE",
"77 640 OFFCURVE",
"77 604 CURVE SMOOTH",
"77 567 OFFCURVE",
"104 540 OFFCURVE",
"141 540 CURVE SMOOTH"
);
}
);
width = 290;
},
{
background = {
paths = (
{
closed = 1;
nodes = (
"282 -10 OFFCURVE",
"339 28 OFFCURVE",
"396 130 CURVE",
"368 145 LINE",
"324 65 OFFCURVE",
"281 32 OFFCURVE",
"241 32 CURVE SMOOTH",
"209 32 OFFCURVE",
"185 56 OFFCURVE",
"185 118 CURVE SMOOTH",
"185 440 LINE",
"-10 440 LINE",
"-10 410 LINE",
"42 410 LINE SMOOTH",
"74 410 OFFCURVE",
"85 395 OFFCURVE",
"85 367 CURVE SMOOTH",
"85 120 LINE SMOOTH",
"85 57 OFFCURVE",
"108 -10 OFFCURVE",
"211 -10 CURVE SMOOTH"
);
},
{
closed = 1;
nodes = (
"163 540 OFFCURVE",
"190 567 OFFCURVE",
"190 604 CURVE SMOOTH",
"190 640 OFFCURVE",
"163 667 OFFCURVE",
"126 667 CURVE SMOOTH",
"89 667 OFFCURVE",
"62 640 OFFCURVE",
"62 604 CURVE SMOOTH",
"62 567 OFFCURVE",
"89 540 OFFCURVE",
"126 540 CURVE SMOOTH"
);
}
);
};
layerId = "28D540C6-4B1C-4739-9DB3-C8E6E4DDF73A";
paths = (
{
closed = 1;
nodes = (
"560 0 LINE",
"560 30 LINE",
"470 30 LINE SMOOTH",
"410 30 OFFCURVE",
"390 44 OFFCURVE",
"390 68 CURVE SMOOTH",
"390 440 LINE",
"8 440 LINE",
"8 410 LINE",
"104 410 LINE SMOOTH",
"168 410 OFFCURVE",
"190 395 OFFCURVE",
"190 367 CURVE SMOOTH",
"190 68 LINE SMOOTH",
"190 44 OFFCURVE",
"170 30 OFFCURVE",
"116 30 CURVE SMOOTH",
"22 30 LINE",
"22 0 LINE"
);
},
{
closed = 1;
nodes = (
"356 540 OFFCURVE",
"410 567 OFFCURVE",
"410 604 CURVE SMOOTH",
"410 640 OFFCURVE",
"356 667 OFFCURVE",
"282 667 CURVE SMOOTH",
"208 667 OFFCURVE",
"154 640 OFFCURVE",
"154 604 CURVE SMOOTH",
"154 567 OFFCURVE",
"208 540 OFFCURVE",
"282 540 CURVE SMOOTH"
);
}
);
width = 580;
}
);
rightKerningGroup = d;
unicode = 0069;
userData = {
com.typemytype.robofont.guides = (
{
angle = 90;
isGlobal = 0;
magnetic = 5;
x = 105;
y = 322;
},
{
angle = 90;
isGlobal = 0;
magnetic = 5;
x = 205;
y = 316;
}
);
com.typemytype.robofont.layerData = {
background = {
anchors = (
);
components = (
);
contours = (
);
lib = {
};
name = i;
unicodes = (
);
width = 290;
};
};
};
},
{
glyphname = j;
lastChange = "2018-07-13 09:52:20 +0000";
layers = (
{
background = {
paths = (
{
closed = 1;
nodes = (
"188 540 OFFCURVE",
"215 567 OFFCURVE",
"215 604 CURVE SMOOTH",
"215 640 OFFCURVE",
"188 667 OFFCURVE",
"151 667 CURVE SMOOTH",
"114 667 OFFCURVE",
"87 640 OFFCURVE",
"87 604 CURVE SMOOTH",
"87 567 OFFCURVE",
"114 540 OFFCURVE",
"151 540 CURVE SMOOTH"
);
},
{
closed = 1;
nodes = (
"4 440 LINE",
"4 410 LINE",
"62 410 LINE SMOOTH",
"94 410 OFFCURVE",
"105 395 OFFCURVE",
"105 367 CURVE SMOOTH",
"105 -126 LINE SMOOTH",
"105 -210 OFFCURVE",
"75 -240 OFFCURVE",
"22 -240 CURVE SMOOTH",
"-11 -240 OFFCURVE",
"-29 -228 OFFCURVE",
"-29 -209 CURVE SMOOTH",
"-29 -186 OFFCURVE",
"-14 -174 OFFCURVE",
"-14 -145 CURVE SMOOTH",
"-14 -110 OFFCURVE",
"-40 -83 OFFCURVE",
"-78 -83 CURVE SMOOTH",
"-115 -83 OFFCURVE",
"-142 -112 OFFCURVE",
"-142 -157 CURVE SMOOTH",
"-142 -218 OFFCURVE",
"-81 -272 OFFCURVE",
"20 -272 CURVE SMOOTH",
"143 -272 OFFCURVE",
"205 -212 OFFCURVE",
"205 -117 CURVE SMOOTH",
"205 440 LINE"
);
}
);
};
layerId = "ADE64B87-3839-4AD4-BD35-A3CFF79840FC";
paths = (
{
closed = 1;
nodes = (
"97 540 OFFCURVE",
"110 567 OFFCURVE",
"110 604 CURVE SMOOTH",
"110 640 OFFCURVE",
"97 667 OFFCURVE",
"78 667 CURVE SMOOTH",
"60 667 OFFCURVE",
"46 640 OFFCURVE",
"46 604 CURVE SMOOTH",
"46 567 OFFCURVE",
"60 540 OFFCURVE",
"78 540 CURVE SMOOTH"
);
},
{
closed = 1;
nodes = (
"10 440 LINE",
"10 410 LINE",
"34 410 LINE SMOOTH",
"50 410 OFFCURVE",
"55 395 OFFCURVE",
"55 367 CURVE SMOOTH",
"55 -141 LINE SMOOTH",
"55 -225 OFFCURVE",
"48 -255 OFFCURVE",
"24 -255 CURVE SMOOTH",
"8 -255 OFFCURVE",
"-2 -237 OFFCURVE",
"-2 -215 CURVE SMOOTH",
"-2 -186 OFFCURVE",
"10 -166 OFFCURVE",
"10 -142 CURVE SMOOTH",
"10 -110 OFFCURVE",
"-2 -86 OFFCURVE",
"-20 -86 CURVE SMOOTH",
"-38 -86 OFFCURVE",
"-51 -114 OFFCURVE",
"-51 -154 CURVE SMOOTH",
"-51 -231 OFFCURVE",
"-18 -287 OFFCURVE",
"24 -287 CURVE SMOOTH",
"72 -287 OFFCURVE",
"105 -227 OFFCURVE",
"105 -132 CURVE SMOOTH",
"105 440 LINE"
);
}
);
width = 150;
},
{
background = {
paths = (
{
closed = 1;
nodes = (
"188 540 OFFCURVE",
"215 567 OFFCURVE",
"215 604 CURVE SMOOTH",
"215 640 OFFCURVE",
"188 667 OFFCURVE",
"151 667 CURVE SMOOTH",
"114 667 OFFCURVE",
"87 640 OFFCURVE",
"87 604 CURVE SMOOTH",
"87 567 OFFCURVE",
"114 540 OFFCURVE",
"151 540 CURVE SMOOTH"
);
},
{
closed = 1;
nodes = (
"4 440 LINE",
"4 410 LINE",
"62 410 LINE SMOOTH",
"94 410 OFFCURVE",
"105 395 OFFCURVE",
"105 367 CURVE SMOOTH",
"105 -126 LINE SMOOTH",
"105 -210 OFFCURVE",
"75 -240 OFFCURVE",
"22 -240 CURVE SMOOTH",
"-11 -240 OFFCURVE",
"-29 -228 OFFCURVE",
"-29 -209 CURVE SMOOTH",
"-29 -186 OFFCURVE",
"-14 -174 OFFCURVE",
"-14 -145 CURVE SMOOTH",
"-14 -110 OFFCURVE",
"-40 -83 OFFCURVE",
"-78 -83 CURVE SMOOTH",
"-115 -83 OFFCURVE",
"-142 -112 OFFCURVE",
"-142 -157 CURVE SMOOTH",
"-142 -218 OFFCURVE",
"-81 -272 OFFCURVE",
"20 -272 CURVE SMOOTH",
"143 -272 OFFCURVE",
"205 -212 OFFCURVE",
"205 -117 CURVE SMOOTH",
"205 440 LINE"
);
}
);
};
layerId = "484F8FD9-52EC-47CF-91D8-DA5450121283";
paths = (
{
closed = 1;
nodes = (
"193 540 OFFCURVE",
"220 567 OFFCURVE",
"220 604 CURVE SMOOTH",
"220 640 OFFCURVE",
"193 667 OFFCURVE",
"156 667 CURVE SMOOTH",
"119 667 OFFCURVE",
"92 640 OFFCURVE",
"92 604 CURVE SMOOTH",
"92 567 OFFCURVE",
"119 540 OFFCURVE",
"156 540 CURVE SMOOTH"
);
},
{
closed = 1;
nodes = (
"19 440 LINE",
"19 410 LINE",
"67 410 LINE SMOOTH",
"99 410 OFFCURVE",
"110 395 OFFCURVE",
"110 367 CURVE SMOOTH",
"110 -141 LINE SMOOTH",
"110 -225 OFFCURVE",
"95 -255 OFFCURVE",
"47 -255 CURVE SMOOTH",
"15 -255 OFFCURVE",
"-3 -237 OFFCURVE",
"-3 -215 CURVE SMOOTH",
"-3 -186 OFFCURVE",
"20 -166 OFFCURVE",
"20 -142 CURVE SMOOTH",
"20 -110 OFFCURVE",
"-4 -86 OFFCURVE",
"-40 -86 CURVE SMOOTH",
"-76 -86 OFFCURVE",
"-102 -114 OFFCURVE",
"-102 -154 CURVE SMOOTH",
"-102 -231 OFFCURVE",
"-36 -287 OFFCURVE",
"48 -287 CURVE SMOOTH",
"144 -287 OFFCURVE",
"210 -227 OFFCURVE",
"210 -132 CURVE SMOOTH",
"210 440 LINE"
);
}
);
width = 300;
},
{
background = {
paths = (
{
closed = 1;
nodes = (
"188 540 OFFCURVE",
"215 567 OFFCURVE",
"215 604 CURVE SMOOTH",
"215 640 OFFCURVE",
"188 667 OFFCURVE",
"151 667 CURVE SMOOTH",
"114 667 OFFCURVE",
"87 640 OFFCURVE",
"87 604 CURVE SMOOTH",
"87 567 OFFCURVE",
"114 540 OFFCURVE",
"151 540 CURVE SMOOTH"
);
},
{
closed = 1;
nodes = (
"4 440 LINE",
"4 410 LINE",
"62 410 LINE SMOOTH",
"94 410 OFFCURVE",
"105 395 OFFCURVE",
"105 367 CURVE SMOOTH",
"105 -126 LINE SMOOTH",
"105 -210 OFFCURVE",
"75 -240 OFFCURVE",
"22 -240 CURVE SMOOTH",
"-11 -240 OFFCURVE",
"-29 -228 OFFCURVE",
"-29 -209 CURVE SMOOTH",
"-29 -186 OFFCURVE",
"-14 -174 OFFCURVE",
"-14 -145 CURVE SMOOTH",
"-14 -110 OFFCURVE",
"-40 -83 OFFCURVE",
"-78 -83 CURVE SMOOTH",
"-115 -83 OFFCURVE",
"-142 -112 OFFCURVE",
"-142 -157 CURVE SMOOTH",
"-142 -218 OFFCURVE",
"-81 -272 OFFCURVE",
"20 -272 CURVE SMOOTH",
"143 -272 OFFCURVE",
"205 -212 OFFCURVE",
"205 -117 CURVE SMOOTH",
"205 440 LINE"
);
}
);
};
layerId = "28D540C6-4B1C-4739-9DB3-C8E6E4DDF73A";
paths = (
{
closed = 1;
nodes = (
"386 540 OFFCURVE",
"440 567 OFFCURVE",
"440 604 CURVE SMOOTH",
"440 640 OFFCURVE",
"386 667 OFFCURVE",
"312 667 CURVE SMOOTH",
"238 667 OFFCURVE",
"184 640 OFFCURVE",
"184 604 CURVE SMOOTH",
"184 567 OFFCURVE",
"238 540 OFFCURVE",
"312 540 CURVE SMOOTH"
);
},
{
closed = 1;
nodes = (
"38 440 LINE",
"38 410 LINE",
"134 410 LINE SMOOTH",
"198 410 OFFCURVE",
"220 395 OFFCURVE",
"220 367 CURVE SMOOTH",
"220 -141 LINE SMOOTH",
"220 -225 OFFCURVE",
"190 -255 OFFCURVE",
"94 -255 CURVE SMOOTH",
"30 -255 OFFCURVE",
"-6 -237 OFFCURVE",
"-6 -215 CURVE SMOOTH",
"-6 -186 OFFCURVE",
"40 -166 OFFCURVE",
"40 -142 CURVE SMOOTH",
"40 -110 OFFCURVE",
"-8 -86 OFFCURVE",
"-80 -86 CURVE SMOOTH",
"-152 -86 OFFCURVE",
"-204 -114 OFFCURVE",
"-204 -154 CURVE SMOOTH",
"-204 -231 OFFCURVE",
"-72 -287 OFFCURVE",
"96 -287 CURVE SMOOTH",
"288 -287 OFFCURVE",
"420 -227 OFFCURVE",
"420 -132 CURVE SMOOTH",
"420 440 LINE"
);
}
);
width = 600;
}
);
unicode = 006A;
userData = {
com.typemytype.robofont.guides = (
);
com.typemytype.robofont.layerData = {
background = {
anchors = (
);
components = (
);
contours = (
);
lib = {
};
name = j;
unicodes = (
);
width = 300;
};
};
};
},
